<svg width="30" height="26" viewBox="0 0 30 26" fill="none" xmlns="http://www.w3.org/2000/svg">
<path fill-rule="evenodd" clip-rule="evenodd" d="M10.3828 10.9517L28.3148 10.9517L28.3148 12.8392L10.3828 12.8392L10.3828 10.9517Z" fill="white"/>
<path fill-rule="evenodd" clip-rule="evenodd" d="M9.4375 7.17651L29.2571 7.17651L29.2571 9.06409L9.4375 9.0641L9.4375 7.17651Z" fill="white"/>
<path fill-rule="evenodd" clip-rule="evenodd" d="M0 1.51374C0 0.992496 0.42255 0.569946 0.943791 0.569946H7.78064L12.0277 14.7268H26.4262C26.9474 14.7268 27.3699 15.1494 27.3699 15.6706C27.3699 16.1918 26.9474 16.6144 26.4262 16.6144H10.6233L6.37622 2.45753H0.943791C0.42255 2.45753 0 2.03498 0 1.51374Z" fill="white"/>
<path fill-rule="evenodd" clip-rule="evenodd" d="M13.6861 20.3895C12.9042 20.3895 12.2704 21.0234 12.2704 21.8052C12.2704 22.5871 12.9042 23.2209 13.6861 23.2209C14.4679 23.2209 15.1018 22.5871 15.1018 21.8052C15.1018 21.0234 14.4679 20.3895 13.6861 20.3895ZM10.3828 21.8052C10.3828 19.9809 11.8617 18.502 13.6861 18.502C15.5104 18.502 16.9894 19.9809 16.9894 21.8052C16.9894 23.6296 15.5104 25.1085 13.6861 25.1085C11.8617 25.1085 10.3828 23.6296 10.3828 21.8052Z" fill="white"/>
<path fill-rule="evenodd" clip-rule="evenodd" d="M23.1236 20.3895C22.3417 20.3895 21.7079 21.0234 21.7079 21.8052C21.7079 22.5871 22.3417 23.2209 23.1236 23.2209C23.9054 23.2209 24.5393 22.5871 24.5393 21.8052C24.5393 21.0234 23.9054 20.3895 23.1236 20.3895ZM19.8203 21.8052C19.8203 19.9809 21.2992 18.502 23.1236 18.502C24.9479 18.502 26.4269 19.9809 26.4269 21.8052C26.4269 23.6296 24.9479 25.1085 23.1236 25.1085C21.2992 25.1085 19.8203 23.6296 19.8203 21.8052Z" fill="white"/>
</svg>
