<svg width="70" height="77" viewBox="0 0 70 77" fill="none" xmlns="http://www.w3.org/2000/svg">
<path d="M60.843 13.1909L61.6494 12.3872L60.5308 12.5992C47.4236 15.0833 38.2323 26.5803 36.678 36.3828L36.5097 37.4441L37.2708 36.6855C41.2968 32.6723 45.3504 28.6323 49.4166 24.5796C53.2183 20.7907 57.0311 16.9906 60.843 13.1909ZM63.5588 17.1887L63.7311 16.1209L62.9659 16.8853L62.6561 17.1948C55.1265 24.7169 47.5961 32.2396 39.8708 39.9563L39.0542 40.772L40.1863 40.5473C52.6335 38.076 61.9266 27.3019 63.5588 17.1887ZM31.7366 45.4141C30.0623 25.7155 47.0218 6.52712 68.8531 7.83681C70.0327 28.1897 53.4889 46.4012 31.7366 45.4141Z" fill="#222222" stroke="#F3F3F3" stroke-width="0.7"/>
<path d="M18.794 72.4404L18.7408 72.1545L19.0848 72.0904M18.794 72.4404L19.0848 72.0904M18.794 72.4404H19.0848H19.1328H19.1807H19.2287H19.2766H19.3245H19.3725H19.4204H19.4683H19.5162H19.5641H19.612H19.66H19.7079H19.7558H19.8037H19.8516H19.8995H19.9474H19.9953H20.0432H20.091H20.1389H20.1868H20.2347H20.2826H20.3304H20.3783H20.4262H20.474H20.5219H20.5698H20.6176H20.6655H20.7133H20.7612H20.809H20.8569H20.9047H20.9525H21.0004H21.0482H21.096H21.1439H21.1917H21.2395H21.2873H21.3351H21.383H21.4308H21.4786H21.5264H21.5742H21.622H21.6698H21.7176H21.7654H21.8132H21.861H21.9088H21.9566H22.0043H22.0521H22.0999H22.1477H22.1954H22.2432H22.291H22.3387H22.3865H22.4343H22.482H22.5298H22.5775H22.6253H22.673H22.7208H22.7685H22.8163H22.864H22.9118H22.9595H23.0072H23.055H23.1027H23.1504H23.1981H23.2459H23.2936H23.3413H23.389H23.4367H23.4844H23.5321H23.5799H23.6276H23.6753H23.723H23.7707H23.8183H23.866H23.9137H23.9614H24.0091H24.0568H24.1045H24.1522H24.1998H24.2475H24.2952H24.3429H24.3905H24.4382H24.4859H24.5335H24.5812H24.6289H24.6765H24.7242H24.7718H24.8195H24.8671H24.9148H24.9624H25.0101H25.0577H25.1053H25.153H25.2006H25.2483H25.2959H25.3435H25.3911H25.4388H25.4864H25.534H25.5816H25.6293H25.6769H25.7245H25.7721H25.8197H25.8673H25.9149H25.9625H26.0101H26.0577H26.1053H26.1529H26.2005H26.2481H26.2957H26.3433H26.3909H26.4385H26.4861H26.5337H26.5813H26.6288H26.6764H26.724H26.7716H26.8191H26.8667H26.9143H26.9619H27.0094H27.057H27.1046H27.1521H27.1997H27.2472H27.2948H27.3424H27.3899H27.4375H27.485H27.5326H27.5801H27.6277H27.6752H27.7228H27.7703H27.8178H27.8654H27.9129H27.9604H28.008H28.0555H28.103H28.1506H28.1981H28.2456H28.2932H28.3407H28.3882H28.4357H28.4832H28.5308H28.5783H28.6258H28.6733H28.7208H28.7683H28.8158H28.8634H28.9109H28.9584H29.0059H29.0534H29.1009H29.1484H29.1959H29.2434H29.2909H29.3384H29.3859H29.4334H29.4808H29.5283H29.5758H29.6233H29.6708H29.7183H29.7658H29.8132H29.8607H29.9082H29.9557H30.0032H30.0506H30.0981H30.1456H30.1931H30.2405H30.288H30.3355H30.3829H30.4304H30.4779H30.5253H30.5728H30.6203H30.6677H30.7152H30.7627H30.8101H30.8576H30.905H30.9525H30.9999H31.0474H31.0948H31.1423H31.1897H31.2372H31.2846H31.3321H31.3795H31.427H31.4744H31.5219H31.5693H31.6167H31.6642H31.7116H31.7591H31.8065H31.8539H31.9014H31.9488H31.9962H32.0437H32.0911H32.1385H32.186H32.2334H32.2808H32.3283H32.3757H32.4231H32.4705H32.518H32.5654H32.6128H32.6602H32.7077H32.7551H32.8025H32.8499H32.8973H32.9448H32.9922H33.0396H33.087H33.1344H33.1818H33.2292H33.2767H33.3241H33.3715H33.4189H33.4663H33.5137H33.5611H33.6085H33.6559H33.7033H33.7507H33.7982H33.8456H33.893H33.9404H33.9878H34.0352H34.0826H34.13H34.1774H34.2248H34.2722H34.3196H34.367H34.4144H34.4618H34.5092H34.5566H34.604H34.6514H34.6988H34.7462H34.7935H34.8409H34.8883H34.9357H34.9831H35.0305H35.0779H35.1253H35.1727H35.2201H35.2675H35.3149H35.3623H35.4096H35.457H35.5044H35.5518H35.5992H35.6466H35.694H35.7414H35.7887H35.8361H35.8835H35.9309H35.9783H36.0257H36.0731H36.1204H36.1678H36.2152H36.2626H36.31H36.3574H36.4047H36.4521H36.4995H36.5469H36.5943H36.6417H36.689H36.7364H36.7838H36.8312H36.8786H36.926H36.9733H37.0207H37.0681H37.1155H37.1629H37.2102H37.2576H37.305H37.3524H37.3998H37.4472H37.4945H37.5419H37.5893H37.6367H37.6841H37.7314H37.7788H37.8262H37.8736H37.921H37.9683H38.0157H38.0631H38.1105H38.1579H38.2052H38.2526H38.3H38.3474H38.3948H38.4422H38.4895H38.5369H38.5843H38.6317H38.6791H38.7265H38.7738H38.8212H38.8686H38.916H38.9634H39.0108H39.0581H39.1055H39.1529H39.2003H39.2477H39.2951H39.3424H39.3898H39.4372H39.4846H39.532H39.5794H39.6268H39.6742H39.7215H39.7689H39.8163H39.8637H39.9111H39.9585H40.0059H40.0533H40.1007H40.148H40.1954H40.2428H40.2902H40.3376H40.385H40.4324H40.4798H40.5272H40.5746H40.622H40.6694H40.7168H40.7642H40.8116H40.859H40.9064H40.9538H41.0012H41.0486H41.096H41.1434H41.1908H41.2382H41.2856H41.333H41.3804H41.4278H41.4752H41.5226H41.57H41.6174H41.6648H41.7122H41.7596H41.807H41.8544H41.9018H41.9493H41.9967H42.0441H42.0915H42.1389H42.1863H42.2337H42.2812H42.3286H42.376H42.4234H42.4708H42.5182H42.5657H42.6131H42.6605H42.7079H42.7554H42.8028H42.8502H42.8976H42.9451H42.9925H43.0399H43.0873H43.1348H43.1822H43.2296H43.2771H43.3245H43.3719H43.4194H43.7102L43.7634 72.1545L43.4194 72.0904M18.794 72.4404L43.4194 72.0904M19.0848 72.0904H43.4194M19.0848 72.0904C18.685 69.9437 18.2865 67.8049 17.8881 65.667L43.4194 72.0904M43.4194 72.0904C43.8188 69.9454 44.2171 67.8084 44.6152 65.6723C45.2484 62.2743 45.8813 58.8785 46.518 55.4563M43.4194 72.0904L46.518 55.4563M46.518 55.4563L46.8621 55.5203L46.9391 55.1063H46.518V55.4563ZM11.5569 56.1579L11.5568 56.1576C11.4991 55.8339 11.3957 55.5219 11.15 55.306C10.8986 55.0851 10.5681 55.0242 10.2006 55.0345L10.2005 55.0345C8.96466 55.0694 7.72963 55.0629 6.45762 55.0563C6.05349 55.0541 5.64562 55.052 5.23281 55.0512V55.0491V55.0396V55.0301V55.0207V55.0112V55.0017V54.9923V54.9828V54.9733V54.9639V54.9544V54.945V54.9355V54.926V54.9166V54.9071V54.8977V54.8883V54.8788V54.8694V54.8599V54.8505V54.841V54.8316V54.8222V54.8127V54.8033V54.7939V54.7844V54.775V54.7656V54.7562V54.7467V54.7373V54.7279V54.7185V54.7091V54.6996V54.6902V54.6808V54.6714V54.662V54.6526V54.6432V54.6338V54.6244V54.615V54.6056V54.5962V54.5868V54.5774V54.568V54.5586V54.5492V54.5398V54.5304V54.521V54.5116V54.5022V54.4928V54.4835V54.4741V54.4647V54.4553V54.4459V54.4366V54.4272V54.4178V54.4084V54.3991V54.3897V54.3803V54.371V54.3616V54.3522V54.3429V54.3335V54.3241V54.3148V54.3054V54.296V54.2867V54.2773V54.268V54.2586V54.2493V54.2399V54.2306V54.2212V54.2119V54.2025V54.1932V54.1838V54.1745V54.1651V54.1558V54.1464V54.1371V54.1278V54.1184V54.1091V54.0998V54.0904V54.0811V54.0718V54.0624V54.0531V54.0438V54.0344V54.0251V54.0158V54.0065V53.9971V53.9878V53.9785V53.9692V53.9598V53.9505V53.9412V53.9319V53.9226V53.9132V53.9039V53.8946V53.8853V53.876V53.8667V53.8574V53.8481V53.8387V53.8294V53.8201V53.8108V53.8015V53.7922V53.7829V53.7736V53.7643V53.755V53.7457V53.7364V53.7271V53.7178V53.7085V53.6992V53.6899V53.6806V53.6713V53.662V53.6527V53.6434V53.6341V53.6249V53.6156V53.6063V53.597V53.5877V53.5784V53.5691V53.5598V53.5505V53.5413V53.532V53.5227V53.5134V53.5041V53.4948V53.4856V53.4763V53.467V53.4577V53.4484V53.4392V53.4299V53.4206V53.4113V53.4021V53.3928V53.3835V53.3742V53.365V53.3557V53.3464V53.3371V53.3279V53.3186V53.3093V53.3001V53.2908V53.2815V53.2723V53.263V53.2537V53.2445V53.2352V53.2259V53.2167V53.2074V53.1981V53.1889V53.1796V53.1703V53.1611V53.1518V53.1425V53.1333V53.124V53.1148V53.1055V53.0962V53.087V53.0777V53.0685V53.0592V53.0499V53.0407V53.0314V53.0222V53.0129V53.0036V52.9944V52.9851V52.9759V52.9666V52.9574V52.9481V52.9389V52.9296V52.9203V52.9111V52.9018V52.8926V52.8833V52.8741V52.8648V52.8556V52.8463V52.8371V52.8278V52.8185V52.8093V52.8V52.7908V52.7815V52.7723V52.763V52.7538V52.7445V52.7353V52.726V52.7168V52.7075V52.6983V52.689V52.6798V52.6705V52.6613V52.652V52.6428V52.6335V52.6243V52.615V52.6058V52.5965V52.5872V52.578V52.5687V52.5595V52.5502V52.541V52.5317V52.5225V52.5132V52.504V52.4947V52.4855V52.4762V52.467V52.4577V52.4485V52.4392V52.43V52.4207V52.4115V52.4022V52.393V52.3837V52.3745V52.3652V52.3559V52.3467V52.3374V52.3282V52.3189V52.3097V52.3004V52.2912V52.2819V52.2727V52.2634V52.2541V52.2449V52.2356V52.2264V52.2171V52.2079V52.1986V52.1894V52.1801V52.1708V52.1616V52.1523V52.1431V52.1338V52.1245V52.1153V52.106V52.0968V52.0875V52.0782V52.069V52.0597V52.0505V52.0412V52.0319V52.0227V52.0134V52.0041V51.9949V51.9856V51.9763V51.9671V51.9578V51.9485V51.9393V51.93V51.9207V51.9115V51.9022V51.8929V51.8837V51.8744V51.8651V51.8558V51.8466V51.8373V51.828V51.8188V51.8095V51.8002V51.7909V51.7817V51.7724V51.7631V51.7538V51.7445V51.7353V51.726V51.7167V51.7074V51.6981V51.6889V51.6796V51.6703V51.661V51.6517V51.6424V51.6332V51.6239V51.6146V51.6053V51.596V51.5867V51.5774V51.5681V51.5588V51.5496V51.5403V51.531V51.5217V51.5124V51.5031V51.4938V51.4845V51.4752V51.4659V51.4566V51.4473V51.438V51.4287V51.4194V51.4101V51.4008V51.3915V51.3822V51.3729V51.3636V51.3542V51.3449V51.3356V51.3263V51.317V51.3077V51.2984V51.2891V51.2797V51.2704V51.2611V51.2518V51.2425V51.2332V51.2238V51.2145V51.2052V51.1959V51.1865V51.1772V51.1679V51.1586V51.1492V51.1399V51.1306V51.1212V51.1119V51.1026V51.0932V51.0839V51.0746V51.0652V51.0559V51.0465V51.0372V51.0279V51.0185V51.0092V50.9998V50.9905V50.9811V50.975H5.29516H5.39825H5.50133H5.60442H5.7075H5.81058H5.91366H6.01674H6.11982H6.22289H6.32597H6.42904H6.53212H6.63519H6.73826H6.84134H6.94441H7.04748H7.15054H7.25361H7.35668H7.45974H7.56281H7.66587H7.76894H7.872H7.97506H8.07812H8.18118H8.28424H8.3873H8.49035H8.59341H8.69646H8.79952H8.90257H9.00562H9.10868H9.21173H9.31478H9.41783H9.52087H9.62392H9.72697H9.83001H9.93306H10.0361H10.1391H10.2422H10.3452H10.4483H10.5513H10.6544H10.7574H10.8604H10.9635H11.0665H11.1695H11.2726H11.3756H11.4786H11.5817H11.6847H11.7877H11.8908H11.9938H12.0968H12.1999H12.3029H12.4059H12.5089H12.612H12.715H12.818H12.921H13.0241H13.1271H13.2301H13.3331H13.4362H13.5392H13.6422H13.7452H13.8482H13.9513H14.0543H14.1573H14.2603H14.3633H14.4663H14.5693H14.6724H14.7754H14.8784H14.9814H15.0844H15.1874H15.2904H15.3934H15.4964H15.5995H15.7025H15.8055H15.9085H16.0115H16.1145H16.2175H16.3205H16.4235H16.5265H16.6295H16.7325H16.8355H16.9385H17.0415H17.1445H17.2475H17.3505H17.4535H17.5565H17.6595H17.7625H17.8655H17.9685H18.0715H18.1745H18.2775H18.3805H18.4835H18.5865H18.6895H18.7925H18.8955H18.9985H19.1015H19.2045H19.3075H19.4105H19.5135H19.6164H19.7194H19.8224H19.9254H20.0284H20.1314H20.2344H20.3374H20.4404H20.5434H20.6463H20.7493H20.8523H20.9553H21.0583H21.1613H21.2643H21.3673H21.4703H21.5732H21.6762H21.7792H21.8822H21.9852H22.0882H22.1912H22.2941H22.3971H22.5001H22.6031H22.7061H22.8091H22.912H23.015H23.118H23.221H23.324H23.427H23.5299H23.6329H23.7359H23.8389H23.9419H24.0449H24.1478H24.2508H24.3538H24.4568H24.5598H24.6628H24.7657H24.8687H24.9717H25.0747H25.1777H25.2806H25.3836H25.4866H25.5896H25.6926H25.7956H25.8985H26.0015H26.1045H26.2075H26.3105H26.4134H26.5164H26.6194H26.7224H26.8254H26.9284H27.0313H27.1343H27.2373H27.3403H27.4433H27.5462H27.6492H27.7522H27.8552H27.9582H28.0611H28.1641H28.2671H28.3701H28.4731H28.5761H28.679H28.782H28.885H28.988H29.091H29.194H29.2969H29.3999H29.5029H29.6059H29.7089H29.8119H29.9148H30.0178H30.1208H30.2238H30.3268H30.4298H30.5327H30.6357H30.7387H30.8417H30.9447H31.0477H31.1507H31.2537H31.3566H31.4596H31.5626H31.6656H31.7686H31.8716H31.9746H32.0776H32.1805H32.2835H32.3865H32.4895H32.5925H32.6955H32.7985H32.9015H33.0045H33.1075H33.2105H33.3134H33.4164H33.5194H33.6224H33.7254H33.8284H33.9314H34.0344H34.1374H34.2404H34.3434H34.4464H34.5494H34.6524H34.7554H34.8584H34.9614H35.0644H35.1674H35.2704H35.3734H35.4764H35.5794H35.6824H35.7854H35.8884H35.9914H36.0944H36.1974H36.3004H36.4034H36.5064H36.6094H36.7124H36.8154H36.9184H37.0214H37.1244H37.2275H37.3305H37.4335H37.5365H37.6395H37.7425H37.8455H37.9485H38.0515H38.1546H38.2576H38.3606H38.4636H38.5666H38.6696H38.7726H38.8757H38.9787H39.0817H39.1847H39.2877H39.3908H39.4938H39.5968H39.6998H39.8029H39.9059H40.0089H40.1119H40.215H40.318H40.421H40.524H40.6271H40.7301H40.8331H40.9362H41.0392H41.1422H41.2453H41.3483H41.4513H41.5544H41.6574H41.7604H41.8635H41.9665H42.0695H42.1726H42.2756H42.3787H42.4817H42.5847H42.6878H42.7908H42.8939H42.9969H43.1H43.203H43.3061H43.4091H43.5122H43.6152H43.7183H43.8213H43.9244H44.0274H44.1305H44.2335H44.3366H44.4397H44.5427H44.6458H44.7488H44.8519H44.955H45.058H45.1611H45.2641H45.3672H45.4703H45.5733H45.6764H45.7795H45.8826H45.9856H46.0887H46.1918H46.2948H46.3979H46.501H46.6041H46.7071H46.8102H46.9133H47.0164H47.1195H47.2226H47.3256H47.4287H47.5318H47.6349H47.738H47.8411H47.9442H48.0473H48.1503H48.2534H48.3565H48.4596H48.5627H48.6658H48.7689H48.872H48.9751H49.0782H49.1813H49.2844H49.3875H49.4906H49.5938H49.6969H49.8H49.9031H50.0062H50.1093H50.2124H50.3155H50.4187H50.5218H50.6249H50.728H50.8311H50.9342H51.0374H51.1405H51.2436H51.3468H51.4499H51.553H51.6561H51.7593H51.8624H51.9655H52.0687H52.1718H52.275H52.3781H52.4812H52.5844H52.6875H52.7907H52.8938H52.997H53.1001H53.2033H53.3064H53.4096H53.5127H53.6159H53.719H53.8222H53.9253H54.0285H54.1317H54.2348H54.338H54.4412H54.5443H54.6475H54.7507H54.8538H54.957H55.0602H55.1633H55.2665H55.3697H55.4729H55.5761H55.6792H55.7824H55.8856H55.9888H56.092H56.1952H56.2984H56.4016H56.5048H56.608H56.7111H56.8143H56.9175H57.0207H57.1239H57.2272H57.29V50.9758V50.985V50.9942V51.0034V51.0126V51.0218V51.031V51.0402V51.0494V51.0586V51.0678V51.077V51.0862V51.0954V51.1046V51.1138V51.123V51.1322V51.1414V51.1506V51.1598V51.169V51.1782V51.1874V51.1966V51.2058V51.215V51.2242V51.2334V51.2425V51.2517V51.2609V51.2701V51.2793V51.2885V51.2977V51.3069V51.316V51.3252V51.3344V51.3436V51.3528V51.362V51.3711V51.3803V51.3895V51.3987V51.4079V51.417V51.4262V51.4354V51.4446V51.4538V51.4629V51.4721V51.4813V51.4905V51.4996V51.5088V51.518V51.5272V51.5363V51.5455V51.5547V51.5639V51.573V51.5822V51.5914V51.6005V51.6097V51.6189V51.6281V51.6372V51.6464V51.6556V51.6647V51.6739V51.6831V51.6923V51.7014V51.7106V51.7198V51.7289V51.7381V51.7473V51.7564V51.7656V51.7748V51.7839V51.7931V51.8023V51.8114V51.8206V51.8298V51.8389V51.8481V51.8573V51.8665V51.8756V51.8848V51.894V51.9031V51.9123V51.9215V51.9306V51.9398V51.949V51.9581V51.9673V51.9765V51.9856V51.9948V52.004V52.0131V52.0223V52.0315V52.0406V52.0498V52.059V52.0681V52.0773V52.0865V52.0957V52.1048V52.114V52.1232V52.1323V52.1415V52.1507V52.1598V52.169V52.1782V52.1874V52.1965V52.2057V52.2149V52.2241V52.2332V52.2424V52.2516V52.2608V52.2699V52.2791V52.2883V52.2975V52.3066V52.3158V52.325V52.3342V52.3433V52.3525V52.3617V52.3709V52.3801V52.3892V52.3984V52.4076V52.4168V52.426V52.4352V52.4443V52.4535V52.4627V52.4719V52.4811V52.4903V52.4994V52.5086V52.5178V52.527V52.5362V52.5454V52.5546V52.5638V52.573V52.5822V52.5914V52.6005V52.6097V52.6189V52.6281V52.6373V52.6465V52.6557V52.6649V52.6741V52.6833V52.6925V52.7017V52.7109V52.7201V52.7293V52.7385V52.7478V52.757V52.7662V52.7754V52.7846V52.7938V52.803V52.8122V52.8214V52.8306V52.8399V52.8491V52.8583V52.8675V52.8767V52.886V52.8952V52.9044V52.9136V52.9228V52.9321V52.9413V52.9505V52.9597V52.969V52.9782V52.9874V52.9967V53.0059V53.0151V53.0244V53.0336V53.0428V53.0521V53.0613V53.0706V53.0798V53.089V53.0983V53.1075V53.1168V53.126V53.1353V53.1445V53.1538V53.163V53.1723V53.1815V53.1908V53.2001V53.2093V53.2186V53.2278V53.2371V53.2464V53.2556V53.2649V53.2742V53.2834V53.2927V53.302V53.3113V53.3205V53.3298V53.3391V53.3484V53.3576V53.3669V53.3762V53.3855V53.3948V53.4041V53.4134V53.4226V53.4319V53.4412V53.4505V53.4598V53.4691V53.4784V53.4877V53.497V53.5063V53.5156V53.5249V53.5343V53.5436V53.5529V53.5622V53.5715V53.5808V53.5901V53.5995V53.6088V53.6181V53.6274V53.6368V53.6461V53.6554V53.6648V53.6741V53.6834V53.6928V53.7021V53.7114V53.7208V53.7301V53.7395V53.7488V53.7582V53.7675V53.7769V53.7862V53.7956V53.8049V53.8143V53.8237V53.833V53.8424V53.8518V53.8611V53.8705V53.8799V53.8893V53.8986V53.908V53.9174V53.9268V53.9362V53.9456V53.9549V53.9643V53.9737V53.9831V53.9925V54.0019V54.0113V54.0207V54.0301V54.0395V54.049V54.0584V54.0678V54.0772V54.0866V54.096V54.1055V54.1149V54.1243V54.1337V54.1432V54.1526V54.162V54.1715V54.1809V54.1904V54.1998V54.2093V54.2187V54.2282V54.2376V54.2471V54.2565V54.266V54.2754V54.2849V54.2944V54.3038V54.3133V54.3228V54.3323V54.3417V54.3512V54.3607V54.3702V54.3797V54.3892V54.3987V54.4082V54.4177V54.4272V54.4367V54.4462V54.4557V54.4652V54.4747V54.4842V54.4937V54.5033V54.5128V54.5223V54.5318V54.5414V54.5509V54.5604V54.57V54.5795V54.589V54.5986V54.6081V54.6177V54.6272V54.6368V54.6464V54.6559V54.6655V54.6751V54.6846V54.6942V54.7038V54.7133V54.7229V54.7325V54.7421V54.7517V54.7613V54.7709V54.7805V54.7901V54.7997V54.8093V54.8189V54.8285V54.8381V54.8477V54.8573V54.867V54.8766V54.8862V54.8958V54.9055V54.9151V54.9248V54.9344V54.944V54.9537V54.9633V54.973V54.9826V54.9923V55.002V55.0116V55.0213V55.031V55.0406V55.0503V55.0513C56.8989 55.0525 56.5098 55.0554 56.1221 55.0582C54.9107 55.0671 53.7134 55.0759 52.5151 55.0325L52.5149 55.0325C52.0859 55.0173 51.6994 55.0696 51.4035 55.3143C51.1104 55.5568 50.9802 55.9277 50.9022 56.3533C50.1515 60.4517 49.3787 64.544 48.6057 68.6376C48.1344 71.133 47.6631 73.629 47.1966 76.1271C47.1466 76.3922 47.0883 76.5001 47.0331 76.5525C46.9879 76.5953 46.8911 76.6507 46.6183 76.6498L46.6178 76.6498C38.488 76.6353 30.3582 76.6347 22.2298 76.6341C20.0129 76.634 17.7961 76.6338 15.5795 76.6334C15.5197 76.6325 15.4549 76.6252 15.3665 76.6122C15.3464 76.6092 15.3246 76.6059 15.3014 76.6023C15.0514 75.2465 14.8011 73.8932 14.551 72.5412C14.1819 70.5455 13.8133 68.5526 13.4467 66.5585C13.3952 66.2781 13.3437 65.9977 13.2922 65.7174C12.7073 62.5314 12.1225 59.3463 11.5569 56.1579Z" fill="#222222" stroke="#F3F3F3" stroke-width="0.7"/>
<path d="M22.8844 4.68794C19.3066 4.66188 16.4887 7.40872 16.4668 10.9567C16.445 14.4985 19.2382 17.3314 22.7764 17.3531C26.3497 17.3748 29.1489 14.6263 29.1709 11.064C29.1949 7.47474 26.4719 4.71195 22.8844 4.68794ZM22.8844 4.68794L22.8819 5.03793L22.8842 4.68794C22.8843 4.68794 22.8844 4.68794 22.8844 4.68794ZM33.3172 11.0581V11.0583C33.2612 16.8685 28.6259 21.4408 22.8042 21.4269C16.9724 21.4129 12.3704 16.8092 12.3764 11.0024C12.3824 5.20271 17.002 0.578509 22.8109 0.556618C28.6147 0.534731 33.3751 5.29754 33.3172 11.0581Z" fill="#222222" stroke="#F3F3F3" stroke-width="0.7"/>
<path d="M12.071 33.6588C8.84083 30.4502 4.90294 28.8538 0.35 28.6272V28.6271V28.6175V28.608V28.5985V28.5889V28.5794V28.5699V28.5604V28.5509V28.5414V28.5319V28.5224V28.5129V28.5034V28.4939V28.4844V28.4749V28.4655V28.456V28.4465V28.437V28.4276V28.4181V28.4086V28.3992V28.3897V28.3803V28.3708V28.3614V28.3519V28.3425V28.333V28.3236V28.3142V28.3048V28.2953V28.2859V28.2765V28.2671V28.2577V28.2482V28.2388V28.2294V28.22V28.2106V28.2012V28.1918V28.1824V28.1731V28.1637V28.1543V28.1449V28.1355V28.1262V28.1168V28.1074V28.0981V28.0887V28.0793V28.07V28.0606V28.0513V28.0419V28.0326V28.0232V28.0139V28.0046V27.9952V27.9859V27.9766V27.9672V27.9579V27.9486V27.9393V27.93V27.9207V27.9114V27.902V27.8927V27.8834V27.8741V27.8648V27.8556V27.8463V27.837V27.8277V27.8184V27.8091V27.7998V27.7906V27.7813V27.772V27.7628V27.7535V27.7442V27.735V27.7257V27.7165V27.7072V27.698V27.6887V27.6795V27.6702V27.661V27.6518V27.6425V27.6333V27.6241V27.6149V27.6056V27.5964V27.5872V27.578V27.5688V27.5595V27.5503V27.5411V27.5319V27.5227V27.5135V27.5043V27.4951V27.486V27.4768V27.4676V27.4584V27.4492V27.44V27.4309V27.4217V27.4125V27.4033V27.3942V27.385V27.3758V27.3667V27.3575V27.3484V27.3392V27.3301V27.3209V27.3118V27.3026V27.2935V27.2843V27.2752V27.2661V27.2569V27.2478V27.2387V27.2295V27.2204V27.2113V27.2022V27.1931V27.184V27.1748V27.1657V27.1566V27.1475V27.1384V27.1293V27.1202V27.1111V27.102V27.0929V27.0838V27.0747V27.0657V27.0566V27.0475V27.0384V27.0293V27.0202V27.0112V27.0021V26.993V26.984V26.9749V26.9658V26.9568V26.9477V26.9387V26.9296V26.9205V26.9115V26.9024V26.8934V26.8843V26.8753V26.8663V26.8572V26.8482V26.8391V26.8301V26.8211V26.812V26.803V26.794V26.785V26.7759V26.7669V26.7579V26.7489V26.7399V26.7309V26.7218V26.7128V26.7038V26.6948V26.6858V26.6768V26.6678V26.6588V26.6498V26.6408V26.6318V26.6228V26.6138V26.6049V26.5959V26.5869V26.5779V26.5689V26.5599V26.551V26.542V26.533V26.524V26.5151V26.5061V26.4971V26.4882V26.4792V26.4703V26.4613V26.4523V26.4434V26.4344V26.4255V26.4165V26.4076V26.3986V26.3897V26.3807V26.3718V26.3628V26.3539V26.345V26.336V26.3271V26.3182V26.3092V26.3003V26.2914V26.2824V26.2735V26.2646V26.2557V26.2467V26.2378V26.2289V26.22V26.2111V26.2021V26.1932V26.1843V26.1754V26.1665V26.1576V26.1487V26.1398V26.1309V26.122V26.1131V26.1042V26.0953V26.0864V26.0775V26.0686V26.0597V26.0508V26.0419V26.0331V26.0242V26.0153V26.0064V25.9975V25.9886V25.9798V25.9709V25.962V25.9531V25.9443V25.9354V25.9265V25.9176V25.9088V25.8999V25.891V25.8822V25.8733V25.8644V25.8556V25.8467V25.8379V25.829V25.8202V25.8113V25.8024V25.7936V25.7847V25.7759V25.767V25.7582V25.7493V25.7405V25.7317V25.7228V25.714V25.7051V25.6963V25.6874V25.6786V25.6698V25.6609V25.6521V25.6433V25.6344V25.6256V25.6168V25.6079V25.5991V25.5903V25.5815V25.5726V25.5638V25.555V25.5462V25.5373V25.5285V25.5197V25.5109V25.5021V25.4933V25.4844V25.4756V25.4668V25.458V25.4492V25.4404V25.4316V25.4228V25.414V25.4051V25.3963V25.3875V25.3787V25.3699V25.3611V25.3523V25.3435V25.3347V25.3259V25.3171V25.3083V25.2995V25.2907V25.2819V25.2731V25.2644V25.2556V25.2468V25.238V25.2292V25.2204V25.2116V25.2028V25.194V25.1852V25.1765V25.1677V25.1589V25.1501V25.1413V25.1325V25.1238V25.115V25.1062V25.0974V25.0886V25.0799V25.0711V25.0623V25.0535V25.0448V25.036V25.0272V25.0184V25.0097V25.0009V24.9921V24.9833V24.9746V24.9658V24.957V24.9483V24.9395V24.9307V24.922V24.9132V24.9044V24.8957V24.8869V24.8781V24.8694V24.8606V24.8518V24.8431V24.8343V24.8256V24.8168V24.808V24.7993V24.7905V24.7818V24.773V24.7642V24.7555V24.7467V24.738V24.7292V24.7205V24.7117V24.7029V24.6942V24.6854V24.6767V24.6679V24.6632C10.7358 24.3553 21.1715 33.5768 21.206 45.3537H21.1995H21.1904H21.1813H21.1722H21.1631H21.154H21.1449H21.1358H21.1267H21.1176H21.1086H21.0995H21.0904H21.0813H21.0722H21.0631H21.054H21.0449H21.0358H21.0267H21.0176H21.0085H20.9994H20.9903H20.9812H20.9721H20.963H20.954H20.9449H20.9358H20.9267H20.9176H20.9085H20.8994H20.8903H20.8812H20.8721H20.863H20.8539H20.8448H20.8357H20.8266H20.8175H20.8084H20.7993H20.7902H20.7811H20.772H20.7629H20.7538H20.7447H20.7356H20.7265H20.7174H20.7083H20.6992H20.6901H20.681H20.6719H20.6628H20.6537H20.6446H20.6355H20.6264H20.6173H20.6082H20.5991H20.59H20.5809H20.5718H20.5627H20.5536H20.5444H20.5353H20.5262H20.5171H20.508H20.4989H20.4898H20.4807H20.4716H20.4625H20.4534H20.4443H20.4352H20.4261H20.4169H20.4078H20.3987H20.3896H20.3805H20.3714H20.3623H20.3532H20.3441H20.3349H20.3258H20.3167H20.3076H20.2985H20.2894H20.2803H20.2711H20.262H20.2529H20.2438H20.2347H20.2256H20.2165H20.2073H20.1982H20.1891H20.18H20.1709H20.1617H20.1526H20.1435H20.1344H20.1253H20.1161H20.107H20.0979H20.0888H20.0797H20.0705H20.0614H20.0523H20.0432H20.034H20.0249H20.0158H20.0067H19.9975H19.9884H19.9793H19.9701H19.961H19.9519H19.9428H19.9336H19.9245H19.9154H19.9062H19.8971H19.888H19.8788H19.8697H19.8606H19.8514H19.8423H19.8332H19.824H19.8149H19.8058H19.7966H19.7875H19.7784H19.7692H19.7601H19.751H19.7418H19.7327H19.7235H19.7144H19.7052H19.6961H19.687H19.6778H19.6687H19.6595H19.6504H19.6412H19.6321H19.623H19.6138H19.6047H19.5955H19.5864H19.5772H19.5681H19.5589H19.5498H19.5406H19.5315H19.5223H19.5132H19.504H19.4949H19.4857H19.4765H19.4674H19.4582H19.4491H19.4399H19.4308H19.4216H19.4125H19.4033H19.3941H19.385H19.3758H19.3666H19.3575H19.3483H19.3392H19.33H19.3208H19.3117H19.3025H19.2933H19.2842H19.275H19.2658H19.2567H19.2475H19.2383H19.2292H19.22H19.2108H19.2016H19.1925H19.1833H19.1741H19.1649H19.1558H19.1466H19.1374H19.1282H19.1191H19.1099H19.1007H19.0915H19.0823H19.0731H19.064H19.0548H19.0456H19.0364H19.0272H19.018H19.0089H18.9997H18.9905H18.9813H18.9721H18.9629H18.9537H18.9445H18.9353H18.9261H18.9169H18.9078H18.8986H18.8894H18.8802H18.871H18.8618H18.8526H18.8434H18.8342H18.825H18.8158H18.8066H18.7974H18.7882H18.779H18.7697H18.7605H18.7513H18.7421H18.7329H18.7237H18.7145H18.7053H18.6961H18.6869H18.6776H18.6684H18.6592H18.65H18.6408H18.6316H18.6224H18.6131H18.6039H18.5947H18.5855H18.5762H18.567H18.5578H18.5486H18.5394H18.5301H18.5209H18.5117H18.5024H18.4932H18.484H18.4747H18.4655H18.4563H18.4471H18.4378H18.4286H18.4193H18.4101H18.4009H18.3916H18.3824H18.3731H18.3639H18.3547H18.3454H18.3362H18.3269H18.3177H18.3084H18.2992H18.2899H18.2807H18.2714H18.2622H18.2529H18.2437H18.2344H18.2252H18.2159H18.2067H18.1974H18.1882H18.1789H18.1696H18.1604H18.1511H18.1418H18.1326H18.1233H18.114H18.1048H18.0955H18.0862H18.077H18.0677H18.0584H18.0492H18.0399H18.0306H18.0213H18.0121H18.0028H17.9935H17.9842H17.9749H17.9657H17.9564H17.9471H17.9378H17.9285H17.9192H17.91H17.9007H17.8914H17.8821H17.8728H17.8635H17.8542H17.8449H17.8356H17.8263H17.817H17.8077H17.7984H17.7891H17.7798H17.7705H17.7612H17.7519H17.7426H17.7333H17.724H17.7147H17.7054H17.6961H17.6868H17.6775H17.6681H17.6588H17.6495H17.6402H17.6309H17.6216H17.6122H17.6029H17.5936H17.5843H17.5749H17.5656H17.5563H17.547H17.5376H17.5283H17.519H17.5096H17.5003H17.491H17.4816H17.4723H17.463H17.4536H17.4443H17.4349H17.4256H17.4163H17.4069H17.3976H17.3882H17.3789H17.3695H17.3602H17.3508H17.3415H17.3321H17.3228H17.3134H17.3041H17.2947H17.2853H17.276H17.2666H17.2573H17.2479H17.2385H17.2292H17.2198H17.2104H17.2011H17.1917H17.1823H17.1798C16.9562 40.8331 15.3263 36.8903 12.071 33.6588Z" fill="#222222" stroke="#F3F3F3" stroke-width="0.7"/>
</svg>
