<svg width="107" height="107" viewBox="0 0 107 107" fill="none" xmlns="http://www.w3.org/2000/svg">
<path d="M106.67 53.3584C106.641 82.778 82.6279 106.743 53.2504 106.666C23.8611 106.588 -0.0232743 82.654 0.00295126 53.3059C0.0291769 23.8863 24.0423 -0.076109 53.4221 0.000181665C82.8186 0.0764723 106.698 24.0055 106.67 53.3584ZM62.303 43.8721C59.8903 41.9028 57.313 39.9956 54.9742 37.8284C52.9834 35.9855 51.4981 33.7111 50.8639 30.9885C49.8912 26.814 53.2743 23.1258 57.5228 23.7337C59.9928 24.0866 61.9144 25.467 63.7001 27.0786C64.4202 27.7295 65.0734 28.4566 65.7243 29.1146C66.1391 27.2765 66.3132 25.4646 66.9593 23.8434C68.9047 18.9656 74.7387 17.7354 78.2172 21.3759C80.0101 23.2522 80.68 25.5957 80.3224 28.0752C79.8646 31.2412 79.1685 34.3787 78.4246 37.4947C77.9859 39.3304 77.254 41.0946 76.6675 42.8541C76.7271 42.9399 76.7414 42.9828 76.7724 43.0019C77.0752 43.1879 77.3827 43.3667 77.6855 43.5502C81.6742 45.9582 84.3635 49.3126 85.3672 53.9425C86.5832 59.5546 84.6663 63.9842 79.6358 66.776C78.2959 67.5198 76.8296 68.061 75.3801 68.5736C74.1689 69.0027 72.8958 69.2554 71.749 69.5582C77.8929 75.7044 84.0274 81.8362 90.1618 87.9705C101.479 76.4172 107.776 57.5257 101.789 38.763C95.5642 19.2636 82.0604 7.21204 61.9216 3.49286C45.4495 0.448389 30.9611 5.35007 18.3156 16.6912C18.8377 17.1012 19.2144 17.3396 19.5196 17.6448C27.4945 25.6076 35.4719 33.5657 43.4111 41.5619C44.174 42.3296 44.9059 42.7182 45.9955 42.6204C46.8562 42.5442 47.7383 42.6538 48.6061 42.7397C52.4446 43.1211 56.0256 44.3179 59.3372 46.2156C60.4434 45.3431 61.4948 44.511 62.303 43.8721ZM16.692 18.4673C-2.43364 38.4555 -2.42649 71.1651 19.4051 90.8815C40.8863 110.281 71.3961 106.659 87.9755 90.0995C84.9238 87.0574 81.8721 84.0177 78.7894 80.9446C78.0193 84.0534 75.7568 84.8688 72.7694 84.7568C69.639 84.6399 66.4991 84.6471 63.3664 84.7544C60.3409 84.8593 57.9615 84.0296 56.9149 81.1711C54.9456 81.6455 53.0883 82.1867 51.1905 82.5062C50.2345 82.6683 49.4978 82.8972 48.7063 83.548C47.9147 84.1989 46.7226 84.6542 45.6951 84.6781C40.8171 84.7925 35.9344 84.7448 31.054 84.7091C30.5367 84.7043 29.924 84.5326 29.5234 84.2227C23.7872 79.7716 20.5114 73.9974 20.2396 66.6544C20.0918 62.6372 21.1336 58.8966 23.029 55.361C19.1572 52.5812 17.3977 48.9669 18.7876 44.2988C19.9225 40.4867 22.6547 38.167 26.5742 37.6949C31.5309 37.0989 34.9044 39.5045 36.9119 43.9913C38.2565 43.6385 39.5631 43.2928 41.1437 42.8779C32.8994 34.6481 24.8219 26.5827 16.692 18.4673ZM70.5402 72.5645C70.2541 72.2022 70.1349 72.0138 69.9824 71.8612C61.347 63.2213 52.714 54.579 44.05 45.9677C43.721 45.6411 43.0725 45.4337 42.6052 45.4813C39.0791 45.8366 35.8271 47.0286 32.8183 48.8906C20.7975 56.3385 19.4671 72.412 30.1457 81.3165C30.5462 81.6503 31.0874 82.0222 31.569 82.0294C36.2491 82.0818 40.9292 82.0818 45.6092 82.0484C47.0755 82.0389 47.7431 81.1973 47.6215 79.7263C47.445 77.6188 45.9263 75.9285 43.5637 75.311C42.6696 75.0774 42.0545 74.6506 42.2714 73.6827C42.5027 72.6504 43.3014 72.493 44.2312 72.7219C47.1256 73.4371 49.0257 75.2323 49.9675 78.0432C50.163 78.6297 50.244 79.2543 50.3847 79.8861C52.4017 79.7526 54.2685 79.383 55.9445 78.2625C55.5511 77.1301 55.1959 76.0835 54.8192 75.0416C54.5045 74.1714 54.464 73.3727 55.4462 72.9245C56.2568 72.5526 56.9554 73.0199 57.3559 74.1643C58.0497 76.1454 58.734 78.129 59.4039 80.1173C59.8021 81.2974 60.5912 82.027 61.8381 82.0389C65.9627 82.0746 70.0873 82.0818 74.2118 82.0413C75.5732 82.027 76.286 81.0805 76.1263 79.7359C75.8283 77.1921 73.8065 75.3182 71.2483 75.2299C70.576 75.2061 69.8989 75.2347 69.2266 75.2133C68.3445 75.1847 67.7675 74.7579 67.7842 73.8353C67.8009 72.9746 68.354 72.5765 69.1932 72.5645C69.5651 72.5574 69.9442 72.5645 70.5402 72.5645ZM47.445 45.3455C47.5547 45.5648 47.5833 45.684 47.6572 45.7579C54.638 52.748 61.6164 59.7358 68.6162 66.7068C68.857 66.9453 69.3196 67.1312 69.6462 67.0907C73.0126 66.6639 76.2789 65.882 79.1589 63.9771C82.0294 62.077 83.3169 59.4282 82.9521 55.9594C82.4061 50.7597 79.5237 47.3242 74.9485 45.1261C73.4322 44.3966 73.3225 44.0318 73.8614 42.4488C74.8818 39.452 75.9904 36.4719 76.7366 33.4036C77.3017 31.0815 77.5639 28.6378 77.583 26.2466C77.6021 23.9459 75.8831 22.2508 73.8375 21.9695C71.9207 21.7049 70.0586 23.0114 69.2552 25.1976C69.105 25.6052 68.9524 26.0248 68.9 26.4516C68.2658 31.5225 68.1442 36.572 69.6367 41.5405C70.3042 43.7577 70.1779 43.9388 67.87 44.5182C65.4477 45.1261 63.116 46.044 61.5234 48.0252C60.1239 49.7655 59.5279 49.4818 57.9591 48.5401C54.762 46.6209 51.2787 45.5791 47.445 45.3455ZM66.8663 42.1222C66.5373 40.0599 66.008 38.2313 66.0128 36.4051C66.0199 33.9901 65.1425 32.1448 63.4355 30.5689C62.9134 30.0849 62.4818 29.4841 61.9096 29.0765C60.6937 28.211 59.473 27.3146 58.1379 26.6638C56.7408 25.9819 55.3342 26.3062 54.1874 27.3885C53.1145 28.3994 53.1646 29.663 53.6033 30.917C53.887 31.7323 54.2494 32.5453 54.7238 33.2629C57.3774 37.2849 61.0394 40.0909 65.4406 41.9648C65.8506 42.1365 66.3632 42.0721 66.8663 42.1222ZM24.5239 53.0151C27.1417 49.5081 30.4294 46.9166 34.2774 45.0832C33.4835 42.2199 30.8442 40.2531 27.8831 40.2388C24.829 40.2244 22.0539 42.301 21.2457 45.2048C20.4041 48.2374 21.6558 51.308 24.5239 53.0151Z" fill="white"/>
</svg>
