<svg width="35" height="29" viewBox="0 0 35 29" fill="none" xmlns="http://www.w3.org/2000/svg">
<path d="M16.5449 7.13778C16.5449 7.41104 16.5276 7.6843 16.4895 7.95409C16.5033 7.8607 16.5137 7.77077 16.5276 7.67737C16.4515 8.21698 16.3096 8.74276 16.0986 9.24776L16.2024 8.99871C16.0537 9.34807 15.8703 9.68359 15.6593 10.0018C15.604 10.0848 15.5452 10.1644 15.4899 10.2439C15.3619 10.4238 15.642 10.0571 15.5279 10.1955C15.5002 10.2301 15.4726 10.2647 15.4414 10.3027C15.3204 10.448 15.1924 10.5864 15.0609 10.7213C14.926 10.8562 14.7877 10.9807 14.6424 11.1018C14.6078 11.1294 14.5732 11.1606 14.5352 11.1882C14.3968 11.3024 14.7393 11.036 14.6009 11.1364C14.5213 11.1952 14.4418 11.2505 14.3588 11.3058C14.0371 11.5238 13.6946 11.7071 13.3383 11.8593C13.4214 11.8247 13.5044 11.7901 13.5874 11.7555C13.0858 11.9665 12.5601 12.1118 12.017 12.1844C12.1104 12.1706 12.2003 12.1602 12.2937 12.1464C11.7507 12.2156 11.2041 12.2156 10.6611 12.1464C10.7545 12.1602 10.8444 12.1706 10.9378 12.1844C10.3982 12.1083 9.87243 11.9665 9.36744 11.7555C9.45046 11.7901 9.53347 11.8247 9.61649 11.8593C9.26713 11.7105 8.93161 11.5272 8.6134 11.3162C8.53038 11.2609 8.45083 11.2021 8.37127 11.1467C8.1914 11.0188 8.55805 11.2989 8.41969 11.1848C8.3851 11.1571 8.35051 11.1294 8.31247 11.0983C8.16719 10.9772 8.02883 10.8493 7.89392 10.7178C7.75902 10.5829 7.6345 10.4446 7.51343 10.2993C7.48576 10.2647 7.45463 10.2301 7.42696 10.192C7.31281 10.0537 7.57915 10.3961 7.47884 10.2578C7.42004 10.1782 7.3647 10.0987 7.30935 10.0156C7.09143 9.69395 6.9081 9.35151 6.75591 8.99522C6.7905 9.07823 6.82509 9.16125 6.85968 9.24427C6.64868 8.74271 6.5034 8.21695 6.43076 7.67388C6.4446 7.76728 6.45498 7.85721 6.46881 7.9506C6.39963 7.40754 6.39963 6.86099 6.46881 6.31798C6.45498 6.41138 6.4446 6.50131 6.43076 6.5947C6.50686 6.0551 6.64868 5.52931 6.85968 5.02432C6.82509 5.10733 6.79049 5.19035 6.75591 5.27337C6.90465 4.92401 7.08797 4.58849 7.29897 4.27028C7.35432 4.18726 7.41312 4.1077 7.46846 4.02815C7.59644 3.84827 7.31627 4.21493 7.43042 4.07657C7.45809 4.04198 7.48576 4.00739 7.51689 3.96934C7.63796 3.82406 7.76594 3.6857 7.89738 3.5508C8.02882 3.4159 8.17064 3.29137 8.31592 3.17031C8.35051 3.14264 8.38511 3.11151 8.42315 3.08384C8.56151 2.96969 8.21907 3.23603 8.35743 3.13572C8.43698 3.07692 8.51654 3.02157 8.59956 2.96623C8.92124 2.74831 9.26369 2.56498 9.61998 2.41279L9.37093 2.51656C9.87249 2.30556 10.3982 2.16028 10.9413 2.08764C10.8479 2.10148 10.758 2.11185 10.6646 2.12569C11.2077 2.05651 11.7542 2.05651 12.2972 2.12569C12.2038 2.11185 12.1139 2.10148 12.0205 2.08764C12.5601 2.16374 13.0859 2.30556 13.5909 2.51656L13.3418 2.41279C13.6912 2.56153 14.0267 2.74485 14.3449 2.95585C14.4279 3.01119 14.5075 3.07 14.5871 3.12534C14.7669 3.25332 14.4003 2.97315 14.5386 3.08729C14.5732 3.11496 14.6078 3.14264 14.6459 3.17377C14.7911 3.29484 14.9295 3.42282 15.0644 3.55426C15.1993 3.68916 15.3238 3.82752 15.4449 3.9728C15.4726 4.00739 15.5037 4.04198 15.5314 4.08003C15.6455 4.21839 15.3792 3.87595 15.4795 4.01431C15.5383 4.09386 15.5936 4.17342 15.649 4.25643C15.8669 4.57812 16.0502 4.92057 16.2024 5.27686L16.0986 5.02781C16.3096 5.52936 16.4549 6.05512 16.5276 6.59819C16.5137 6.5048 16.5033 6.41487 16.4895 6.32147C16.5276 6.59127 16.5449 6.86453 16.5449 7.13778C16.5483 7.68085 17.0222 8.1997 17.5825 8.17547C18.1429 8.15126 18.6237 7.71888 18.6202 7.13778C18.6133 5.69535 18.1809 4.23218 17.3369 3.05958C16.4583 1.83852 15.2788 0.93227 13.8641 0.409947C11.135 -0.593143 7.8627 0.29234 6.0223 2.54415C5.05381 3.7306 4.47956 5.12806 4.35849 6.65689C4.24435 8.09584 4.61446 9.59013 5.36158 10.8216C6.08454 12.0114 7.17068 13.0215 8.44359 13.5991C9.86869 14.2425 11.408 14.4293 12.9437 14.1284C15.7421 13.5749 18.0769 11.1779 18.5093 8.35183C18.5716 7.95058 18.6165 7.5493 18.6165 7.14115C18.62 6.59808 18.1392 6.07923 17.5788 6.10346C17.0185 6.12421 16.548 6.55313 16.5446 7.13773L16.5449 7.13778Z" fill="black"/>
<path d="M28.7999 9.05753C28.7999 9.26507 28.7861 9.47261 28.7584 9.68016C28.7722 9.58676 28.7826 9.49683 28.7964 9.40344C28.7411 9.80469 28.6339 10.1921 28.4748 10.5657L28.5785 10.3166C28.4678 10.576 28.3364 10.8216 28.1773 11.0568C28.1358 11.1191 28.0908 11.1814 28.0458 11.2436C28.0216 11.2748 27.949 11.3716 28.0597 11.2298C28.1738 11.081 28.0839 11.1952 28.0562 11.2298C27.9663 11.3405 27.8694 11.4442 27.7691 11.548C27.6723 11.6449 27.5719 11.7348 27.4682 11.8213C27.4578 11.8317 27.3955 11.8974 27.3817 11.8939C27.3817 11.8939 27.5996 11.7313 27.4855 11.8144C27.4232 11.8593 27.3644 11.9043 27.3021 11.9458C27.0635 12.1084 26.8075 12.2433 26.5446 12.3574C26.6276 12.3228 26.7106 12.2882 26.7936 12.2536C26.4201 12.4093 26.0327 12.5165 25.6314 12.5753C25.7248 12.5615 25.8147 12.5511 25.9081 12.5373C25.4931 12.5926 25.078 12.5926 24.6629 12.5373C24.7563 12.5511 24.8462 12.5615 24.9396 12.5753C24.5383 12.52 24.1509 12.4128 23.7773 12.2536C23.8604 12.2882 23.9434 12.3228 24.0264 12.3574C23.767 12.2467 23.5214 12.1153 23.2862 11.9562C23.2239 11.9147 23.1616 11.8697 23.0994 11.8247C23.0683 11.8005 22.9714 11.7279 23.1132 11.8386C23.262 11.9527 23.1478 11.8628 23.1132 11.8351C23.0025 11.7452 22.8988 11.6483 22.795 11.548C22.6982 11.4512 22.6082 11.3508 22.5217 11.2471C22.5114 11.2367 22.4456 11.1744 22.4491 11.1606C22.4491 11.1606 22.6117 11.3785 22.5287 11.2644C22.4837 11.2021 22.4387 11.1433 22.3972 11.081C22.2346 10.8424 22.0997 10.5864 21.9856 10.3235L22.0894 10.5725C21.9337 10.199 21.8265 9.81157 21.7677 9.41031C21.7815 9.5037 21.7919 9.59363 21.8057 9.68703C21.7504 9.27195 21.7504 8.85686 21.8057 8.44175C21.7919 8.53515 21.7815 8.62508 21.7677 8.71847C21.823 8.31722 21.9303 7.9298 22.0894 7.55624L21.9856 7.80529C22.0963 7.54586 22.2277 7.30027 22.3868 7.06507C22.4284 7.00281 22.4733 6.94054 22.5183 6.87829C22.5425 6.84715 22.6151 6.7503 22.5045 6.89212C22.3903 7.04086 22.4802 6.92671 22.5079 6.89212C22.5978 6.78143 22.6947 6.67766 22.795 6.57389C22.8919 6.47705 22.9922 6.38711 23.0959 6.30063C23.1063 6.29026 23.1686 6.22454 23.1824 6.228C23.1824 6.228 22.9645 6.39057 23.0787 6.30755C23.1409 6.26259 23.1997 6.21762 23.262 6.17611C23.5006 6.01354 23.7566 5.87864 24.0195 5.76449C23.9365 5.79908 23.8535 5.83367 23.7705 5.86826C24.144 5.71261 24.5314 5.60538 24.9327 5.54657C24.8393 5.56041 24.7494 5.57079 24.656 5.58462C25.0711 5.52928 25.4862 5.52928 25.9013 5.58462C25.8079 5.57079 25.7179 5.56041 25.6245 5.54657C26.0258 5.60192 26.4132 5.70915 26.7868 5.86826C26.7038 5.83367 26.6207 5.79908 26.5377 5.76449C26.7972 5.87518 27.0427 6.00662 27.2779 6.16574C27.3402 6.20725 27.4025 6.25222 27.4647 6.29718C27.4959 6.32139 27.5927 6.39403 27.4509 6.28334C27.3022 6.1692 27.4163 6.25913 27.4509 6.2868C27.5616 6.37674 27.6654 6.47359 27.7691 6.5739C27.866 6.67075 27.9559 6.77107 28.0424 6.87484C28.0528 6.88521 28.1185 6.94747 28.115 6.96131C28.115 6.96131 27.9524 6.7434 28.0355 6.85754C28.0804 6.91981 28.1254 6.97861 28.1669 7.04087C28.3295 7.27954 28.4644 7.53551 28.5785 7.79842L28.4748 7.54937C28.6304 7.92294 28.7376 8.31034 28.7964 8.7116C28.7826 8.61821 28.7722 8.52828 28.7584 8.43488C28.7861 8.64242 28.7999 8.84996 28.7999 9.05751C28.8034 9.60057 29.2738 10.1194 29.8376 10.0952C30.398 10.071 30.8788 9.6386 30.8753 9.05751C30.8684 7.94025 30.5363 6.79187 29.8826 5.87866C29.1838 4.90669 28.2568 4.19063 27.1292 3.77906C25.0157 3.00424 22.4526 3.69604 21.0275 5.43591C20.2596 6.37328 19.8099 7.45942 19.7096 8.6701C19.6162 9.79083 19.9068 10.9669 20.4879 11.9319C21.0483 12.8624 21.8991 13.6615 22.8953 14.1076C24.0299 14.6196 25.2405 14.7683 26.4616 14.5227C28.6269 14.0869 30.4533 12.2155 30.7888 10.026C30.8372 9.70428 30.8753 9.38258 30.8788 9.05748C30.8822 8.51441 30.3979 7.99556 29.8411 8.01979C29.2738 8.044 28.8034 8.47638 28.7999 9.05748L28.7999 9.05753Z" fill="black"/>
<path d="M20.8825 23.3299V24.6443C20.8825 25.094 20.9206 25.5644 20.8687 26.0141C20.8825 25.9207 20.8929 25.8308 20.9067 25.7374C20.8894 25.8619 20.8583 25.9795 20.8099 26.0936L20.9136 25.8446C20.8756 25.9276 20.8306 26.0072 20.7857 26.0833C20.7061 26.2216 20.9379 25.9172 20.8548 26.0002C20.8237 26.0314 20.796 26.0694 20.7649 26.1005C20.7372 26.1282 20.7096 26.1524 20.6819 26.1766C20.5574 26.2943 20.8998 26.0383 20.7476 26.1213C20.6681 26.1663 20.592 26.2112 20.5089 26.2493C20.592 26.2147 20.675 26.1801 20.758 26.1455C20.6404 26.1905 20.5262 26.2216 20.4017 26.2424C20.4951 26.2285 20.585 26.2182 20.6784 26.2043C20.4709 26.2285 20.2564 26.2182 20.0454 26.2182H18.7518H14.428H9.17379H4.64594C3.92994 26.2182 3.21736 26.2251 2.50136 26.2182C2.43218 26.2182 2.35954 26.2147 2.29036 26.2043C2.38376 26.2182 2.47369 26.2285 2.56709 26.2424C2.44256 26.2251 2.32496 26.1939 2.21081 26.1455C2.29382 26.1801 2.37684 26.2147 2.45986 26.2493C2.37684 26.2112 2.29728 26.1663 2.22119 26.1213C2.08283 26.0417 2.38722 26.2735 2.3042 26.1905C2.27307 26.1594 2.23502 26.1317 2.20389 26.1005C2.17622 26.0729 2.15201 26.0452 2.1278 26.0175C2.01019 25.893 2.26616 26.2355 2.18314 26.0833C2.13818 26.0037 2.09321 25.9276 2.05516 25.8446L2.15893 26.0936C2.11396 25.976 2.08283 25.8584 2.06208 25.7374C2.07592 25.8308 2.08629 25.9207 2.10013 26.0141C2.04824 25.6198 2.08283 25.2081 2.08283 24.8138V23.3921C2.08283 23.0635 2.10013 22.7383 2.14164 22.4132C2.1278 22.5066 2.11743 22.5965 2.10359 22.6899C2.18661 22.0707 2.34918 21.4688 2.59131 20.8946C2.55672 20.9777 2.52212 21.0607 2.48754 21.1437C2.66049 20.739 2.87149 20.3481 3.11708 19.9815C3.17588 19.895 3.23815 19.8085 3.3004 19.722C3.4526 19.518 3.16896 19.8846 3.27619 19.7532C3.31424 19.7047 3.35229 19.6598 3.39034 19.6113C3.52524 19.4488 3.66706 19.2931 3.81925 19.1444C3.96799 18.9956 4.12365 18.8538 4.28622 18.7155C4.33119 18.6774 4.37962 18.6394 4.42804 18.6013C4.56986 18.4872 4.2032 18.7673 4.37961 18.6394C4.47301 18.5736 4.56294 18.5045 4.65634 18.4422C5.02299 18.1966 5.41041 17.9856 5.81856 17.8127L5.56952 17.9164C6.14371 17.6743 6.7456 17.5117 7.36476 17.4287C7.27136 17.4425 7.18143 17.4529 7.08803 17.4668C7.54463 17.408 7.99777 17.408 8.45437 17.408H10.1804H14.2897C14.8293 17.408 15.3689 17.401 15.9086 17.4702C15.8152 17.4564 15.7253 17.446 15.6319 17.4322C16.2406 17.5186 16.8322 17.6812 17.3994 17.9164L17.1503 17.8127C17.5827 17.996 17.9944 18.2208 18.3783 18.4872C18.4717 18.5494 18.5582 18.6186 18.6481 18.6843C18.3575 18.4733 18.6481 18.6878 18.7207 18.7466C18.8833 18.885 19.0424 19.0302 19.1912 19.1859C19.3399 19.3381 19.4852 19.5007 19.6201 19.6667C19.6512 19.7047 19.6858 19.7462 19.7169 19.7878C19.6823 19.7463 19.6512 19.7013 19.6166 19.6598C19.6374 19.6875 19.6581 19.7151 19.6789 19.7428C19.7411 19.8258 19.7999 19.9123 19.8553 19.9953C20.094 20.355 20.3015 20.739 20.471 21.1368L20.3672 20.8877C20.6059 21.4585 20.7719 22.0569 20.8549 22.6726C20.8411 22.5792 20.8307 22.4893 20.8169 22.3959C20.8619 22.7072 20.8826 23.0185 20.8826 23.3298C20.8861 23.8729 21.36 24.3918 21.9203 24.3675C22.4807 24.3433 22.9615 23.9109 22.958 23.3298C22.9545 22.434 22.8127 21.5242 22.5049 20.6802C22.1832 19.7982 21.7369 19.0164 21.1559 18.2797C20.049 16.8788 18.3886 15.8687 16.6418 15.509C15.7978 15.336 14.9643 15.3291 14.1099 15.3291H11.2908H8.61004C7.75565 15.3291 6.90822 15.3602 6.0711 15.5643C3.06866 16.3011 0.616245 18.885 0.131999 21.9533C-0.0271142 22.9529 0.00747147 23.956 0.00747147 24.9661C0.00747147 25.2981 -0.0132826 25.6371 0.0143895 25.9692C0.104325 27.0276 0.841075 28.0169 1.92032 28.2314C2.30427 28.3075 2.67439 28.2971 3.05832 28.2971H4.78437H10.2911H16.3409H20.1631H20.464C21.1385 28.2936 21.8234 28.0273 22.28 27.5258C22.6813 27.0865 22.8992 26.5607 22.9511 25.9692C22.9614 25.8516 22.958 25.734 22.958 25.613V24.2225V23.33C22.958 22.787 22.4806 22.2681 21.9203 22.2924C21.3599 22.3166 20.8826 22.7455 20.8826 23.33L20.8825 23.3299Z" fill="black"/>
<path d="M32.0379 21.51V22.7137C32.0379 23.1184 32.0656 23.537 32.031 23.9417C32.0448 23.8483 32.0552 23.7584 32.0691 23.665C32.0587 23.7411 32.0414 23.8137 32.0137 23.8863C32.0483 23.8033 32.0829 23.7203 32.1175 23.6373C32.1002 23.6788 32.076 23.7169 32.0587 23.7584C31.9826 23.914 32.2455 23.5543 32.0967 23.7065C31.9549 23.8483 32.2593 23.62 32.1694 23.6546C32.1209 23.6719 32.0794 23.7065 32.031 23.7272L32.2801 23.6235C32.2074 23.6511 32.1348 23.6684 32.0587 23.6788C32.1521 23.665 32.242 23.6546 32.3354 23.6408C31.9757 23.6719 31.6055 23.6477 31.2458 23.6477H28.7795H23.2105H21.9203L22.958 24.6854C22.958 23.997 22.9926 23.2983 22.9234 22.6134C22.7816 21.2091 22.3146 19.8393 21.4741 18.6943C20.9621 17.9956 20.3845 17.4179 19.6996 16.8922C19.7688 17.4353 19.8379 17.9783 19.9106 18.5214C19.9659 18.473 20.0213 18.428 20.0766 18.383C20.2323 18.2516 19.8725 18.5283 20.0386 18.4142C20.1423 18.3415 20.2461 18.2689 20.3533 18.1997C20.5713 18.0648 20.7996 17.9472 21.0347 17.8469L20.7857 17.9507C21.1835 17.7846 21.5986 17.6705 22.024 17.6082C21.9306 17.6221 21.8407 17.6324 21.7473 17.6463C22.1174 17.5979 22.484 17.5979 22.8577 17.5979H24.3001H27.6069C28.0047 17.5979 28.399 17.5909 28.7968 17.6428C28.7034 17.629 28.6134 17.6186 28.52 17.6048C28.9524 17.667 29.3709 17.7812 29.7757 17.9472C29.6927 17.9126 29.6097 17.878 29.5266 17.8434C29.8137 17.968 30.0905 18.1132 30.3499 18.2862C30.4122 18.3277 30.4744 18.3727 30.5367 18.4176C30.6854 18.5249 30.471 18.3519 30.4537 18.3519C30.471 18.3519 30.5263 18.4107 30.5401 18.4246C30.6612 18.5249 30.7788 18.6321 30.893 18.7428C31.0002 18.85 31.1005 18.9607 31.1974 19.0783C31.2216 19.106 31.2458 19.1371 31.27 19.1648C31.3461 19.2582 31.1109 18.9503 31.2043 19.0818C31.2492 19.144 31.2942 19.2028 31.3357 19.2651C31.5156 19.5314 31.6678 19.8116 31.7923 20.1056C31.7577 20.0226 31.7231 19.9396 31.6885 19.8566C31.858 20.2578 31.9722 20.6798 32.031 21.1122C32.0171 21.0188 32.0068 20.9289 31.9929 20.8355C32.0241 21.0603 32.0379 21.2852 32.0379 21.51C32.0414 22.0531 32.5118 22.5719 33.0756 22.5477C33.636 22.5235 34.1168 22.0911 34.1133 21.51C34.1064 19.8082 33.3662 18.1064 32.0586 16.9995C30.9275 16.0379 29.5336 15.5225 28.0462 15.5225H22.8403C22.3803 15.5225 21.9306 15.5398 21.474 15.6089C20.3394 15.775 19.3017 16.3111 18.4404 17.0583C18.1948 17.2727 18.1153 17.6221 18.1533 17.9299C18.2017 18.2758 18.3782 18.4799 18.648 18.6875C18.6307 18.6736 18.4543 18.5318 18.5615 18.6217C18.5892 18.6425 18.6134 18.6633 18.641 18.6875C18.6998 18.7359 18.7586 18.7878 18.8175 18.8362C18.9281 18.9331 19.0319 19.0334 19.1357 19.1337C19.2394 19.2375 19.3398 19.3412 19.4366 19.4519C19.5265 19.5557 19.613 19.701 19.7168 19.7874C19.6995 19.7736 19.5681 19.5868 19.6476 19.701C19.6684 19.7286 19.6891 19.7563 19.7099 19.784C19.7514 19.8393 19.7894 19.8947 19.8275 19.9535C19.9105 20.0745 19.9866 20.1991 20.0627 20.3236C20.2184 20.5865 20.3533 20.8563 20.4709 21.1365L20.3671 20.8874C20.6058 21.4582 20.7718 22.0566 20.8548 22.6723C20.841 22.5789 20.8306 22.489 20.8168 22.3956C20.9136 23.1496 20.879 23.921 20.879 24.682C20.879 25.2423 21.3529 25.7196 21.9167 25.7196H23.5805H27.2298H30.7856H31.896C32.2592 25.7196 32.6016 25.7162 32.9475 25.5675C33.6532 25.27 34.089 24.6059 34.1063 23.8414C34.1098 23.6719 34.1063 23.499 34.1063 23.326V21.6242V21.5031C34.1063 20.9601 33.629 20.4412 33.0686 20.4654C32.5152 20.4966 32.0378 20.9289 32.0378 21.5101L32.0379 21.51Z" fill="black"/>
</svg>
