<svg width="35" height="29" viewBox="0 0 35 29" fill="none" xmlns="http://www.w3.org/2000/svg">
<path d="M16.5446 7.13778C16.5446 7.41104 16.5273 7.6843 16.4893 7.95409C16.5031 7.8607 16.5135 7.77077 16.5273 7.67737C16.4512 8.21698 16.3094 8.74276 16.0984 9.24776L16.2022 8.99871C16.0534 9.34807 15.8701 9.68359 15.6591 10.0018C15.6038 10.0848 15.545 10.1644 15.4896 10.2439C15.3616 10.4238 15.6418 10.0571 15.5277 10.1955C15.5 10.2301 15.4723 10.2647 15.4412 10.3027C15.3201 10.448 15.1921 10.5864 15.0607 10.7213C14.9258 10.8562 14.7874 10.9807 14.6422 11.1018C14.6076 11.1294 14.573 11.1606 14.5349 11.1882C14.3966 11.3024 14.739 11.036 14.6006 11.1364C14.5211 11.1952 14.4415 11.2505 14.3585 11.3058C14.0368 11.5238 13.6944 11.7071 13.3381 11.8593C13.4211 11.8247 13.5041 11.7901 13.5871 11.7555C13.0856 11.9665 12.5598 12.1118 12.0168 12.1844C12.1102 12.1706 12.2001 12.1602 12.2935 12.1464C11.7504 12.2156 11.2039 12.2156 10.6609 12.1464C10.7543 12.1602 10.8442 12.1706 10.9376 12.1844C10.398 12.1083 9.87219 11.9665 9.3672 11.7555C9.45021 11.7901 9.53323 11.8247 9.61624 11.8593C9.26689 11.7105 8.93137 11.5272 8.61315 11.3162C8.53014 11.2609 8.45058 11.2021 8.37103 11.1467C8.19115 11.0188 8.55781 11.2989 8.41945 11.1848C8.38486 11.1571 8.35027 11.1294 8.31222 11.0983C8.16694 10.9772 8.02858 10.8493 7.89368 10.7178C7.75878 10.5829 7.63425 10.4446 7.51319 10.2993C7.48552 10.2647 7.45439 10.2301 7.42671 10.192C7.31257 10.0537 7.57891 10.3961 7.4786 10.2578C7.4198 10.1782 7.36445 10.0987 7.30911 10.0156C7.09119 9.69395 6.90786 9.35151 6.75566 8.99522C6.79025 9.07823 6.82485 9.16125 6.85943 9.24427C6.64844 8.74271 6.50316 8.21695 6.43052 7.67388C6.44435 7.76728 6.45473 7.85721 6.46857 7.9506C6.39938 7.40754 6.39938 6.86099 6.46857 6.31798C6.45473 6.41138 6.44435 6.50131 6.43052 6.5947C6.50662 6.0551 6.64844 5.52931 6.85943 5.02432C6.82484 5.10733 6.79025 5.19035 6.75566 5.27337C6.9044 4.92401 7.08773 4.58849 7.29873 4.27028C7.35407 4.18726 7.41288 4.1077 7.46822 4.02815C7.5962 3.84827 7.31603 4.21493 7.43017 4.07657C7.45784 4.04198 7.48551 4.00739 7.51665 3.96934C7.63771 3.82406 7.7657 3.6857 7.89714 3.5508C8.02858 3.4159 8.1704 3.29137 8.31568 3.17031C8.35027 3.14264 8.38486 3.11151 8.42291 3.08384C8.56127 2.96969 8.21882 3.23603 8.35718 3.13572C8.43674 3.07692 8.5163 3.02157 8.59931 2.96623C8.921 2.74831 9.26344 2.56498 9.61973 2.41279L9.37069 2.51656C9.87224 2.30556 10.398 2.16028 10.9411 2.08764C10.8477 2.10148 10.7577 2.11185 10.6643 2.12569C11.2074 2.05651 11.754 2.05651 12.297 2.12569C12.2036 2.11185 12.1136 2.10148 12.0203 2.08764C12.5599 2.16374 13.0856 2.30556 13.5906 2.51656L13.3416 2.41279C13.6909 2.56153 14.0265 2.74485 14.3447 2.95585C14.4277 3.01119 14.5072 3.07 14.5868 3.12534C14.7667 3.25332 14.4 2.97315 14.5384 3.08729C14.573 3.11496 14.6076 3.14264 14.6456 3.17377C14.7909 3.29484 14.9292 3.42282 15.0642 3.55426C15.1991 3.68916 15.3236 3.82752 15.4446 3.9728C15.4723 4.00739 15.5034 4.04198 15.5311 4.08003C15.6453 4.21839 15.3789 3.87595 15.4792 4.01431C15.538 4.09386 15.5934 4.17342 15.6487 4.25643C15.8666 4.57812 16.05 4.92057 16.2022 5.27686L16.0984 5.02781C16.3094 5.52936 16.4547 6.05512 16.5273 6.59819C16.5135 6.5048 16.5031 6.41487 16.4893 6.32147C16.5273 6.59127 16.5446 6.86453 16.5446 7.13778C16.5481 7.68085 17.022 8.1997 17.5823 8.17547C18.1427 8.15126 18.6235 7.71888 18.62 7.13778C18.6131 5.69535 18.1807 4.23218 17.3367 3.05958C16.4581 1.83852 15.2786 0.93227 13.8639 0.409947C11.1347 -0.593143 7.86246 0.29234 6.02206 2.54415C5.05356 3.7306 4.47931 5.12806 4.35825 6.65689C4.2441 8.09584 4.61422 9.59013 5.36134 10.8216C6.08429 12.0114 7.17043 13.0215 8.44335 13.5991C9.86845 14.2425 11.4077 14.4293 12.9435 14.1284C15.7418 13.5749 18.0767 11.1779 18.509 8.35183C18.5713 7.95058 18.6163 7.5493 18.6163 7.14115C18.6197 6.59808 18.1389 6.07923 17.5786 6.10346C17.0182 6.12421 16.5478 6.55313 16.5443 7.13773L16.5446 7.13778Z" fill="white"/>
<path d="M28.7999 9.05753C28.7999 9.26507 28.7861 9.47261 28.7584 9.68016C28.7722 9.58676 28.7826 9.49683 28.7964 9.40344C28.7411 9.80469 28.6339 10.1921 28.4748 10.5657L28.5785 10.3166C28.4678 10.576 28.3364 10.8216 28.1773 11.0568C28.1358 11.1191 28.0908 11.1814 28.0458 11.2436C28.0216 11.2748 27.949 11.3716 28.0597 11.2298C28.1738 11.081 28.0839 11.1952 28.0562 11.2298C27.9663 11.3405 27.8694 11.4442 27.7691 11.548C27.6723 11.6449 27.5719 11.7348 27.4682 11.8213C27.4578 11.8317 27.3955 11.8974 27.3817 11.8939C27.3817 11.8939 27.5996 11.7313 27.4855 11.8144C27.4232 11.8593 27.3644 11.9043 27.3021 11.9458C27.0635 12.1084 26.8075 12.2433 26.5446 12.3574C26.6276 12.3228 26.7106 12.2882 26.7936 12.2536C26.4201 12.4093 26.0327 12.5165 25.6314 12.5753C25.7248 12.5615 25.8147 12.5511 25.9081 12.5373C25.4931 12.5926 25.078 12.5926 24.6629 12.5373C24.7563 12.5511 24.8462 12.5615 24.9396 12.5753C24.5383 12.52 24.1509 12.4128 23.7773 12.2536C23.8604 12.2882 23.9434 12.3228 24.0264 12.3574C23.767 12.2467 23.5214 12.1153 23.2862 11.9562C23.2239 11.9147 23.1616 11.8697 23.0994 11.8247C23.0683 11.8005 22.9714 11.7279 23.1132 11.8386C23.262 11.9527 23.1478 11.8628 23.1132 11.8351C23.0025 11.7452 22.8988 11.6483 22.795 11.548C22.6982 11.4512 22.6082 11.3508 22.5217 11.2471C22.5114 11.2367 22.4456 11.1744 22.4491 11.1606C22.4491 11.1606 22.6117 11.3785 22.5287 11.2644C22.4837 11.2021 22.4387 11.1433 22.3972 11.081C22.2346 10.8424 22.0997 10.5864 21.9856 10.3235L22.0894 10.5725C21.9337 10.199 21.8265 9.81157 21.7677 9.41031C21.7815 9.5037 21.7919 9.59363 21.8057 9.68703C21.7504 9.27195 21.7504 8.85686 21.8057 8.44175C21.7919 8.53515 21.7815 8.62508 21.7677 8.71847C21.823 8.31722 21.9303 7.9298 22.0894 7.55624L21.9856 7.80529C22.0963 7.54586 22.2277 7.30027 22.3868 7.06507C22.4284 7.00281 22.4733 6.94054 22.5183 6.87829C22.5425 6.84715 22.6151 6.7503 22.5045 6.89212C22.3903 7.04086 22.4802 6.92671 22.5079 6.89212C22.5978 6.78143 22.6947 6.67766 22.795 6.57389C22.8919 6.47705 22.9922 6.38711 23.0959 6.30063C23.1063 6.29026 23.1686 6.22454 23.1824 6.228C23.1824 6.228 22.9645 6.39057 23.0787 6.30755C23.1409 6.26259 23.1997 6.21762 23.262 6.17611C23.5006 6.01354 23.7566 5.87864 24.0195 5.76449C23.9365 5.79908 23.8535 5.83367 23.7705 5.86826C24.144 5.71261 24.5314 5.60538 24.9327 5.54657C24.8393 5.56041 24.7494 5.57079 24.656 5.58462C25.0711 5.52928 25.4862 5.52928 25.9013 5.58462C25.8079 5.57079 25.7179 5.56041 25.6245 5.54657C26.0258 5.60192 26.4132 5.70915 26.7868 5.86826C26.7038 5.83367 26.6207 5.79908 26.5377 5.76449C26.7972 5.87518 27.0427 6.00662 27.2779 6.16574C27.3402 6.20725 27.4025 6.25222 27.4647 6.29718C27.4959 6.32139 27.5927 6.39403 27.4509 6.28334C27.3022 6.1692 27.4163 6.25913 27.4509 6.2868C27.5616 6.37674 27.6654 6.47359 27.7691 6.5739C27.866 6.67075 27.9559 6.77107 28.0424 6.87484C28.0528 6.88521 28.1185 6.94747 28.115 6.96131C28.115 6.96131 27.9524 6.7434 28.0355 6.85754C28.0804 6.91981 28.1254 6.97861 28.1669 7.04087C28.3295 7.27954 28.4644 7.53551 28.5785 7.79842L28.4748 7.54937C28.6304 7.92294 28.7376 8.31034 28.7964 8.7116C28.7826 8.61821 28.7722 8.52828 28.7584 8.43488C28.7861 8.64242 28.7999 8.84996 28.7999 9.05751C28.8034 9.60057 29.2738 10.1194 29.8376 10.0952C30.398 10.071 30.8788 9.6386 30.8753 9.05751C30.8684 7.94025 30.5363 6.79187 29.8826 5.87866C29.1838 4.90669 28.2568 4.19063 27.1292 3.77906C25.0157 3.00424 22.4526 3.69604 21.0275 5.43591C20.2596 6.37328 19.8099 7.45942 19.7096 8.6701C19.6162 9.79083 19.9068 10.9669 20.4879 11.9319C21.0483 12.8624 21.8991 13.6615 22.8953 14.1076C24.0299 14.6196 25.2405 14.7683 26.4616 14.5227C28.6269 14.0869 30.4533 12.2155 30.7888 10.026C30.8372 9.70428 30.8753 9.38258 30.8788 9.05748C30.8822 8.51441 30.3979 7.99556 29.8411 8.01979C29.2738 8.044 28.8034 8.47638 28.7999 9.05748L28.7999 9.05753Z" fill="white"/>
<path d="M20.8825 23.3297V24.6441C20.8825 25.0938 20.9206 25.5642 20.8687 26.0138C20.8825 25.9204 20.8929 25.8305 20.9067 25.7371C20.8894 25.8616 20.8583 25.9792 20.8099 26.0934L20.9136 25.8443C20.8756 25.9274 20.8306 26.0069 20.7857 26.083C20.7061 26.2214 20.9379 25.917 20.8548 26C20.8237 26.0311 20.796 26.0692 20.7649 26.1003C20.7372 26.128 20.7096 26.1522 20.6819 26.1764C20.5574 26.294 20.8998 26.038 20.7476 26.1211C20.6681 26.166 20.592 26.211 20.5089 26.249C20.592 26.2144 20.675 26.1799 20.758 26.1453C20.6404 26.1902 20.5262 26.2214 20.4017 26.2421C20.4951 26.2283 20.585 26.2179 20.6784 26.2041C20.4709 26.2283 20.2564 26.2179 20.0454 26.2179H18.7518H14.428H9.17379H4.64594C3.92994 26.2179 3.21736 26.2248 2.50136 26.2179C2.43218 26.2179 2.35954 26.2144 2.29036 26.2041C2.38376 26.2179 2.47369 26.2283 2.56709 26.2421C2.44256 26.2248 2.32496 26.1937 2.21081 26.1453C2.29382 26.1799 2.37684 26.2145 2.45986 26.249C2.37684 26.211 2.29728 26.166 2.22119 26.1211C2.08283 26.0415 2.38722 26.2733 2.3042 26.1902C2.27307 26.1591 2.23502 26.1314 2.20389 26.1003C2.17622 26.0726 2.15201 26.045 2.1278 26.0173C2.01019 25.8928 2.26616 26.2352 2.18314 26.083C2.13818 26.0035 2.09321 25.9274 2.05516 25.8443L2.15893 26.0934C2.11396 25.9758 2.08283 25.8582 2.06208 25.7371C2.07592 25.8305 2.08629 25.9204 2.10013 26.0138C2.04824 25.6195 2.08283 25.2079 2.08283 24.8135V23.3918C2.08283 23.0632 2.10013 22.7381 2.14164 22.4129C2.1278 22.5063 2.11743 22.5962 2.10359 22.6896C2.18661 22.0705 2.34918 21.4686 2.59131 20.8944C2.55672 20.9774 2.52212 21.0604 2.48754 21.1434C2.66049 20.7387 2.87149 20.3479 3.11708 19.9812C3.17588 19.8947 3.23815 19.8083 3.3004 19.7218C3.4526 19.5177 3.16896 19.8844 3.27619 19.7529C3.31424 19.7045 3.35229 19.6595 3.39034 19.6111C3.52524 19.4485 3.66706 19.2929 3.81925 19.1441C3.96799 18.9954 4.12365 18.8536 4.28622 18.7152C4.33119 18.6772 4.37962 18.6391 4.42804 18.6011C4.56986 18.4869 4.2032 18.7671 4.37961 18.6391C4.47301 18.5734 4.56294 18.5042 4.65634 18.442C5.02299 18.1964 5.41041 17.9854 5.81856 17.8124L5.56952 17.9162C6.14371 17.6741 6.7456 17.5115 7.36476 17.4285C7.27136 17.4423 7.18143 17.4527 7.08803 17.4665C7.54463 17.4077 7.99777 17.4077 8.45437 17.4077H10.1804H14.2897C14.8293 17.4077 15.3689 17.4008 15.9086 17.47C15.8152 17.4561 15.7253 17.4458 15.6319 17.4319C16.2406 17.5184 16.8322 17.681 17.3994 17.9162L17.1503 17.8124C17.5827 17.9957 17.9944 18.2206 18.3783 18.4869C18.4717 18.5492 18.5582 18.6184 18.6481 18.6841C18.3575 18.4731 18.6481 18.6875 18.7207 18.7463C18.8833 18.8847 19.0424 19.03 19.1912 19.1856C19.3399 19.3378 19.4852 19.5004 19.6201 19.6664C19.6512 19.7045 19.6858 19.746 19.7169 19.7875C19.6823 19.746 19.6512 19.701 19.6166 19.6595C19.6374 19.6872 19.6581 19.7149 19.6789 19.7426C19.7411 19.8256 19.7999 19.912 19.8553 19.9951C20.094 20.3548 20.3015 20.7388 20.471 21.1365L20.3672 20.8875C20.6059 21.4582 20.7719 22.0566 20.8549 22.6724C20.8411 22.579 20.8307 22.489 20.8169 22.3956C20.8619 22.707 20.8826 23.0183 20.8826 23.3296C20.8861 23.8727 21.36 24.3915 21.9203 24.3673C22.4807 24.3431 22.9615 23.9107 22.958 23.3296C22.9545 22.4337 22.8127 21.524 22.5049 20.68C22.1832 19.7979 21.7369 19.0162 21.1559 18.2794C20.049 16.8785 18.3886 15.8685 16.6418 15.5087C15.7978 15.3358 14.9643 15.3289 14.1099 15.3289H11.2908H8.61004C7.75565 15.3289 6.90822 15.36 6.0711 15.5641C3.06866 16.3008 0.616245 18.8847 0.131999 21.953C-0.0271142 22.9527 0.00747147 23.9558 0.00747147 24.9658C0.00747147 25.2979 -0.0132826 25.6369 0.0143895 25.9689C0.104325 27.0274 0.841075 28.0167 1.92032 28.2311C2.30427 28.3072 2.67439 28.2969 3.05832 28.2969H4.78437H10.2911H16.3409H20.1631H20.464C21.1385 28.2934 21.8234 28.0271 22.28 27.5255C22.6813 27.0862 22.8992 26.5604 22.9511 25.969C22.9614 25.8514 22.958 25.7338 22.958 25.6127V24.2222V23.3298C22.958 22.7867 22.4806 22.2679 21.9203 22.2921C21.3599 22.3163 20.8826 22.7453 20.8826 23.3298L20.8825 23.3297Z" fill="white"/>
<path d="M32.0382 21.5103V22.714C32.0382 23.1187 32.0658 23.5373 32.0313 23.9419C32.0451 23.8485 32.0555 23.7586 32.0693 23.6652C32.0589 23.7413 32.0416 23.814 32.014 23.8866C32.0485 23.8036 32.0831 23.7206 32.1177 23.6375C32.1004 23.679 32.0762 23.7171 32.0589 23.7586C31.9828 23.9143 32.2457 23.5545 32.097 23.7067C31.9552 23.8485 32.2595 23.6202 32.1696 23.6548C32.1212 23.6721 32.0797 23.7067 32.0312 23.7275L32.2803 23.6237C32.2077 23.6514 32.135 23.6687 32.0589 23.6791C32.1523 23.6652 32.2422 23.6548 32.3356 23.641C31.9759 23.6721 31.6058 23.6479 31.246 23.6479H28.7798H23.2107H21.9206L22.9582 24.6856C22.9582 23.9973 22.9928 23.2985 22.9237 22.6136C22.7818 21.2093 22.3149 19.8395 21.4743 18.6946C20.9624 17.9959 20.3847 17.4182 19.6998 16.8924C19.769 17.4355 19.8382 17.9786 19.9108 18.5217C19.9662 18.4732 20.0215 18.4283 20.0769 18.3833C20.2325 18.2519 19.8728 18.5286 20.0388 18.4144C20.1426 18.3418 20.2464 18.2691 20.3536 18.2C20.5715 18.0651 20.7998 17.9475 21.035 17.8471L20.7859 17.9509C21.1837 17.7849 21.5988 17.6707 22.0243 17.6085C21.9309 17.6223 21.8409 17.6327 21.7475 17.6465C22.1177 17.5981 22.4843 17.5981 22.8579 17.5981H24.3003H27.6071C28.0049 17.5981 28.3992 17.5912 28.797 17.6431C28.7036 17.6292 28.6137 17.6189 28.5203 17.605C28.9526 17.6673 29.3712 17.7814 29.7759 17.9475C29.6929 17.9129 29.6099 17.8783 29.5269 17.8437C29.814 17.9682 30.0907 18.1135 30.3501 18.2864C30.4124 18.328 30.4747 18.3729 30.5369 18.4179C30.6857 18.5251 30.4712 18.3522 30.4539 18.3522C30.4712 18.3522 30.5266 18.411 30.5404 18.4248C30.6615 18.5251 30.7791 18.6323 30.8932 18.743C31.0004 18.8503 31.1007 18.9609 31.1976 19.0785C31.2218 19.1062 31.246 19.1374 31.2702 19.165C31.3463 19.2584 31.1111 18.9506 31.2045 19.082C31.2495 19.1443 31.2945 19.2031 31.336 19.2653C31.5158 19.5317 31.668 19.8119 31.7925 20.1059C31.758 20.0229 31.7234 19.9398 31.6888 19.8568C31.8583 20.2581 31.9724 20.6801 32.0312 21.1125C32.0174 21.0191 32.007 20.9291 31.9932 20.8358C32.0243 21.0606 32.0381 21.2854 32.0381 21.5103C32.0416 22.0533 32.512 22.5722 33.0758 22.5479C33.6362 22.5237 34.117 22.0914 34.1135 21.5103C34.1066 19.8084 33.3664 18.1066 32.0589 16.9997C30.9278 16.0381 29.5338 15.5227 28.0464 15.5227H22.8406C22.3805 15.5227 21.9308 15.54 21.4742 15.6092C20.3396 15.7752 19.3019 16.3114 18.4407 17.0585C18.1951 17.273 18.1155 17.6223 18.1536 17.9302C18.202 18.2761 18.3784 18.4801 18.6482 18.6877C18.6309 18.6739 18.4545 18.5321 18.5617 18.622C18.5894 18.6427 18.6136 18.6635 18.6413 18.6877C18.7001 18.7361 18.7589 18.788 18.8177 18.8365C18.9284 18.9333 19.0322 19.0336 19.1359 19.1339C19.2397 19.2377 19.34 19.3415 19.4369 19.4522C19.5268 19.5559 19.6133 19.7012 19.717 19.7877C19.6997 19.7738 19.5683 19.5871 19.6479 19.7012C19.6686 19.7289 19.6894 19.7565 19.7101 19.7842C19.7516 19.8396 19.7897 19.8949 19.8277 19.9537C19.9107 20.0748 19.9868 20.1993 20.0629 20.3238C20.2186 20.5867 20.3535 20.8565 20.4711 21.1367L20.3673 20.8877C20.606 21.4584 20.772 22.0568 20.8551 22.6725C20.8412 22.5791 20.8308 22.4892 20.817 22.3958C20.9139 23.1499 20.8793 23.9212 20.8793 24.6822C20.8793 25.2426 21.3532 25.7199 21.917 25.7199H23.5808H27.23H30.7859H31.8962C32.2594 25.7199 32.6019 25.7164 32.9478 25.5677C33.6534 25.2702 34.0893 24.6061 34.1065 23.8417C34.11 23.6722 34.1065 23.4992 34.1065 23.3263V21.6244V21.5034C34.1065 20.9603 33.6292 20.4415 33.0689 20.4657C32.5154 20.4968 32.0381 20.9292 32.0381 21.5103L32.0382 21.5103Z" fill="white"/>
</svg>
