<svg width="76" height="76" viewBox="0 0 76 76" fill="none" xmlns="http://www.w3.org/2000/svg">
<path d="M53.0472 0C53.3202 0.0950861 53.5932 0.187455 53.8649 0.286617C55.7191 0.965803 56.9742 2.71403 56.9756 4.71491C56.9851 14.1637 56.981 23.6126 56.9783 33.0614C56.9783 34.0897 56.3181 34.8151 55.4067 34.8219C54.468 34.83 53.8296 34.1101 53.8296 33.0098C53.8269 23.9006 53.8282 14.79 53.8269 5.68071C53.8269 5.45522 53.8296 5.22837 53.8255 5.00289C53.8065 3.78171 53.1993 3.16501 51.9863 3.15686C50.5627 3.14735 49.1378 3.15414 47.7142 3.15414C37.4069 3.15414 27.0995 3.15414 16.7908 3.15414C16.5029 3.15414 16.2149 3.15414 15.8454 3.15414C15.8454 3.472 15.8454 3.71379 15.8454 3.95558C15.8454 6.239 15.8508 8.52107 15.8441 10.8045C15.8359 13.7997 13.8092 15.8264 10.8181 15.8345C8.53465 15.8413 6.25259 15.8359 3.96916 15.8359C3.72602 15.8359 3.48423 15.8359 3.16229 15.8359C3.16229 16.1565 3.16229 16.3983 3.16229 16.6414C3.16229 34.6792 3.16229 52.7184 3.16229 70.7563C3.16229 72.2396 3.72602 72.806 5.20664 72.806C16.9606 72.8074 28.7146 72.806 40.47 72.8074C40.7186 72.8074 40.9685 72.7992 41.2157 72.8142C42.0797 72.8658 42.7099 73.5002 42.733 74.3328C42.7575 75.1832 42.1136 75.8868 41.2402 75.9561C41.0609 75.971 40.8789 75.9615 40.6982 75.9615C28.8315 75.9615 16.9634 75.9629 5.09661 75.9615C1.99545 75.9615 0.00950861 73.977 0.00950861 70.8799C0.010867 52.0949 0.0135837 33.31 0 14.5264C0 13.8079 0.256732 13.3093 0.756613 12.8122C4.80049 8.79954 8.81991 4.76381 12.8502 0.738955C13.1164 0.472714 13.4221 0.245865 13.7101 0C26.8238 0 39.9348 0 53.0472 0ZM5.5897 12.6478C7.40721 12.6478 9.18396 12.6587 10.9593 12.6437C12.0759 12.6356 12.6478 12.0433 12.656 10.9037C12.6668 9.27768 12.66 7.65171 12.6573 6.02438C12.6573 5.88175 12.6261 5.73776 12.6125 5.61959C10.2802 7.95463 7.97229 10.2639 5.5897 12.6478Z" fill="#222222"/>
<path d="M37.9024 56.9957C35.3242 56.9957 32.7542 56.9957 30.123 56.9957C30.1108 57.2565 30.0918 57.4969 30.0918 57.736C30.0891 59.4992 30.085 61.2623 30.0931 63.0241C30.0972 63.8147 29.8527 64.4681 29.0744 64.7683C28.3381 65.0522 27.7282 64.7927 27.1808 64.2426C22.0258 59.074 16.8599 53.9149 11.7008 48.7504C10.8151 47.8633 10.8287 46.9532 11.7524 46.1219C16.9237 41.4613 22.1005 36.8103 27.2704 32.1483C27.8219 31.6498 28.4155 31.4216 29.1246 31.7327C29.8636 32.0573 30.0972 32.6794 30.0931 33.4415C30.085 34.9276 30.0904 36.415 30.0904 37.9785C30.4151 37.9785 30.68 37.9785 30.9435 37.9785C39.5542 37.9785 48.1663 37.9785 56.777 37.9785C66.469 37.9798 74.3584 44.7798 75.801 54.3754C77.3074 64.3907 70.0741 74.1899 60.0629 75.7005C49.6931 77.2639 40.3733 70.7478 38.3249 60.4731C38.1007 59.3511 38.0437 58.1965 37.9024 56.9957ZM26.9023 59.2669C26.9023 58.096 26.8996 56.9237 26.9037 55.7514C26.9077 54.3794 27.4674 53.8171 28.8366 53.8157C32.2951 53.813 35.7548 53.813 39.2132 53.8157C40.6164 53.8171 41.1027 54.3401 41.1557 55.7337C41.2101 57.1532 41.191 58.5999 41.4709 59.9814C43.1933 68.5065 50.9115 73.8544 59.5413 72.5776C68.2199 71.2939 74.3163 62.5297 72.5124 53.9312C70.9149 46.3121 64.5496 41.1353 56.7648 41.1326C47.5183 41.1285 38.2719 41.1326 29.0268 41.1312C27.39 41.1312 26.905 40.6368 26.9037 38.9755C26.9037 38.3085 26.9037 37.6416 26.9037 36.8021C22.8435 40.433 18.9192 43.9417 14.9378 47.502C18.964 51.4644 22.9101 55.3425 26.9023 59.2669Z" fill="#222222"/>
<path d="M44.5527 6.27686C45.4044 6.34885 46.2792 6.32032 47.1038 6.51321C49.1495 6.99136 50.5595 8.77626 50.626 10.8695C50.6613 11.9752 50.6505 13.0837 50.6328 14.1907C50.6179 15.143 49.9686 15.8126 49.0924 15.8316C48.2068 15.8493 47.5045 15.1375 47.4895 14.1758C47.4746 13.2046 47.4923 12.2333 47.4841 11.2621C47.4746 10.1265 46.8565 9.50706 45.7223 9.49891C44.7742 9.49212 43.8247 9.50435 42.8752 9.49484C41.8591 9.48397 41.1337 8.80343 41.1487 7.89196C41.1636 6.99272 41.8496 6.36379 42.8521 6.34613C43.4171 6.33662 43.9822 6.34477 44.546 6.34477C44.5487 6.32032 44.5514 6.29859 44.5527 6.27686Z" fill="#222222"/>
<path d="M53.7762 59.5769C54.7855 58.5526 55.6671 57.648 56.5582 56.7542C58.3594 54.9448 60.1646 53.1382 61.9726 51.337C62.7252 50.5872 63.6421 50.5342 64.3118 51.1848C65.0045 51.8572 64.9665 52.7986 64.1881 53.5783C61.1726 56.602 58.1529 59.6217 55.1292 62.6373C54.2258 63.5379 53.3932 63.5311 52.4912 62.6346C51.5621 61.7109 50.6316 60.7872 49.712 59.854C48.9744 59.1055 48.9499 58.1682 49.6305 57.5121C50.273 56.8927 51.2238 56.9212 51.9275 57.6208C52.536 58.2253 53.1079 58.8651 53.7762 59.5769Z" fill="#222222"/>
</svg>
