<svg width="34" height="34" viewBox="0 0 34 34" fill="none" xmlns="http://www.w3.org/2000/svg">
<circle cx="16.7063" cy="17.1774" r="16.6556" fill="#F5F5F5"/>
<path d="M20.1448 28.133H12.8551C11.2808 28.133 10 26.8522 10 25.278V9.75502C10 8.18081 11.2808 6.89996 12.8551 6.89996H20.1442C21.7191 6.89996 23 8.18081 23 9.75502V25.2773C23 26.8522 21.7192 28.1331 20.1449 28.1331L20.1448 28.133ZM12.8551 7.76674C11.7589 7.76674 10.8667 8.65902 10.8667 9.75514V25.2775C10.8667 26.3743 11.7589 27.2666 12.8551 27.2666H20.1442C21.2411 27.2666 22.1334 26.3743 22.1334 25.2782V9.75527C22.1334 8.65914 21.2411 7.76686 20.1449 7.76686L12.8551 7.76674Z" fill="#1C1C1C"/>
<path d="M16.4989 26.8331C15.5431 26.8331 14.7656 26.0556 14.7656 25.0998C14.7656 24.1439 15.5431 23.3665 16.4989 23.3665C17.4548 23.3665 18.2322 24.1439 18.2322 25.0998C18.2322 26.0556 17.4548 26.8331 16.4989 26.8331ZM16.4989 24.2331C16.0209 24.2331 15.6323 24.6217 15.6323 25.0998C15.6323 25.5778 16.0209 25.9664 16.4989 25.9664C16.977 25.9664 17.3656 25.5778 17.3656 25.0998C17.3656 24.6217 16.977 24.2331 16.4989 24.2331Z" fill="#1C1C1C"/>
<path d="M16.0163 19.8132V19.0164C15.4543 18.9913 14.9088 18.8401 14.5898 18.6554L14.8416 17.6734C15.1939 17.8661 15.6891 18.0427 16.2342 18.0427C16.7125 18.0427 17.0396 17.8582 17.0396 17.5223C17.0396 17.2033 16.771 17.0019 16.15 16.792C15.2522 16.49 14.6399 16.0702 14.6399 15.2567C14.6399 14.5182 15.1603 13.9394 16.0576 13.7631L16.0578 12.9666H16.8797V13.7051C17.4417 13.7302 17.8197 13.8477 18.0965 13.9819L17.853 14.9301C17.6351 14.8377 17.249 14.645 16.6449 14.645C16.0994 14.645 15.9231 14.8798 15.9231 15.1148C15.9231 15.3917 16.2169 15.5677 16.9303 15.8363C17.9287 16.1887 18.3316 16.6501 18.3316 17.4055C18.3316 18.1522 17.803 18.7898 16.8379 18.9576V19.8132L16.0163 19.8132Z" fill="#1C1C1C"/>
<path d="M15.1992 9.06671H17.7992V9.93336H15.1992V9.06671Z" fill="#1C1C1C"/>
</svg>
