<svg width="35" height="34" viewBox="0 0 35 34" fill="none" xmlns="http://www.w3.org/2000/svg">
<circle cx="17.5774" cy="17.1176" r="16.6556" fill="#F5F5F5"/>
<path d="M28.0631 20.4749L25.285 22.4939C25.2365 22.5464 25.184 22.5989 25.1315 22.6958L24.0736 25.9262H20.6897C20.5847 25.9262 20.5362 25.9747 20.4353 25.9747L17.6571 27.9937L14.8789 25.9747C14.8305 25.9262 14.7255 25.9262 14.6246 25.9262H11.2488L10.2917 22.6433C10.2917 22.5424 10.2392 22.4899 10.1383 22.4414L7.36012 20.4224L8.41809 17.192C8.41809 17.091 8.41809 17.0426 8.41809 16.9376L7.36012 13.7071L10.1383 11.6881C10.1867 11.6356 10.2392 11.5831 10.2917 11.4862L11.3497 8.25578H14.7336C14.8386 8.25578 14.887 8.20732 14.988 8.20732L17.7661 6.18831L20.5443 8.20732C20.5928 8.25578 20.6978 8.25578 20.7987 8.25578H24.1826L25.2406 11.4862C25.2406 11.5872 25.289 11.6356 25.39 11.6881L28.1681 13.7071L27.1102 16.9376C27.1102 17.0426 27.1102 17.091 27.1102 17.192L28.0631 20.4749ZM28.8708 13.7112C28.9192 13.5577 28.8708 13.3558 28.7213 13.2549L25.8422 11.1834L24.7843 7.79948C24.7358 7.59758 24.5824 7.49663 24.3805 7.49663H20.7947L17.9196 5.42512C17.7661 5.32013 17.6167 5.32013 17.4633 5.42512L14.5882 7.49663H10.9984C10.849 7.49663 10.6955 7.59758 10.6471 7.75103L9.53662 11.1349L6.6575 13.2064C6.50809 13.3074 6.4556 13.4608 6.50809 13.6587L7.66701 17.095L6.55655 20.4789C6.50809 20.6324 6.55655 20.8343 6.70596 20.9352L9.58508 23.0067L10.6955 26.3906C10.744 26.54 10.8974 26.645 11.0509 26.645H14.6367L17.5117 28.7165C17.5602 28.765 17.6652 28.765 17.7661 28.765C17.8711 28.765 17.9196 28.765 18.0205 28.7165L20.8997 26.645H24.4854C24.6349 26.645 24.7883 26.54 24.8368 26.3906L25.9513 23.0067L28.8263 20.9352C28.9798 20.8343 29.0282 20.6808 28.9798 20.4789L27.7684 17.095L28.8708 13.7112Z" fill="#1C1C1C" stroke="#1C1C1C" stroke-width="0.2"/>
<path d="M20.7569 15.2632H19.304C19.205 14.4817 18.7959 13.7728 18.169 13.2958H20.7569C20.9241 13.2958 21.0595 13.1603 21.0595 12.9931C21.0595 12.826 20.9241 12.6905 20.7569 12.6905H14.6427C14.4756 12.6905 14.3401 12.826 14.3401 12.9931C14.3401 13.1603 14.4756 13.2958 14.6427 13.2958H16.3982C16.9506 13.2998 17.4834 13.4998 17.9019 13.8602C18.3205 14.2205 18.5975 14.7177 18.6835 15.2632H14.6429C14.4757 15.2632 14.3402 15.3987 14.3402 15.5659C14.3402 15.7331 14.4757 15.8686 14.6429 15.8686H18.6835C18.6313 16.4416 18.3689 16.9749 17.947 17.366C17.5251 17.7572 16.9735 17.9785 16.3982 17.9874H14.6427C14.5244 17.973 14.4116 18.0419 14.3704 18.1538C14.313 18.2608 14.3383 18.3932 14.4309 18.4716L18.8045 22.6032C18.8653 22.6501 18.9395 22.6766 19.0163 22.6788C19.1312 22.6721 19.2324 22.6008 19.2773 22.4949C19.3223 22.3889 19.3032 22.2667 19.2282 22.1794L15.3994 18.5927H16.3983C17.8965 18.5927 19.1526 17.382 19.3038 15.8685H20.7566C20.9238 15.8685 21.0592 15.733 21.0592 15.5658C21.0592 15.3986 20.9238 15.2631 20.7566 15.2631L20.7569 15.2632Z" fill="#1C1C1C" stroke="#1C1C1C" stroke-width="0.2"/>
</svg>
