<svg width="34" height="34" viewBox="0 0 34 34" fill="none" xmlns="http://www.w3.org/2000/svg">
<circle cx="16.6556" cy="17.1774" r="16.6556" fill="#F5F5F5"/>
<path d="M26.0466 17.1522H23.311L22.6271 14.4166C22.552 14.2248 22.3602 14.1122 22.1725 14.1497C21.9807 14.1872 21.8681 14.4166 21.9056 14.6084L22.6646 17.6485C22.7021 17.7986 22.8564 17.9154 23.0065 17.9529H26.0466C26.276 17.9529 26.4261 17.7986 26.4261 17.5734C26.4261 17.3399 26.2718 17.1522 26.0466 17.1522Z" fill="#1C1C1C"/>
<path d="M27.5669 22.4732C27.5669 22.8902 27.2249 23.2322 26.8079 23.2322H26.0114C25.7821 21.977 24.6019 21.1805 23.3884 21.3681C22.4376 21.5224 21.7161 22.2814 21.5243 23.2322H15.3691C15.1398 21.977 13.9596 21.1805 12.7461 21.3681C11.7953 21.5224 11.0738 22.2814 10.882 23.2322H9.32654C8.90952 23.2322 8.56757 22.8902 8.56757 22.4732V19.8126H19.5893C20.2357 19.8126 20.7278 19.3164 20.7278 18.6742V13.353H24.4893C24.6019 13.353 24.7562 13.4281 24.7937 13.5449L27.4918 17.8777C27.5669 17.9152 27.5669 17.9903 27.5669 18.0695V22.4732ZM23.7679 25.1338C22.9338 25.1338 22.2457 24.4499 22.2457 23.6117C22.2457 22.7776 22.9297 22.0896 23.7679 22.0896C24.6061 22.0896 25.29 22.7735 25.29 23.6117C25.29 24.4457 24.6019 25.1338 23.7679 25.1338ZM13.1297 25.1338C12.2957 25.1338 11.6076 24.4499 11.6076 23.6117C11.6076 22.7776 12.2915 22.0896 13.1297 22.0896C13.9679 22.0896 14.6519 22.7735 14.6519 23.6117C14.6477 24.4457 13.9638 25.1338 13.1297 25.1338ZM28.1382 17.4565L25.4401 13.1237C25.2483 12.7817 24.8688 12.5899 24.4893 12.5899H20.7278V9.54983C20.7278 8.90346 20.2315 8.41138 19.5893 8.41138H8.94705C8.30067 8.41138 7.80859 8.90763 7.80859 9.54983V11.4514C7.80859 11.6808 7.96289 11.8309 8.18808 11.8309C8.41327 11.8309 8.56757 11.6766 8.56757 11.4514V9.54983C8.56757 9.32048 8.72186 9.17035 8.94705 9.17035H19.5893C19.8187 9.17035 19.9688 9.32465 19.9688 9.54983V18.67C19.9688 18.8994 19.8145 19.0495 19.5893 19.0495H8.56757C8.15055 19.0495 7.80859 19.3914 7.80859 19.8085V22.469C7.80859 23.3031 8.4925 23.9912 9.33071 23.9912H10.8862C11.1155 25.2464 12.2957 26.0429 13.5092 25.8552C14.46 25.7009 15.1815 24.942 15.3733 23.9912H21.5285C21.7578 25.2464 22.938 26.0429 24.1515 25.8552C25.1023 25.7009 25.8238 24.942 26.0156 23.9912H26.8121C27.6461 23.9912 28.3342 23.3072 28.3342 22.469V18.0653C28.33 17.836 28.255 17.6483 28.1382 17.4565Z" fill="#1C1C1C"/>
<path d="M9.32812 17.5314C9.32812 17.7608 9.48242 17.9109 9.70761 17.9109H16.5467C16.7761 17.9109 16.9262 17.7566 16.9262 17.5314C16.9262 17.3062 16.7719 17.1519 16.5467 17.1519H9.70761C9.48242 17.1519 9.32812 17.302 9.32812 17.5314Z" fill="#1C1C1C"/>
<path d="M7.04754 13.3533H13.8866C14.116 13.3533 14.2661 13.199 14.2661 12.9738C14.2661 12.7445 14.1118 12.5944 13.8866 12.5944H7.04754C6.81818 12.5944 6.66805 12.7487 6.66805 12.9738C6.66388 13.199 6.81818 13.3533 7.04754 13.3533Z" fill="#1C1C1C"/>
<path d="M11.228 15.63C11.4573 15.63 11.6075 15.4757 11.6075 15.2505C11.6075 15.0212 11.4532 14.871 11.228 14.871H5.90683C5.68164 14.871 5.52734 15.0253 5.52734 15.2505C5.52734 15.4799 5.68164 15.63 5.90683 15.63H11.228Z" fill="#1C1C1C"/>
<path d="M8.18734 17.5314C8.18734 17.302 8.03304 17.1519 7.80785 17.1519H6.28574C6.05638 17.1519 5.90625 17.3062 5.90625 17.5314C5.90625 17.7566 6.06055 17.9109 6.28574 17.9109H7.80785C8.03304 17.9109 8.18734 17.7608 8.18734 17.5314Z" fill="#1C1C1C"/>
<path d="M13.5096 15.63C13.7389 15.63 13.889 15.4757 13.889 15.2505C13.889 15.0212 13.7347 14.871 13.5096 14.871H12.7506C12.5212 14.871 12.3711 15.0253 12.3711 15.2505C12.3711 15.4799 12.5254 15.63 12.7506 15.63H13.5096Z" fill="#1C1C1C"/>
</svg>
