<svg width="107" height="107" viewBox="0 0 107 107" fill="none" xmlns="http://www.w3.org/2000/svg">
<path d="M107.001 53.2649C107.009 82.7889 83.0798 106.679 53.5134 106.667C24.1535 106.655 0.330013 82.7453 0.333985 53.2946C0.337956 23.7725 24.2469 -0.0138913 53.9006 6.08666e-06C83.1037 0.0139035 106.995 23.979 107.001 53.2649ZM92.3455 21.6165C79.5829 7.48476 63.9587 0.952972 45.2128 4.30424C25.0531 7.90764 11.7304 20.1155 5.8088 39.6771C1.2256 54.8194 4.1606 69.0583 12.906 82.2171C13.194 82.0365 13.3091 81.9749 13.4104 81.8955C20.7876 76.2631 28.1648 70.6327 35.5301 64.9863C35.8836 64.7143 36.1814 64.3292 36.4098 63.9401C39.7042 58.3354 42.9887 52.7248 46.2514 47.1023C46.452 46.7549 46.5433 46.2963 46.5453 45.8873C46.5651 40.503 46.5691 35.1188 46.5334 29.7325C46.5314 29.3633 46.2653 28.8868 45.9694 28.6485C45.1671 28.0033 44.6866 27.2409 44.6846 26.2046C44.6806 24.9816 44.6548 23.7586 44.6925 22.5377C44.7442 20.8839 45.8503 19.7125 47.5163 19.6927C51.613 19.645 55.7117 19.647 59.8084 19.6907C61.4764 19.7085 62.5964 20.866 62.654 22.5138C62.6977 23.7686 62.6719 25.0233 62.658 26.28C62.648 27.2787 62.229 28.1085 61.3692 28.593C60.8211 28.9007 60.7854 29.2918 60.7854 29.81C60.7953 34.7654 60.7913 39.7208 60.7933 44.6762C60.7933 44.9542 60.8251 45.2321 60.8509 45.6649C71.3676 37.6342 81.7533 29.7048 92.3455 21.6165ZM94.3055 24.4773C83.5683 32.6808 72.8947 40.8366 62.1854 49.0182C64.6914 53.3363 67.0903 57.6267 69.638 61.8296C73.2661 67.8135 76.9954 73.7377 80.6929 79.6779C81.3244 80.6904 81.7215 81.7506 81.5488 82.9557C81.1913 85.4493 79.3128 86.98 76.6002 86.982C61.3335 86.986 46.0667 86.984 30.8 86.984C30.6669 86.984 30.5359 86.986 30.4028 86.982C26.6298 86.8609 24.5765 83.1185 26.5265 79.8983C27.4678 78.3457 28.4408 76.813 29.398 75.2684C29.7693 74.6709 30.1327 74.0693 30.5001 73.4677C30.4445 73.426 30.3889 73.3844 30.3333 73.3427C25.2815 77.2022 20.2276 81.0617 15.1738 84.9232C30.1288 103.784 60.0447 110.375 82.9845 93.619C106.47 76.4636 109.257 45.113 94.3055 24.4773ZM59.3636 51.1683C53.6306 55.546 48.0465 59.9356 42.3195 64.1326C39.7082 66.0465 37.5715 68.2463 36.0405 71.0972C35.1052 72.8384 33.9733 74.4743 32.9287 76.1579C31.7968 77.9804 30.651 79.795 29.539 81.6295C28.9115 82.6658 29.3583 83.4401 30.5676 83.4858C30.7662 83.4937 30.9648 83.4878 31.1634 83.4878C46.166 83.4878 61.1686 83.4878 76.1733 83.4878C76.4711 83.4878 76.771 83.5076 77.0649 83.4739C77.9148 83.3726 78.306 82.6758 77.9565 81.8916C77.8632 81.6811 77.7242 81.4925 77.605 81.294C71.6675 71.4625 65.728 61.6291 59.7885 51.7997C59.6713 51.6051 59.5363 51.4225 59.3636 51.1683ZM59.1809 23.2524C55.4595 23.2524 51.8195 23.2524 48.1597 23.2524C48.1597 24.0564 48.1597 24.7771 48.1597 25.5613C49.937 25.7281 50.1733 26.9928 50.0681 28.5116C50.5705 28.5116 50.9597 28.5116 51.3489 28.5116C51.7461 28.5116 52.1432 28.4977 52.5384 28.5175C53.5571 28.5711 54.2482 29.2422 54.27 30.1832C54.2938 31.164 53.5909 31.8886 52.5265 31.9403C51.901 31.97 51.2675 31.9125 50.6459 31.974C50.4116 31.9978 50.2031 32.2519 49.8476 32.4902C50.1872 32.6431 50.2468 32.6927 50.3064 32.6947C50.9676 32.7066 51.6269 32.7046 52.2882 32.7185C53.4995 32.7443 54.268 33.4253 54.27 34.4616C54.27 35.498 53.5194 36.169 52.2882 36.2087C51.7262 36.2266 51.1622 36.181 50.6062 36.2346C50.4215 36.2524 50.2587 36.4907 50.0859 36.6277C50.2547 36.7368 50.4176 36.9294 50.5923 36.9413C51.2178 36.983 51.8473 36.9374 52.4729 36.9711C53.567 37.0267 54.2621 37.7097 54.268 38.6884C54.274 39.693 53.5233 40.4038 52.3954 40.4336C51.6428 40.4534 50.8882 40.4375 50.1356 40.4375C50.084 40.5408 50.0323 40.642 49.9827 40.7453C50.1952 40.9001 50.3937 41.1582 50.6241 41.192C51.1106 41.2614 51.613 41.2118 52.1075 41.2158C53.4856 41.2297 54.2839 41.8789 54.266 42.9728C54.2482 44.0389 53.4876 44.6485 52.1492 44.6584C51.474 44.6643 50.7969 44.6584 49.9807 44.6584C50.358 46.739 49.6391 48.3471 48.6621 49.9394C47.0576 52.5541 45.5722 55.2403 44.0412 57.8987C43.9101 58.127 43.8108 58.3731 43.5765 58.8655C48.402 55.1787 52.9892 51.6766 57.4532 48.2658C57.3897 47.2215 57.2904 46.3102 57.2884 45.3989C57.2745 39.6196 57.2805 33.8402 57.2824 28.0609C57.2824 26.3733 57.5466 26.016 59.1828 25.5018C59.1809 24.7871 59.1809 24.0644 59.1809 23.2524Z" fill="white"/>
</svg>
