<svg width="54" height="76" viewBox="0 0 54 76" fill="none" xmlns="http://www.w3.org/2000/svg">
<path d="M18.948 23.6362C18.3163 23.6032 17.7717 23.5987 17.2331 23.5432C15.1657 23.3288 13.6099 21.531 13.7134 19.4992C13.8199 17.4195 15.4763 15.7401 17.5362 15.7326C23.7264 15.7101 29.9182 15.7086 36.11 15.7341C38.1699 15.7431 39.8352 17.4494 39.9147 19.5142C39.9928 21.5489 38.4894 23.3108 36.461 23.5372C35.8969 23.6002 35.3253 23.6062 34.6802 23.6422C34.6802 23.9571 34.6802 24.227 34.6802 24.4969C34.6802 29.2126 34.6682 33.9284 34.6997 38.6427C34.7027 39.103 34.8692 39.6293 35.1273 40.0132C40.7909 48.4356 46.4846 56.8385 52.1602 65.2534C53.7551 67.6196 54.2652 70.1207 52.7018 72.6892C51.5391 74.601 49.7927 75.7331 47.5228 75.9595C47.2002 75.9925 46.8747 75.9955 46.5506 75.9955C33.4199 75.997 20.2877 75.9925 7.15708 76C4.11746 76.0015 1.855 74.73 0.564739 71.9545C-0.554488 69.5494 0.111647 67.3032 1.49793 65.2429C7.10907 56.9045 12.7472 48.5855 18.3929 40.2711C18.7904 39.6863 18.966 39.109 18.9615 38.4028C18.9375 33.7875 18.9495 29.1722 18.9495 24.5553C18.948 24.2645 18.948 23.9736 18.948 23.6362ZM43.826 57.6467C43.6145 57.3139 43.4885 57.1054 43.3519 56.9045C39.8052 51.6564 36.2675 46.4008 32.6968 41.1678C32.2362 40.4915 32.0471 39.8228 32.0516 39.0131C32.0771 34.1728 32.0651 29.3326 32.0651 24.4909C32.0651 24.206 32.0651 23.9211 32.0651 23.6437C28.5064 23.6437 25.0737 23.6437 21.6155 23.6437C21.6155 24.5074 21.6155 25.3186 21.6155 26.2017C21.9186 26.2017 22.1856 26.2017 22.4542 26.2017C24.3266 26.2017 26.1989 26.1927 28.0713 26.2062C28.9115 26.2122 29.4126 26.7026 29.4321 27.4748C29.4516 28.2485 28.979 28.7838 28.1403 28.8108C26.8681 28.8513 25.5943 28.8288 24.3206 28.8303C23.4309 28.8318 22.5397 28.8303 21.6365 28.8303C21.6365 29.7524 21.6365 30.5816 21.6365 31.4423C23.2403 31.4423 24.7872 31.4303 26.3325 31.4468C27.1186 31.4558 27.6227 31.9461 27.6647 32.6779C27.7083 33.4351 27.2222 33.9779 26.4015 34.0499C26.0294 34.0829 25.6528 34.0694 25.2793 34.0694C24.0655 34.0709 22.8533 34.0694 21.614 34.0694C21.614 34.984 21.614 35.7952 21.614 36.6799C21.8901 36.6799 22.1331 36.6799 22.3762 36.6799C24.2486 36.6799 26.1209 36.6739 27.9933 36.6829C28.8935 36.6874 29.4096 37.1582 29.4291 37.9529C29.4486 38.7521 28.9565 39.274 28.0638 39.2964C26.7661 39.3294 25.4683 39.3084 24.169 39.3099C23.3274 39.3114 22.4857 39.3099 21.8496 39.3099C21.482 40.0492 21.2524 40.6744 20.8909 41.2112C17.3727 46.4533 13.8319 51.6744 10.2987 56.903C10.1547 57.1174 10.0197 57.3378 9.82162 57.6482C11.1869 57.6482 12.4066 57.6347 13.6264 57.6527C14.5551 57.6662 15.1087 58.272 15.0157 59.1222C14.9362 59.8419 14.4231 60.2603 13.5184 60.2708C11.871 60.2888 10.2222 60.2573 8.57637 60.2978C8.28681 60.3053 7.89673 60.4942 7.7362 60.7266C6.2614 62.8588 4.8226 65.018 3.38081 67.1742C2.48363 68.5162 2.38161 69.9332 3.15427 71.3457C3.91642 72.7372 5.15867 73.37 6.73849 73.37C20.1197 73.3685 33.5009 73.367 46.8837 73.3715C48.4935 73.3715 49.7567 72.7372 50.5204 71.3082C51.2795 69.8867 51.1535 68.4758 50.2518 67.1368C48.8025 64.985 47.3668 62.8258 45.8905 60.6936C45.7359 60.4702 45.3473 60.2918 45.0668 60.2903C39.5997 60.2678 34.1326 60.2798 28.6639 60.2723C27.6497 60.2708 27.0916 59.7819 27.0856 58.9677C27.0796 58.1191 27.6527 57.6497 28.7135 57.6482C30.9099 57.6452 33.1079 57.6467 35.3043 57.6467C38.0949 57.6467 40.8884 57.6467 43.826 57.6467ZM26.9011 18.3521C26.7511 18.3521 26.6025 18.3521 26.4525 18.3521C23.5839 18.3521 20.7168 18.3461 17.8483 18.3551C16.804 18.3581 16.2204 18.9564 16.3419 19.8471C16.4425 20.5803 16.9781 20.9612 17.9383 20.9612C23.8495 20.9627 29.7592 20.9627 35.6704 20.9612C35.8699 20.9612 36.074 20.9717 36.266 20.9312C37.2277 20.7302 37.6793 19.5307 36.9891 18.8379C36.6996 18.547 36.158 18.3776 35.7289 18.3731C32.7883 18.3326 29.8447 18.3521 26.9011 18.3521Z" fill="#222222"/>
<path d="M13.6928 10.4812C10.8197 10.4722 8.45819 8.08956 8.4747 5.21811C8.4912 2.33316 10.8512 -0.00747929 13.7348 1.79605e-05C16.6093 0.00751522 18.9693 2.38714 18.9528 5.26009C18.9363 8.14204 16.5703 10.4902 13.6928 10.4812ZM13.7078 2.63155C12.2405 2.63605 11.1002 3.76664 11.0942 5.2271C11.0882 6.68757 12.218 7.83165 13.6838 7.84814C15.1766 7.86464 16.3483 6.69956 16.3363 5.21361C16.3228 3.75764 15.1736 2.62856 13.7078 2.63155Z" fill="#222222"/>
<path d="M33.3961 6.56349C35.54 6.56949 37.3013 8.32385 37.3089 10.4621C37.3164 12.6318 35.5355 14.4071 33.357 14.3981C31.2041 14.3906 29.4623 12.6513 29.4503 10.4966C29.4383 8.31635 31.2026 6.55749 33.3961 6.56349ZM33.3841 9.16504C32.6504 9.16054 32.0533 9.77082 32.0683 10.507C32.0833 11.2133 32.6609 11.7876 33.3645 11.7951C34.1027 11.8026 34.6878 11.2013 34.6743 10.4501C34.6593 9.73183 34.0952 9.16954 33.3841 9.16504Z" fill="#222222"/>
<path d="M26.8226 62.8601C26.8331 65.739 24.4761 68.1171 21.6045 68.1276C18.7224 68.1381 16.3459 65.784 16.3369 62.9126C16.3279 60.0276 18.6774 57.657 21.5535 57.648C24.4386 57.6375 26.8121 59.9871 26.8226 62.8601ZM24.1925 62.8526C24.173 61.3891 23.0298 60.272 21.5625 60.2795C20.0952 60.287 18.9655 61.4191 18.964 62.8826C18.9625 64.3715 20.1372 65.5231 21.63 65.4946C23.0898 65.4661 24.2135 64.3085 24.1925 62.8526Z" fill="#222222"/>
<path d="M45.1686 66.8324C45.1551 69.0141 43.3653 70.77 41.1868 70.737C39.0354 70.704 37.304 68.9451 37.3115 66.7994C37.319 64.6342 39.1179 62.8679 41.2964 62.8889C43.4283 62.9083 45.1806 64.6942 45.1686 66.8324ZM42.5521 66.8339C42.5611 66.1112 42.024 65.5519 41.2979 65.5249C40.5342 65.4964 39.9506 66.0482 39.9446 66.8039C39.9386 67.5312 40.4727 68.0964 41.1913 68.1234C41.928 68.1534 42.5431 67.5686 42.5521 66.8339Z" fill="#222222"/>
<path d="M28.1382 47.1655C30.3076 47.17 32.0855 48.9664 32.066 51.1346C32.0465 53.2713 30.2761 55.0167 28.1292 55.0137C25.9477 55.0122 24.1789 53.2248 24.2074 51.0506C24.2359 48.9034 25.9972 47.161 28.1382 47.1655ZM29.4329 51.1286C29.4509 50.4029 28.9228 49.8331 28.2012 49.8016C27.436 49.7686 26.8434 50.3129 26.8269 51.0641C26.8119 51.7733 27.3565 52.3626 28.0632 52.4016C28.8103 52.4406 29.4134 51.8813 29.4329 51.1286Z" fill="#222222"/>
</svg>
