<svg width="107" height="107" viewBox="0 0 107 107" fill="none" xmlns="http://www.w3.org/2000/svg">
<path d="M53.3283 106.667C23.923 106.66 -0.0561393 82.6493 0.00107875 53.2654C0.0582968 23.8838 23.9778 -0.00476747 53.3403 7.13676e-07C82.7504 0.0047689 106.727 24.0126 106.668 53.3965C106.606 82.7828 82.686 106.671 53.3283 106.667ZM18.74 16.4955C27.2822 25.0354 35.8268 33.5776 44.4285 42.177C46.4288 40.6512 48.7652 39.5497 51.4282 39.1945C51.6356 39.1659 51.948 38.7987 51.9575 38.5794C52.0076 37.2443 51.9813 35.9044 51.9813 34.6027C44.9554 33.1127 42.7835 27.4481 43.1817 23.593C43.7014 18.5482 47.6685 14.5978 52.4582 14.2902C57.5863 13.9612 61.9564 17.0916 63.208 21.9909C63.8112 24.3535 63.568 26.6494 62.5095 28.8261C60.9264 32.0827 58.2062 33.8923 54.6801 34.5932C54.6801 35.9283 54.6253 37.1585 54.7183 38.3791C54.7421 38.6914 55.1903 39.173 55.5098 39.235C61.9659 40.4819 66.0546 44.5849 67.4326 51.2151C67.4946 51.5131 67.9356 51.9327 68.2241 51.9494C69.4829 52.0304 70.7489 51.9851 71.9743 51.9851C74.6111 45.0522 78.335 42.4011 84.0306 43.3261C88.5055 44.0533 92.1508 48.1086 92.3749 52.605C92.6276 57.695 89.4973 62.0007 84.6481 63.2237C82.3284 63.8078 80.0683 63.5814 77.9226 62.561C74.6111 60.9851 72.773 58.241 72.0673 54.6911C70.7155 54.6911 69.4853 54.6625 68.2599 54.7125C67.9833 54.7244 67.5113 54.9915 67.4827 55.1894C67.1131 57.8881 66.0093 60.2651 64.4978 62.232C73.1234 70.86 81.6656 79.4046 90.2054 87.9492C108.756 68.6762 109.288 36.2144 87.7188 16.2047C66.7245 -3.28528 35.9722 -0.505426 18.74 16.4955ZM51.9813 72.052C51.9813 70.736 52.0266 69.4677 51.9456 68.2089C51.9265 67.9276 51.495 67.496 51.1898 67.434C44.6121 66.0966 40.5186 62.0102 39.2384 55.4897C39.1788 55.1917 38.8307 54.7364 38.5947 54.7221C37.2596 54.6482 35.9174 54.6863 34.6204 54.6863C32.7298 60.8611 28.5791 64.1011 23.4867 63.4765C18.4277 62.8566 14.5369 58.8918 14.2865 54.0974C14.0171 48.9645 17.2118 44.5801 22.0896 43.4191C24.4547 42.8564 26.7458 43.1139 28.9177 44.1987C32.1219 45.7984 33.8909 48.4924 34.587 51.9804C35.8744 51.9804 37.0617 51.9446 38.2466 51.9947C38.9666 52.0233 39.1168 51.6943 39.3004 51.0577C39.77 49.4342 40.3422 47.832 40.9812 46.2657C41.2863 45.5219 41.8347 44.8781 42.1684 44.3536C33.5547 35.7352 25.034 27.2096 16.3941 18.5649C3.83231 32.9482 -0.771365 49.489 4.93376 67.8894C11.1443 87.9134 25.2033 99.9626 45.9258 103.35C62.0017 105.98 76.0749 101.007 88.0645 90.2236C79.4031 81.555 70.8848 73.0319 62.2949 64.4372C60.278 66.0179 57.9296 67.0883 55.2761 67.4698C55.0497 67.5032 54.7183 67.9204 54.7087 68.1707C54.6515 69.4701 54.6825 70.7718 54.6825 72.0282C61.3603 74.2001 64.2999 78.3508 63.3344 84.0988C62.5214 88.9338 58.1251 92.4813 53.0518 92.3979C48.0238 92.3144 43.9136 88.5237 43.2007 83.3145C42.4998 78.1601 45.797 73.8735 51.9813 72.052ZM60.247 62.5729C54.8375 57.1395 49.478 51.7539 44.1282 46.3777C40.5949 50.7335 40.9883 57.3183 45.1009 61.481C49.2301 65.6627 55.8889 66.0942 60.247 62.5729ZM62.4809 60.3461C66.2477 55.814 65.6207 48.831 61.0552 44.7065C56.852 40.9086 49.8094 40.7131 46.362 44.2368C51.7143 49.5867 57.0666 54.9366 62.4809 60.3461ZM31.9359 53.3631C31.9478 49.2077 28.6507 45.8556 24.5 45.8056C20.3588 45.7555 16.9019 49.1981 16.9162 53.3608C16.9281 57.4685 20.3254 60.8563 24.438 60.8635C28.5601 60.8683 31.924 57.5043 31.9359 53.3631ZM74.7303 53.3512C74.7374 57.4971 78.0847 60.8563 82.2163 60.8611C86.3241 60.8659 89.731 57.4781 89.75 53.3703C89.7691 49.21 86.3217 45.765 82.1758 45.8032C78.0299 45.8461 74.7231 49.1957 74.7303 53.3512ZM53.3117 31.9349C57.4671 31.9421 60.8096 28.6449 60.8573 24.4894C60.905 20.3506 57.4576 16.8961 53.295 16.9128C49.1848 16.9294 45.8042 20.3292 45.8065 24.4441C45.8113 28.5733 49.1681 31.9278 53.3117 31.9349ZM53.3808 74.7318C49.2229 74.7151 45.8709 77.998 45.8089 82.1487C45.7469 86.2851 49.1848 89.7563 53.345 89.7491C57.4552 89.7444 60.8478 86.3542 60.8597 82.244C60.8716 78.1124 57.5267 74.7508 53.3808 74.7318Z" fill="white"/>
</svg>
