<svg width="77" height="77" viewBox="0 0 77 77" fill="none" xmlns="http://www.w3.org/2000/svg">
<path d="M63.389 38.4941C63.3635 52.2103 52.1982 63.3727 38.4962 63.3798C24.787 63.3883 13.5096 52.0897 13.5962 38.4302C13.6828 24.6713 24.8707 13.5189 38.5245 13.5813C52.2706 13.6438 63.416 24.8104 63.389 38.4941ZM61.5875 38.504C61.6074 25.807 51.2542 15.4226 38.5373 15.3856C25.8489 15.3487 15.4459 25.7048 15.4005 38.4188C15.3551 51.1314 25.7608 61.5684 38.4876 61.5755C51.1846 61.5812 61.5662 51.2123 61.5875 38.504Z" fill="#222222"/>
<path d="M10.9419 58.3907C9.25829 56.0342 7.81596 53.5186 6.81798 50.7802C6.21464 49.1221 5.76463 47.4086 5.27912 45.7093C5.07044 44.9754 5.33306 44.497 5.90943 44.3763C6.47727 44.2571 6.85489 44.5864 7.02808 45.3587C7.9636 49.5309 9.64726 53.3738 12.0932 56.8817C12.16 56.9768 12.2324 57.0691 12.3445 57.221C13.9998 56.3621 15.6991 56.2059 17.4196 57.0307C18.5695 57.583 19.4156 58.4418 19.9579 59.596C21.0567 61.9383 20.3454 64.7122 18.2586 66.2383C16.2002 67.7445 13.3624 67.5884 11.4686 65.865C9.3676 63.9527 9.17737 61.352 10.9419 58.3907ZM15.1142 65.4235C17.1215 65.4135 18.6575 63.8804 18.6589 61.883C18.6604 59.8728 17.0775 58.2999 15.0617 58.3084C13.0884 58.3169 11.5211 59.8898 11.5155 61.8673C11.5098 63.8945 13.0671 65.4334 15.1142 65.4235Z" fill="#222222"/>
<path d="M18.5806 10.9288C22.2588 8.25708 26.2834 6.41443 30.6814 5.38663C30.8886 5.33836 31.0959 5.29577 31.3031 5.24893C31.8809 5.11974 32.3026 5.32701 32.4502 5.89769C32.6021 6.48683 32.2727 6.84315 31.7248 6.99789C30.5011 7.34427 29.2546 7.62252 28.0494 8.02427C25.0782 9.01515 22.3241 10.4404 19.7433 12.3299C20.5751 13.927 20.7654 15.5638 20.0343 17.2319C19.5133 18.4201 18.6615 19.3116 17.5031 19.8993C15.1948 21.0705 12.3428 20.3933 10.7784 18.3051C9.24523 16.2608 9.36164 13.4088 11.0538 11.5137C12.9887 9.34308 15.6065 9.12872 18.5806 10.9288ZM15.0841 11.5023C13.0753 11.5051 11.4982 13.1022 11.5166 15.1138C11.5351 17.0984 13.0995 18.6344 15.0983 18.6302C17.0971 18.6259 18.6573 17.0828 18.6644 15.0996C18.6729 13.0866 17.0928 11.4981 15.0841 11.5023Z" fill="#222222"/>
<path d="M58.4045 66.0367C56.1828 67.6167 53.8319 69.0165 51.2568 69.9761C49.6043 70.5922 47.898 71.0635 46.2143 71.5987C46.1249 71.6271 46.0298 71.6413 45.9375 71.6555C45.2618 71.7634 44.8103 71.5334 44.7252 71.0053C44.6229 70.3722 44.9608 70.0755 45.5443 69.8952C47.4111 69.3188 49.2991 68.7879 51.1162 68.0795C53.2939 67.2306 55.3069 66.0395 57.2433 64.6199C56.427 63.047 56.2439 61.4329 56.9352 59.7805C57.4377 58.5781 58.2881 57.6837 59.4351 57.0861C61.7179 55.8978 64.5315 56.5225 66.1314 58.5539C67.7214 60.5726 67.6504 63.4615 65.9639 65.4078C64.0758 67.5912 61.5078 67.8112 58.4045 66.0367ZM65.4642 61.8545C65.4514 59.8444 63.8615 58.2899 61.8371 58.3098C59.8681 58.3282 58.3165 59.9125 58.3222 61.8957C58.3278 63.9186 59.8951 65.4433 61.9493 65.4249C63.9509 65.405 65.477 63.8562 65.4642 61.8545Z" fill="#222222"/>
<path d="M33.2651 70.2336C33.9139 68.2646 35.1234 66.9373 37.0767 66.3865C39.933 65.5815 42.9539 67.3262 43.7021 70.1924C44.4772 73.1651 42.643 76.1676 39.6363 76.8462C36.7502 77.4978 33.8216 75.5941 33.258 72.6626C33.1657 72.1827 32.9826 72.0081 32.5099 71.9258C28.0849 71.1592 23.9808 69.5579 20.199 67.1346C19.3898 66.6164 19.2905 65.8569 19.9648 65.4467C20.4318 65.1627 20.818 65.3899 21.2069 65.6383C24.5643 67.7819 28.1985 69.2385 32.1024 70.0249C32.4701 70.1002 32.8406 70.1584 33.2651 70.2336ZM42.0624 71.5652C42.0567 69.5919 40.4781 67.9977 38.5148 67.9835C36.5259 67.9693 34.9147 69.5834 34.9204 71.5879C34.9246 73.5583 36.5046 75.1554 38.468 75.171C40.4512 75.1895 42.0681 73.5669 42.0624 71.5652Z" fill="#222222"/>
<path d="M6.74354 33.2539C8.74519 33.9126 10.0881 35.1632 10.6191 37.1805C11.37 40.0353 9.54159 43.0463 6.67256 43.7164C3.69422 44.4106 0.754207 42.5637 0.116802 39.5953C-0.499309 36.7277 1.38593 33.8146 4.2649 33.2553C4.80435 33.1502 4.97329 32.9401 5.06556 32.4106C5.81937 28.1135 7.35965 24.1102 9.69349 20.4192C10.1762 19.6568 10.6531 19.4609 11.1685 19.8102C11.6611 20.1424 11.6852 20.6406 11.2281 21.3646C8.934 24.9988 7.45618 28.9397 6.74354 33.2539ZM5.3651 42.0526C7.36817 42.0654 8.9922 40.4612 8.98936 38.4738C8.98652 36.5119 7.39656 34.9219 5.42472 34.9091C3.41881 34.8964 1.7962 36.4977 1.80046 38.4851C1.80472 40.4456 3.39894 42.0413 5.3651 42.0526Z" fill="#222222"/>
<path d="M64.6467 19.7558C61.4952 21.0463 58.8291 20.3592 57.3144 17.9132C55.8948 15.6205 56.3704 12.7032 58.4515 10.9344C60.4106 9.27061 63.3733 9.27912 65.3594 10.9557C67.5782 12.8281 67.8309 15.5765 66.0351 18.5705C67.6407 20.8035 69.0447 23.1771 70.0157 25.7707C70.6247 27.4004 71.0988 29.0827 71.5985 30.7521C71.803 31.4364 71.5531 31.9276 71.0264 32.0752C70.477 32.23 70.0128 31.8949 69.8439 31.1653C68.9169 27.1648 67.2744 23.4866 64.9122 20.1278C64.8313 20.0128 64.7489 19.8992 64.6467 19.7558ZM61.9125 11.5022C59.935 11.4937 58.3451 13.0496 58.3238 15.0172C58.301 17.0458 59.8513 18.6216 61.877 18.6287C63.8801 18.6358 65.4445 17.1083 65.4658 15.1237C65.4885 13.1092 63.9199 11.5122 61.9125 11.5022Z" fill="#222222"/>
<path d="M43.8135 6.74423C43.4316 7.4299 43.1534 8.09002 42.7374 8.64793C41.2142 10.6907 38.4956 11.3409 36.203 10.262C33.8933 9.1746 32.6795 6.65338 33.2502 4.13357C33.801 1.70604 36.0653 -0.0500188 38.5808 0.00108718C41.1191 0.0521931 43.2556 1.82954 43.7297 4.33374C43.8149 4.78375 43.9895 4.9541 44.4353 5.03076C48.7665 5.76612 52.7883 7.31776 56.5119 9.64733C56.651 9.73535 56.8725 9.80775 56.9051 9.92842C57.0088 10.3018 57.1791 10.7419 57.067 11.0684C56.9179 11.5042 56.4409 11.6305 55.9923 11.4133C55.5906 11.2188 55.2172 10.9662 54.8311 10.739C51.4056 8.71181 47.7231 7.39583 43.8135 6.74423ZM42.0631 5.38141C42.0617 3.40815 40.4888 1.81109 38.524 1.78838C36.5408 1.76566 34.9196 3.38544 34.9196 5.38567C34.9211 7.35892 36.494 8.9574 38.4573 8.97728C40.4448 8.99857 42.0645 7.38164 42.0631 5.38141Z" fill="#222222"/>
<path d="M70.2192 43.7966C69.5448 43.4218 68.8833 43.1436 68.3254 42.7276C66.2826 41.2072 65.6338 38.4958 66.7099 36.1946C67.7888 33.8891 70.32 32.6668 72.8355 33.239C75.263 33.7898 77.0219 36.0569 76.9708 38.5682C76.9183 41.1093 75.1424 43.2515 72.641 43.7185C72.1427 43.8122 72.0093 44.0294 71.9298 44.4894C71.193 48.7439 69.6712 52.7047 67.4041 56.38C67.123 56.8357 66.7922 57.1835 66.2031 57.0047C65.587 56.8173 65.462 56.1969 65.8226 55.4914C66.7227 53.7296 67.6738 51.9892 68.4631 50.1778C69.3575 48.125 69.8827 45.9459 70.2192 43.7966ZM71.6033 42.0547C73.5694 42.0491 75.1693 40.4619 75.1835 38.5014C75.1991 36.5168 73.5765 34.9042 71.5735 34.9098C69.6002 34.9169 68.0074 36.4955 67.9946 38.4603C67.9819 40.4463 69.6016 42.0604 71.6033 42.0547Z" fill="#222222"/>
<path d="M38.4482 57.0746C28.1588 57.042 19.8598 48.6961 19.8996 38.4195C19.9393 28.1316 28.3008 19.8326 38.5703 19.888C48.8667 19.9448 57.1459 28.302 57.0834 38.5771C57.0209 48.8409 48.6935 57.1059 38.4482 57.0746ZM55.2904 38.4934C55.3075 29.2375 47.7452 21.671 38.4865 21.6795C29.242 21.688 21.7521 29.158 21.6925 38.4323C21.6329 47.6626 29.1668 55.2348 38.4595 55.2831C47.6927 55.3314 55.2734 47.7691 55.2904 38.4934Z" fill="#222222"/>
<path d="M39.7866 49.4217C39.7866 49.9412 39.7866 50.6212 39.7866 51.3495C39.1194 51.3495 38.499 51.3495 37.8034 51.3495C37.8034 50.6084 37.8034 49.8859 37.8034 49.1349C34.8776 48.7842 32.3649 47.667 30.1475 45.7193C30.924 44.7937 31.6608 43.9164 32.4103 43.0249C34.0102 44.3494 35.6825 45.3715 37.7537 45.7051C37.7537 43.7006 37.7537 41.7288 37.7537 39.73C36.7927 39.4049 35.8018 39.1167 34.8478 38.7348C32.9413 37.9697 31.4294 36.8226 31.11 34.6009C30.5733 30.8744 32.6928 27.9444 36.4207 27.2843C36.8381 27.2104 37.2597 27.1607 37.7651 27.0869C37.7651 26.6298 37.7651 26.1486 37.7651 25.6162C38.4678 25.6162 39.0882 25.6162 39.7838 25.6162C39.7838 26.1117 39.7838 26.5972 39.7838 27.1224C42.1616 27.3723 44.301 28.1048 46.2771 29.496C45.6098 30.4429 44.9511 31.377 44.2683 32.3452C42.9012 31.4224 41.4774 30.7822 39.7951 30.5579C39.7951 32.4389 39.7852 34.2716 39.8164 36.1043C39.8193 36.2392 40.0989 36.4237 40.2849 36.4933C41.3879 36.9021 42.5321 37.213 43.6025 37.6914C45.722 38.6369 46.8137 40.3106 46.8477 42.6515C46.8832 45.062 45.9037 46.9586 43.7686 48.0617C42.5832 48.6749 41.2204 48.9461 39.7866 49.4217ZM39.8207 45.7633C41.9132 45.6029 43.1085 44.5283 43.0318 42.9426C42.9665 41.584 41.449 40.356 39.8207 40.3617C39.8207 42.1476 39.8207 43.932 39.8207 45.7633ZM37.7608 35.7707C37.7608 33.9933 37.7608 32.2571 37.7608 30.5195C36.134 30.5749 34.9557 31.4906 34.8222 32.771C34.6675 34.2616 35.6002 35.2312 37.7608 35.7707Z" fill="#222222"/>
</svg>
