<svg width="36" height="46" viewBox="0 0 36 46" fill="none" xmlns="http://www.w3.org/2000/svg">
<path d="M5.39924 26.6032C5.99708 26.8476 6.53887 26.622 6.70701 25.9452C6.8191 25.4752 7.11803 24.3095 7.2488 23.8207C7.41694 23.1627 7.3609 22.9183 6.87515 22.3542C5.81025 21.0946 5.13768 19.4777 5.13768 17.1652C5.13768 10.4909 10.1072 4.51221 18.066 4.51221C25.1093 4.51221 28.9952 8.85521 28.9952 14.6459C28.9952 22.2602 25.651 28.6901 20.6628 28.6901C17.9165 28.6901 15.8614 26.3964 16.5153 23.5951C17.3 20.2485 18.8319 16.6388 18.8319 14.2135C18.8319 12.0514 17.6736 10.2465 15.2823 10.2465C12.4799 10.2465 10.2193 13.1606 10.2193 17.09C10.2193 19.5905 11.06 21.2638 11.06 21.2638C11.06 21.2638 8.18293 33.5219 7.6785 35.6652C6.66964 39.933 7.52904 45.1785 7.60377 45.7049C7.64114 46.0245 8.05215 46.0997 8.22029 45.8553C8.48185 45.5169 11.826 41.3619 12.9656 37.2069C13.2832 36.0412 14.8152 29.9498 14.8152 29.9498C15.7306 31.6982 18.4022 33.2399 21.2233 33.2399C29.6678 33.2399 35.3846 25.494 35.3846 15.1347C35.3846 7.29474 28.7897 0 18.7572 0C6.27731 0 0 9.00562 0 16.5072C0.0186825 21.057 1.71879 25.0991 5.39924 26.6032Z" fill="#141613"/>
</svg>
