<svg width="59" height="59" viewBox="0 0 59 59" fill="none" xmlns="http://www.w3.org/2000/svg">
<path d="M57.7274 28.3988C47.5066 28.3988 39.1914 20.0841 39.1914 9.86275C39.1914 9.34925 38.7736 8.9314 38.2601 8.9314C37.7466 8.9314 37.3287 9.34925 37.3287 9.86275C37.3287 20.0836 29.014 28.3988 18.7927 28.3988C18.2792 28.3988 17.8613 28.8166 17.8613 29.3301C17.8613 29.8436 18.2792 30.2615 18.7927 30.2615C29.0135 30.2615 37.3287 38.5762 37.3287 48.7975C37.3287 49.311 37.7466 49.7289 38.2601 49.7289C38.7736 49.7289 39.1914 49.311 39.1914 48.7975C39.1914 38.5767 47.5061 30.2615 57.7274 30.2615C58.2409 30.2615 58.6588 29.8436 58.6588 29.3301C58.6588 28.8166 58.2409 28.3988 57.7274 28.3988ZM38.2605 42.7044C36.2664 36.3475 31.2439 31.3246 24.8937 29.331C31.2433 27.3369 36.2729 22.3138 38.267 15.9642C40.2541 22.3138 45.2765 27.3368 51.6339 29.331C45.277 31.3251 40.2546 36.3482 38.2605 42.7044Z" fill="black"/>
<path d="M29.3285 49.1266C25.6112 49.1266 22.5901 46.0982 22.5901 42.3881C22.5901 41.8746 22.1722 41.4568 21.6587 41.4568C21.1452 41.4568 20.7274 41.8746 20.7274 42.3881C20.7274 46.1054 17.6991 49.1266 13.989 49.1266C13.4755 49.1266 13.0576 49.5444 13.0576 50.0579C13.0576 50.5714 13.4755 50.9893 13.989 50.9893C17.7063 50.9893 20.7274 54.0176 20.7274 57.7277C20.7274 58.2412 21.1452 58.659 21.6587 58.659C22.1722 58.659 22.5901 58.2412 22.5901 57.7277C22.5901 54.0104 25.6184 50.9893 29.3285 50.9893C29.842 50.9893 30.2599 50.5714 30.2599 50.0579C30.2599 49.5444 29.842 49.1266 29.3285 49.1266ZM21.6593 53.8411C20.8307 52.2131 19.5035 50.8865 17.876 50.0579C19.504 49.2293 20.8306 47.9021 21.6593 46.2746C22.4878 47.9026 23.8151 49.2292 25.4426 50.0579C23.8146 50.8864 22.488 52.2137 21.6593 53.8411Z" fill="black"/>
<path d="M0.931358 13.9243C7.06826 13.9243 12.0687 18.9177 12.0687 25.0546C12.0687 25.5681 12.4865 25.9859 13 25.9859C13.5135 25.9859 13.9314 25.5681 13.9314 25.0546C13.9314 18.9177 18.9247 13.9243 25.0616 13.9243C25.5751 13.9243 25.993 13.5065 25.993 12.993C25.993 12.4795 25.5751 12.0616 25.0616 12.0616C18.9247 12.0616 13.9314 7.06826 13.9314 0.931357C13.9314 0.417856 13.5135 0 13 0C12.4865 0 12.0687 0.417856 12.0687 0.931357C12.0687 7.06826 7.07533 12.0616 0.931358 12.0616C0.417856 12.0616 0 12.4795 0 12.993C0 13.5065 0.417856 13.9243 0.931358 13.9243ZM12.9924 5.7564C14.3119 9.04148 16.9372 11.6733 20.2294 12.9934C16.9443 14.3129 14.3195 16.9382 12.9924 20.2304C11.6729 16.9453 9.04756 14.3135 5.75541 12.9934C9.04808 11.6733 11.6729 9.04855 12.9924 5.7564Z" fill="black"/>
<path d="M10.9841 31.0973C10.4706 31.0973 10.0527 31.5151 10.0527 32.0286V34.6314C10.0527 35.1449 10.4706 35.5628 10.9841 35.5628C11.4976 35.5628 11.9154 35.1449 11.9154 34.6314V32.0286C11.9154 31.5151 11.4976 31.0973 10.9841 31.0973Z" fill="black"/>
<path d="M10.9841 41.6844C11.4976 41.6844 11.9154 41.2665 11.9154 40.753V38.1645C11.9154 37.651 11.4976 37.2332 10.9841 37.2332C10.4706 37.2332 10.0527 37.651 10.0527 38.1645V40.753C10.0532 41.2665 10.4711 41.6844 10.9841 41.6844Z" fill="black"/>
<path d="M9.21617 35.4664H6.62765C6.11414 35.4664 5.69629 35.8843 5.69629 36.3978C5.69629 36.9113 6.11414 37.3291 6.62765 37.3291H9.21617C9.72967 37.3291 10.1475 36.9113 10.1475 36.3978C10.1475 35.8843 9.72967 35.4664 9.21617 35.4664Z" fill="black"/>
<path d="M12.7507 37.3296H15.3535C15.867 37.3296 16.2848 36.9118 16.2848 36.3983C16.2848 35.8848 15.867 35.4669 15.3535 35.4669H12.7507C12.2372 35.4669 11.8193 35.8848 11.8193 36.3983C11.8198 36.9113 12.2377 37.3296 12.7507 37.3296Z" fill="black"/>
<path d="M48.2976 43.5032C47.7841 43.5032 47.3662 43.921 47.3662 44.4345V47.0373C47.3662 47.5508 47.7841 47.9687 48.2976 47.9687C48.8111 47.9687 49.2289 47.5508 49.2289 47.0373V44.4345C49.2289 43.9215 48.8111 43.5032 48.2976 43.5032Z" fill="black"/>
<path d="M48.2976 49.6399C47.7841 49.6399 47.3662 50.0577 47.3662 50.5713V53.1598C47.3662 53.6733 47.7841 54.0911 48.2976 54.0911C48.8111 54.0911 49.2289 53.6733 49.2289 53.1598V50.5713C49.2289 50.0577 48.8111 49.6399 48.2976 49.6399Z" fill="black"/>
<path d="M46.5306 47.8723H43.9421C43.4286 47.8723 43.0107 48.2902 43.0107 48.8037C43.0107 49.3172 43.4286 49.735 43.9421 49.735H46.5306C47.0441 49.735 47.462 49.3172 47.462 48.8037C47.462 48.2902 47.0441 47.8723 46.5306 47.8723Z" fill="black"/>
<path d="M50.0642 49.7355H52.667C53.1805 49.7355 53.5983 49.3177 53.5983 48.8042C53.5983 48.2907 53.1805 47.8728 52.667 47.8728H50.0642C49.5507 47.8728 49.1328 48.2907 49.1328 48.8042C49.1333 49.3177 49.5512 49.7355 50.0642 49.7355Z" fill="black"/>
<path d="M48.2825 9.03399C48.796 9.03399 49.2138 8.61613 49.2138 8.10263L49.2133 5.49984C49.2133 4.98634 48.7954 4.56848 48.2819 4.56848C47.7684 4.56848 47.3506 4.98634 47.3506 5.49984V8.10263C47.3583 8.6233 47.769 9.03399 48.2825 9.03399H48.2825Z" fill="black"/>
<path d="M48.2829 10.7139C47.7694 10.7139 47.3516 11.1317 47.3516 11.6452V14.2337C47.3516 14.7472 47.7694 15.1651 48.2829 15.1651C48.7964 15.1651 49.2143 14.7472 49.2143 14.2337V11.6452C49.2138 11.1246 48.8031 10.7139 48.2829 10.7139Z" fill="black"/>
<path d="M43.9343 10.8016H46.5228C47.0363 10.8016 47.4542 10.3837 47.4542 9.8702C47.4542 9.3567 47.0363 8.93884 46.5228 8.93884H43.9343C43.4208 8.93884 43.0029 9.3567 43.0029 9.8702C43.0034 10.3909 43.4213 10.8016 43.9343 10.8016Z" fill="black"/>
<path d="M50.0564 10.8016H52.6592C53.1727 10.8016 53.5905 10.3837 53.5905 9.8702C53.5905 9.3567 53.1727 8.93884 52.6592 8.93884H50.0564C49.5429 8.93884 49.125 9.3567 49.125 9.8702C49.125 10.3909 49.5357 10.8016 50.0564 10.8016Z" fill="black"/>
</svg>
