<svg width="48" height="48" viewBox="0 0 48 48" fill="none" xmlns="http://www.w3.org/2000/svg">
<path d="M30.573 23.5264C34.2319 21.2928 36.7056 17.3 36.7056 12.706C36.7056 5.70083 31.0048 0 23.9998 0C16.9947 0 11.2939 5.70045 11.2939 12.706C11.2939 17.3 13.7671 21.2923 17.4265 23.5259C7.38328 26.3951 0 35.6362 0 46.5883V48H48V46.5883C47.9995 35.6356 40.6162 26.3948 30.5735 23.5259L30.573 23.5264ZM14.1171 12.706C14.1171 7.25682 18.5501 2.82382 23.9992 2.82382C29.4484 2.82382 33.8813 7.25682 33.8813 12.706C33.8813 18.1558 29.4484 22.5888 23.9992 22.5888C18.5501 22.5888 14.1171 18.1558 14.1171 12.706ZM2.87055 45.1771C3.59878 34.1568 12.798 25.4121 23.9991 25.4121C35.1998 25.4121 44.3991 34.1565 45.1277 45.1771H2.87055Z" fill="black"/>
</svg>
