<svg width="64" height="64" viewBox="0 0 64 64" fill="none" xmlns="http://www.w3.org/2000/svg">
<path d="M23.9137 20.0895C12.5754 20.0895 3.38379 29.281 3.38379 40.6194C3.38379 51.9577 12.5753 61.1494 23.9137 61.1494C35.252 61.1494 44.4437 51.9579 44.4437 40.6194C44.4437 29.2811 35.2516 20.0895 23.9137 20.0895ZM23.9137 22.6035C33.8639 22.6035 41.9298 30.6691 41.9298 40.6196C41.9298 50.57 33.8636 58.6356 23.9137 58.6356C13.9642 58.6356 5.89766 50.57 5.89766 40.6196C5.89766 30.6691 13.9639 22.6035 23.9137 22.6035Z" fill="black"/>
<path d="M43.1859 9.29641C54.5242 9.29641 63.7159 18.4879 63.7159 29.8264C63.7159 39.7672 56.6012 48.23 46.9373 50.0136C46.2546 50.1399 45.5987 49.6886 45.4725 49.0059C45.3468 48.3232 45.7981 47.668 46.4808 47.5417C54.9579 45.9764 61.2029 38.549 61.2029 29.8264C61.2029 19.8769 53.1367 11.8103 43.1869 11.8103C37.8619 11.8103 32.9163 14.1327 29.5133 18.095C29.0609 18.6217 28.2677 18.6819 27.7411 18.2295C27.2144 17.7776 27.1536 16.9839 27.606 16.4572C31.4819 11.9442 37.1207 9.29639 43.1861 9.29639L43.1859 9.29641Z" fill="black"/>
<path d="M25.3811 30.5803C29.1219 30.5803 31.5249 33.4455 31.5207 37.0269C31.5166 40.4896 29.2639 43.2852 25.7376 43.4618L25.3811 43.4706H22.9811L22.9823 50.2054H17.4434V30.5807L25.3811 30.5803ZM25.3811 32.5916L19.4536 32.5904V48.1929H20.9704L20.971 41.4593H25.3812C27.9157 41.4593 29.5066 39.5631 29.5096 37.0239C29.5125 34.5853 28.0495 32.7436 25.6817 32.5998L25.3811 32.5916ZM25.0847 34.0833C28.7011 34.0833 28.7916 39.7477 25.3559 40.0307L25.0847 40.0418H20.9709V34.0833L25.0847 34.0833ZM25.0847 36.0945L22.981 36.0933V38.0304H25.0847C26.055 38.0304 26.1094 36.3037 25.2466 36.112L25.0847 36.0945Z" fill="black"/>
<path d="M7.99033 16.7391C8.68415 16.7391 9.24703 17.3014 9.24703 17.9958C9.24703 18.6324 8.77415 19.1578 8.16101 19.2414L7.99033 19.2525H1.28892C0.59511 19.2525 0.0322266 18.6902 0.0322266 17.9958C0.0322266 17.3593 0.505103 16.8338 1.11825 16.7502L1.28892 16.7391H7.99033Z" fill="black"/>
<path d="M4.64009 13.3873C5.27604 13.3873 5.8021 13.8602 5.8851 14.4739L5.89679 14.6446V21.3454C5.89679 22.0398 5.33391 22.6027 4.6401 22.6027C4.00356 22.6027 3.47751 22.1298 3.3945 21.5161L3.38281 21.3454V14.6446C3.38281 13.9502 3.94569 13.3873 4.64009 13.3873Z" fill="black"/>
<path d="M63.1286 58.0488C63.6096 58.0488 64.0001 58.4387 64.0001 58.9203C64.0001 59.3482 63.6915 59.7042 63.2852 59.7778L63.1286 59.7918H56.4272C55.9461 59.7918 55.5557 59.4014 55.5557 58.9203C55.5557 58.4925 55.8643 58.1365 56.2705 58.0629L56.4272 58.0488H63.1286Z" fill="black"/>
<path d="M59.7772 54.3125C60.4137 54.3125 60.9398 54.7854 61.0228 55.3991L61.0345 55.5698V62.2706C61.0345 62.965 60.4716 63.5279 59.7772 63.5279C59.1413 63.5279 58.6152 63.055 58.5322 62.4413L58.5205 62.2706V55.5698C58.5205 54.8754 59.0834 54.3125 59.7772 54.3125Z" fill="black"/>
<path d="M27.2628 3.41431C27.9566 3.41431 28.5195 3.97661 28.5195 4.671C28.5195 5.30754 28.0466 5.83301 27.4329 5.9166L27.2628 5.9277H20.5614C19.867 5.9277 19.3047 5.3654 19.3047 4.67101C19.3047 4.03447 19.7776 3.509 20.3907 3.42541L20.5614 3.41431H27.2628Z" fill="black"/>
<path d="M23.9129 0.0634766C24.5495 0.0634766 25.0755 0.536353 25.1585 1.15008L25.1702 1.32076V8.02157C25.1702 8.71597 24.6073 9.27885 23.913 9.27885C23.277 9.27885 22.7509 8.80597 22.6679 8.19224L22.6562 8.02157V1.32076C22.6562 0.626359 23.2191 0.0634766 23.9129 0.0634766Z" fill="black"/>
</svg>
