<svg width="56" height="56" viewBox="0 0 56 56" fill="none" xmlns="http://www.w3.org/2000/svg">
<path d="M2.47845 51.8713H2.95953L3.69139 53.8425C4.16026 55.1007 5.37559 55.9463 6.7188 55.9463H49.0049C50.3471 55.9463 51.5629 55.1008 52.0309 53.8425L52.7632 51.8713H53.4331C54.7997 51.8713 55.9122 50.7594 55.9122 49.3918V47.9695C55.9122 46.6029 54.8003 45.4904 53.4331 45.4904H52.9555V33.1928C54.7739 32.1214 56 30.1454 56 27.8834V25.197C56 22.8579 54.0967 20.9556 51.7587 20.9556L30.645 20.9551V13.3125C32.3038 12.3894 33.4304 10.6184 33.4304 8.5862C33.4304 5.80323 29.056 0.787982 28.5567 0.225042C28.2918 -0.0755008 27.7756 -0.0745266 27.5102 0.225042C27.0115 0.788082 22.6369 5.80323 22.6369 8.5862C22.6369 10.6184 23.763 12.3889 25.4214 13.3125V20.9551H4.33271C1.99326 20.9551 0.0903604 22.8584 0.0903604 25.1965V27.8829C0.0903604 27.9263 0.0947518 27.9702 0.103046 28.0122C0.146957 30.1419 1.27743 32.0066 2.95771 33.0795V45.4898H2.47908C1.11251 45.4898 0 46.6017 0 47.9689V49.3912C0 50.7587 1.11144 51.8711 2.47808 51.8711L2.47845 51.8713ZM50.7199 53.3551C50.455 54.0684 49.7665 54.5475 49.0059 54.5475H6.7198C5.95866 54.5475 5.26979 54.0684 5.00487 53.3556L4.45354 51.8713H51.2723L50.7199 53.3551ZM24.0368 8.58594C24.0368 6.90074 26.5714 3.51424 28.0342 1.76259C29.4969 3.51324 32.0321 6.89924 32.0321 8.58594C32.0321 10.7942 30.2386 12.5916 28.0342 12.5916C25.8299 12.5921 24.0368 10.7941 24.0368 8.58594ZM26.8218 13.848C27.2121 13.9383 27.617 13.9905 28.0337 13.9905C28.4504 13.9905 28.8553 13.9378 29.2457 13.848V20.9544H26.8208V13.848H26.8218ZM1.50008 27.8834C1.50008 27.8414 1.49667 27.8014 1.48886 27.7619V25.197C1.48886 23.6294 2.76475 22.3545 4.33241 22.3545H51.7582C53.3259 22.3545 54.6008 23.6294 54.6008 25.197V27.8834C54.6008 30.5098 52.4697 32.6474 49.8501 32.6474C47.2305 32.6474 45.0994 30.5099 45.0994 27.8834C45.0994 27.4965 44.7867 27.1838 44.3997 27.1838C44.0128 27.1838 43.7001 27.4965 43.7001 27.8834C43.7001 30.5098 41.569 32.6474 38.9499 32.6474C36.3303 32.6474 34.1992 30.5099 34.1992 27.8834C34.1992 27.4965 33.8864 27.1838 33.4995 27.1838C33.1126 27.1838 32.7999 27.4965 32.7999 27.8834C32.7999 30.5098 30.6688 32.6474 28.0492 32.6474C25.4296 32.6474 23.2984 30.5099 23.2984 27.8834C23.2984 27.4965 22.9857 27.1838 22.5988 27.1838C22.2119 27.1838 21.8991 27.4965 21.8991 27.8834C21.8991 30.5098 19.768 32.6474 17.1484 32.6474C14.5288 32.6474 12.3977 30.5099 12.3977 27.8834C12.3977 27.4965 12.085 27.1838 11.6981 27.1838C11.3112 27.1838 10.9984 27.4965 10.9984 27.8834C10.9984 30.5098 8.86731 32.6474 6.24821 32.6474C3.63111 32.6464 1.49988 30.5099 1.49988 27.8834L1.50008 27.8834ZM4.35575 33.7426C4.95294 33.9373 5.58869 34.0461 6.25079 34.0461C8.61521 34.0461 10.6712 32.7019 11.7002 30.7372C12.7292 32.7024 14.7862 34.0461 17.1506 34.0461C19.515 34.0461 21.5719 32.7019 22.601 30.7362C23.63 32.7024 25.687 34.0461 28.0514 34.0461C30.4159 34.0461 32.4728 32.7019 33.5018 30.7362C34.5308 32.7024 36.5878 34.0461 38.9523 34.0461C41.3167 34.0461 43.3727 32.7019 44.4017 30.7372C45.4307 32.7024 47.4877 34.0461 49.8521 34.0461C50.4444 34.0461 51.0162 33.9573 51.5588 33.7992V45.4908H4.3565L4.35575 33.7426ZM1.39904 47.9691C1.39904 47.3734 1.88304 46.8894 2.47876 46.8894H53.4344C54.0301 46.8894 54.5141 47.3734 54.5141 47.9691V49.3914C54.5141 49.9871 54.0301 50.4721 53.4344 50.4721H2.47876C1.88304 50.4721 1.39904 49.9876 1.39904 49.3914V47.9691Z" fill="black"/>
</svg>
