<svg width="42" height="41" viewBox="0 0 42 41" fill="none" xmlns="http://www.w3.org/2000/svg">
<path d="M31.6997 41.0001C24.4503 41.0001 17.2009 41.0001 9.95151 41.0001C9.66908 40.9495 9.38542 40.9026 9.10423 40.8496C5.40059 40.1502 2.80941 38.0522 1.38123 34.5801C1.00877 33.6748 0.88914 32.6646 0.653577 31.7025C0.652344 24.4537 0.652344 17.2049 0.652344 9.95604C0.811441 9.20242 0.903939 8.42659 1.14074 7.69764C2.51341 3.45959 6.32804 0.675757 10.8025 0.663423C17.4858 0.644921 24.1691 0.653555 30.8537 0.660956C33.0157 0.663423 35.0038 1.26533 36.7501 2.54933C39.5904 4.63875 40.994 7.47439 40.9977 10.9958C41.0038 17.5083 41.0038 24.0208 40.9927 30.532C40.9915 31.1981 40.9607 31.8764 40.841 32.5302C40.1639 36.2588 38.0451 38.8576 34.5474 40.2822C33.6484 40.6473 32.6506 40.767 31.6997 41.0001ZM37.6122 20.8274C37.6171 20.8274 37.6221 20.8274 37.627 20.8274C37.627 17.5453 37.6221 14.2619 37.6307 10.9798C37.6332 9.92767 37.4926 8.90639 37.0215 7.96159C35.7216 5.35043 33.6015 4.03067 30.6835 4.0282C24.1173 4.02204 17.5524 4.0245 10.9863 4.03067C10.5423 4.03067 10.0933 4.06274 9.65428 4.12441C6.60184 4.55117 4.07108 7.31774 4.05012 10.4124C4.00448 17.2789 4.03162 24.1466 4.02792 31.013C4.02792 31.9455 4.21045 32.8459 4.62237 33.6785C5.91365 36.2921 8.03001 37.6242 10.9493 37.6291C17.5277 37.639 24.1075 37.6341 30.6859 37.6279C31.1299 37.6279 31.5776 37.5934 32.0179 37.5329C35.0124 37.1222 37.5604 34.3285 37.6011 31.3054C37.648 27.8135 37.6122 24.3205 37.6122 20.8274Z" fill="black"/>
<path d="M30.9101 20.8332C30.9039 26.3922 26.3444 30.9386 20.7994 30.9127C15.2421 30.8856 10.7343 26.3638 10.7393 20.8233C10.7454 15.2618 15.3013 10.7191 20.8487 10.745C26.406 10.7709 30.915 15.2914 30.9101 20.8332ZM20.829 14.1135C17.118 14.1085 14.1235 17.0934 14.1087 20.8134C14.0939 24.5199 17.0773 27.5196 20.7994 27.543C24.5166 27.5652 27.5444 24.5482 27.5395 20.8233C27.5345 17.1082 24.545 14.1184 20.829 14.1135Z" fill="black"/>
<path d="M31.7446 12.4115C30.3582 12.4066 29.2481 11.2989 29.2432 9.91361C29.2382 8.51971 30.3792 7.37252 31.7618 7.38362C33.1346 7.39473 34.262 8.51848 34.2743 9.89264C34.2891 11.2717 33.1396 12.4165 31.7446 12.4115Z" fill="black"/>
</svg>
