<svg width="51" height="52" viewBox="0 0 51 52" fill="none" xmlns="http://www.w3.org/2000/svg">
<path d="M7.50051 7.77138e-05C7.46826 -0.000336768 7.43601 0.000906704 7.40416 0.00380829C7.05875 0.0382126 6.76275 0.269508 6.63945 0.600287L5.12475 4.66828L0.873719 4.87305C0.492797 4.88921 0.162086 5.14621 0.0445008 5.51636C-0.073084 5.88694 0.0473589 6.29274 0.346626 6.53398L3.66722 9.26143L2.54572 13.4542C2.44896 13.8269 2.58696 14.2215 2.89235 14.4474C3.19816 14.6733 3.60848 14.6836 3.92449 14.4735L7.49363 12.0905L11.0497 14.4735C11.3661 14.6849 11.7773 14.6754 12.0835 14.449C12.3901 14.2231 12.5281 13.8273 12.4305 13.4542L11.309 9.26143L14.6296 6.53398C14.9289 6.29274 15.0493 5.88693 14.9317 5.51637C14.8141 5.14621 14.4834 4.88921 14.1025 4.87305L9.84949 4.66828L8.34577 0.600289C8.21186 0.24174 7.87665 0.00339657 7.50063 8.58097e-05L7.50051 7.77138e-05ZM25.5135 7.77138e-05C25.4804 -0.000336768 25.4477 0.000906704 25.4151 0.00380829C25.0705 0.0386265 24.7749 0.269921 24.6524 0.600287L23.1377 4.66828L18.8847 4.87305C18.5037 4.88921 18.173 5.14621 18.0555 5.51636C17.9379 5.88694 18.0587 6.29274 18.3576 6.53398L21.6802 9.26143L20.5566 13.4542C20.459 13.8273 20.597 14.2231 20.9036 14.449C21.2098 14.6754 21.621 14.6849 21.9374 14.4735L25.5062 12.0905L29.0627 14.4735C29.3787 14.6836 29.789 14.6733 30.0948 14.4474C30.4002 14.2215 30.5382 13.8268 30.4415 13.4542L29.32 9.26143L32.6421 6.53398C32.9418 6.29274 33.0622 5.8861 32.9442 5.51552C32.8263 5.14495 32.4947 4.88879 32.1134 4.87303L27.8624 4.66827L26.3582 0.600274C26.2247 0.241725 25.8891 0.00338159 25.5135 7.08323e-05L25.5135 7.77138e-05ZM43.5243 7.77138e-05C43.4921 -0.000336768 43.4598 0.000906704 43.4275 0.00380829C43.0834 0.0386265 42.7878 0.269921 42.6649 0.600287L41.1502 4.66828L36.8975 4.87305C36.5161 4.88921 36.1854 5.14621 36.0678 5.51636C35.9507 5.88694 36.0711 6.29274 36.3704 6.53398L39.691 9.26143L38.5691 13.4542C38.4719 13.8273 38.6099 14.2231 38.9161 14.449C39.2227 14.6754 39.6339 14.6849 39.9499 14.4735L43.517 12.0905L47.0752 14.4735C47.3916 14.6836 47.8019 14.6733 48.1073 14.4474C48.4131 14.2215 48.5511 13.8268 48.4544 13.4542L47.3324 9.26143L50.653 6.53398C50.9523 6.29274 51.0732 5.88692 50.9556 5.51636C50.838 5.1462 50.5073 4.88921 50.1263 4.87304L45.8733 4.66828L44.3709 0.600284C44.2374 0.240907 43.9009 0.00256443 43.5245 8.13569e-05L43.5243 7.77138e-05ZM7.49424 3.5566L8.35857 5.89238C8.48472 6.2414 8.80237 6.48016 9.16615 6.49964L11.6114 6.62648L9.70349 8.18466C9.42218 8.41885 9.30338 8.80145 9.40177 9.15834L10.0411 11.5757L7.98712 10.2012C7.68377 9.99853 7.29182 9.99853 6.98846 10.2012L4.93642 11.5757L5.58641 9.15834C5.68195 8.79855 5.55824 8.41554 5.27204 8.18466L3.36455 6.62648L5.81136 6.49964C6.17514 6.48016 6.49278 6.2414 6.61894 5.89238L7.49424 3.5566ZM25.5061 3.5566L26.3688 5.89238C26.4954 6.24182 26.8135 6.48057 27.178 6.49964L29.6233 6.62648L27.7158 8.18466C27.4337 8.41844 27.3145 8.80104 27.412 9.15834L28.0514 11.5757L25.9994 10.2012C25.696 9.99853 25.3041 9.99853 25.0007 10.2012L22.9467 11.5757L23.5987 9.15834C23.6939 8.79855 23.5701 8.41554 23.2844 8.18466L21.3764 6.62648L23.8217 6.49964C24.1863 6.48058 24.5047 6.24182 24.6309 5.89238L25.5061 3.5566ZM43.517 3.5566L44.3817 5.89238C44.5079 6.2414 44.8251 6.48016 45.1889 6.49964L47.6361 6.62648L45.7286 8.18466C45.4461 8.41844 45.3269 8.80104 45.4249 9.15834L46.0643 11.5757L44.0118 10.2012C43.7085 9.99853 43.3165 9.99853 43.0136 10.2012L40.9591 11.5757L41.6095 9.15834C41.705 8.79897 41.5821 8.41596 41.2968 8.18466L39.3893 6.62648L41.8345 6.49964C42.1983 6.48016 42.5159 6.2414 42.6421 5.89238L43.517 3.5566ZM26.4102 19.6891C25.9938 19.6634 25.5831 19.7086 25.1903 19.8342C24.2872 20.1223 23.7131 20.8576 23.7131 21.8562C23.7131 25.0247 23.4473 27.8852 21.9909 30.1348C20.6089 32.2695 18.9575 34.0739 16.2591 34.3637C15.7936 34.4147 15.4417 34.8151 15.4425 35.2905V51.075C15.4445 51.5853 15.8512 51.9981 16.3538 51.9998H40.13C41.5524 51.9998 42.8789 50.9813 42.8789 49.5264V47.9757C42.8789 47.6138 42.7969 47.3626 42.7969 47.3626L42.8789 47.3589C44.3013 47.3589 45.6193 46.3409 45.6193 44.8855V43.3369C45.6193 42.3441 45.0171 41.7878 45.0171 41.7878C45.0171 41.7878 45.6193 41.2199 45.6193 40.2376V38.6961C45.6193 37.7066 45.0298 37.1474 45.0298 37.1474C45.0298 37.1474 45.6193 36.5821 45.6193 35.5988V34.0482C45.6193 32.5928 44.3014 31.5744 42.8789 31.5744H30.9898V25.0771C30.9898 22.2999 29.3464 20.6087 27.6676 19.9703C27.2479 19.8107 26.8266 19.715 26.4102 19.6893L26.4102 19.6891ZM26.2906 21.5478C26.5107 21.5623 26.765 21.6117 27.0263 21.7111C28.072 22.1087 29.1608 23.2117 29.1608 25.077V32.4996C29.1592 33.0123 29.5667 33.4297 30.0721 33.4314H42.8789C43.4836 33.4314 43.7902 33.7891 43.7902 34.0482V35.5988C43.7902 35.8575 43.4836 36.2152 42.8789 36.2152H38.3009C37.0813 36.2152 37.0813 38.0722 38.3009 38.0722H42.8789C43.4836 38.0722 43.7902 38.4369 43.7902 38.696V40.2375C43.7902 40.4962 43.4836 40.861 42.8789 40.8614H38.3009C37.0813 40.8614 37.0813 42.7201 38.3009 42.7201H42.8789C43.4836 42.7201 43.7902 43.0778 43.7902 43.3368V44.8855C43.7902 45.1445 43.4836 45.5019 42.8789 45.5019H37.39C36.1704 45.5019 36.1704 47.3588 37.39 47.3588H40.13C40.7346 47.3593 41.0498 47.7166 41.0498 47.9756V49.5263C41.0498 49.7849 40.7346 50.1427 40.13 50.1427C32.5098 50.1427 24.8899 50.1414 17.2704 50.141L17.2721 36.0809C20.78 35.331 22.6144 32.546 23.5796 31.052C25.3655 28.2935 25.5426 25.1208 25.5426 21.8562C25.5426 21.7617 25.5255 21.6754 25.7655 21.595C25.886 21.5548 26.0705 21.5333 26.291 21.5478L26.2906 21.5478ZM6.29388 34.3569C6.05096 34.3577 5.81824 34.4568 5.64758 34.6317C5.47651 34.807 5.38137 35.0441 5.3826 35.2907V51.0752C5.38464 51.5851 5.79129 51.9979 6.29388 52H12.6936C12.9366 52.0012 13.1701 51.9047 13.3428 51.7314C13.5151 51.5577 13.6127 51.3219 13.6135 51.0752V35.2907C13.6151 35.0425 13.5188 34.8041 13.3456 34.6288C13.1729 34.453 12.9382 34.3552 12.6936 34.3569L6.29388 34.3569ZM7.21374 36.2156H11.7828V50.143H7.21374V36.2156Z" fill="black"/>
</svg>
