<svg width="29" height="29" viewBox="0 0 29 29" fill="none" xmlns="http://www.w3.org/2000/svg">
<path d="M13.5941 28.9997C13.0938 28.9997 12.6878 28.5946 12.6878 28.0935V27.3886C12.6878 27.1321 12.7967 26.8875 12.9868 26.7162C13.3783 26.3628 13.5941 25.886 13.5941 25.3751C13.5941 24.3755 12.7811 23.5626 11.7816 23.5626C10.7821 23.5626 9.9691 24.3755 9.9691 25.3751C9.9691 25.8862 10.1847 26.3628 10.5764 26.7154C10.7667 26.8867 10.8754 27.1313 10.8754 27.3878V28.0938C10.8754 28.5948 10.4694 29 9.96912 29C9.46885 29 9.06286 28.5948 9.06286 28.0938V27.7584C8.48291 27.0977 8.15661 26.2503 8.15661 25.3751C8.15661 23.3759 9.78243 21.7501 11.7816 21.7501C13.7808 21.7501 15.4067 23.3759 15.4067 25.3751C15.4067 26.2505 15.0804 27.0977 14.5004 27.7584V28.0938C14.5004 28.5948 14.0944 29 13.5941 29L13.5941 28.9997ZM21.2973 28.9997H13.5941C13.0938 28.9997 12.6878 28.5946 12.6878 28.0935C12.6878 27.5924 13.0938 27.1873 13.5941 27.1873H21.2973C21.5429 27.1873 21.7504 26.9797 21.7504 26.7341V19.0311C21.7504 18.5301 22.1556 18.1249 22.6567 18.1249H23.3616C23.6181 18.1249 23.8627 18.2337 24.034 18.4239C24.3874 18.8153 24.8642 19.0312 25.3752 19.0312C26.3747 19.0312 27.1877 18.2182 27.1877 17.2187C27.1877 16.2192 26.3747 15.4062 25.3752 15.4062C24.864 15.4062 24.3874 15.6218 24.0348 16.0135C23.8626 16.2038 23.6189 16.3125 23.3614 16.3125H22.6564C22.1553 16.3125 21.7501 15.9073 21.7501 15.4062V7.70321C21.7501 7.45764 21.5426 7.25009 21.297 7.25009H13.5938C13.0936 7.25009 12.6876 6.84411 12.6876 6.34386V5.63891C12.6876 5.38241 12.7964 5.13785 12.9876 4.9655C13.3782 4.61291 13.5938 4.13631 13.5938 3.62514C13.5938 2.62564 12.7809 1.81267 11.7813 1.81267C10.7818 1.81267 9.96882 2.62564 9.96882 3.62514C9.96882 4.13632 10.1845 4.61289 10.5751 4.9655C10.7662 5.13683 10.8751 5.38139 10.8751 5.63891V6.34386C10.8751 6.84411 10.4691 7.25009 9.96882 7.25009H2.26564C2.02006 7.25009 1.81251 7.45764 1.81251 7.70321V14.0883C2.35989 13.7675 2.98521 13.5935 3.62502 13.5935C5.62423 13.5935 7.25005 15.2193 7.25005 17.2185C7.25005 19.2176 5.62423 20.8434 3.62502 20.8434C2.98521 20.8434 2.35989 20.6694 1.81251 20.3494V26.734C1.81251 26.9796 2.02006 27.1871 2.26564 27.1871H9.96882C10.4691 27.1871 10.8751 27.5923 10.8751 28.0933C10.8751 28.5944 10.4691 28.9996 9.96882 28.9996H2.26564C1.01589 28.9996 0 27.9837 0 26.734V19.031C0 18.5299 0.405992 18.1247 0.906256 18.1247H1.61226C1.86876 18.1247 2.11333 18.2336 2.28568 18.4247C2.63827 18.8162 3.11405 19.031 3.62502 19.031C4.62455 19.031 5.43754 18.218 5.43754 17.2185C5.43754 16.219 4.62455 15.406 3.62502 15.406C3.11384 15.406 2.63803 15.6209 2.28568 16.0123C2.11353 16.2034 1.86876 16.3123 1.61226 16.3123H0.906256C0.405992 16.3123 0 15.9071 0 15.406V7.70301C0 6.45329 1.01589 5.43742 2.26564 5.43742H8.65086C8.33003 4.89006 8.15606 4.26475 8.15606 3.62495C8.15606 1.62579 9.78189 0 11.7811 0C13.7803 0 15.4061 1.62579 15.4061 3.62495C15.4061 4.26475 15.2321 4.89006 14.9121 5.43742H21.2968C22.5466 5.43742 23.5625 6.45329 23.5625 7.70301V14.0881C24.1098 13.7673 24.7352 13.5933 25.375 13.5933C27.3742 13.5933 29 15.2191 29 17.2183C29 19.2174 27.3742 20.8432 25.375 20.8432C24.7352 20.8432 24.1098 20.6692 23.5625 20.3484V26.7335C23.5625 27.9832 22.5466 28.9991 21.2968 28.9991L21.2973 28.9997Z" fill="black"/>
</svg>
