<?xml version="1.0" encoding="utf-8"?>
<!-- Generator: Adobe Illustrator 24.0.1, SVG Export Plug-In . SVG Version: 6.00 Build 0)  -->
<svg version="1.1" id="Layer_1" xmlns="http://www.w3.org/2000/svg" xmlns:xlink="http://www.w3.org/1999/xlink" x="0px" y="0px"
	 viewBox="0 0 386 147" style="enable-background:new 0 0 386 147;" xml:space="preserve">
<style type="text/css">
	.st0{opacity:0.9;fill:none;stroke:#000000;stroke-width:1.5;stroke-miterlimit:10;enable-background:new    ;}
	.st1{fill:#070707;stroke:#000000;stroke-miterlimit:10;}
</style>
<g>
	<g>
		<path d="M83.7,83c-0.3,0.5-3.1,4.6-9.8,4.6c-11.4,0-17-3.8-17-24.1c0-16.3-8-18-20.3-18h-9.5v40h10.3v0.6H6v-0.6h10.3V7.4H6V6.8
			h31.4c16.4,0,28,5.8,28,20.2c0,11.5-9.1,17.2-21.6,18.2c15.6,1.1,25.1,7.1,25.1,23.5c0,12.2,1.1,17.7,7.5,17.7
			c3.7,0,6.5-3.1,7-3.8L83.7,83z M39.1,45c12.1,0,14.8-8.8,14.8-18c0-10.6-2.6-19.6-16.4-19.6H27.1V45H39.1z"/>
		<path d="M132,56.6H94.6c0,1.1,0,2.3,0,3.3c0,11,3.5,26.7,17,26.7c9.6,0,16-5.8,18.2-11.4l0.7,0.3c-2.4,5.7-8.3,11.7-18.9,11.7
			c-15.8,0-27.4-11.3-27.4-27.3s10.9-27.3,25.2-27.3C120.9,32.6,132.5,40.8,132,56.6z M121.6,56.1c-0.1-11.2-3.2-23-12.1-23
			c-10.8,0-14.2,12.6-14.7,23H121.6z"/>
		<path d="M175.7,16.1c0,3.2-1.9,5.9-4.9,5.9c-2.2,0-3.8-1.1-3.8-3.6c0-2.8,2-3.6,2-6.7c0-2.8-2.3-5.3-6.3-5.3
			c-11.5,0-8.7,14.9-8.3,27.3H167v0.6h-12.5c0,0.8,0,1.6,0,2.4v48.9h8.6v0.6h-27v-0.6h8.7V36.7c0-0.8,0-1.6,0-2.4h-8.7v-0.6h8.7
			c0.6-21.2,7.5-27.8,17.9-27.8C171.1,5.8,175.7,11,175.7,16.1z"/>
		<path d="M216.6,39.2c0,2.5-1.1,4.6-4,4.6c-6.3,0-1.6-9.1-8.7-9.1c-7.6,0-12.7,15.7-12.7,26.5v24.2h8.7V86h-27.1v-0.6h8.6V34.1
			h-8.6v-0.6h17.9v24.9c0.8-10.8,5.1-25.9,16.9-25.9C213.2,32.6,216.6,35.5,216.6,39.2z"/>
		<path d="M265.5,56.6h-37.4c0,1.1,0,2.3,0,3.3c0,11,3.5,26.7,17,26.7c9.6,0,16-5.8,18.2-11.4l0.7,0.3c-2.4,5.7-8.3,11.7-18.9,11.7
			c-15.8,0-27.4-11.3-27.4-27.3s10.9-27.3,25.2-27.3C254.4,32.6,265.9,40.8,265.5,56.6z M255.1,56.1c-0.1-11.2-3.2-23-12.1-23
			c-10.8,0-14.2,12.6-14.7,23H255.1z"/>
		<path d="M311.3,71.4c0,8.9-7.6,15.8-20.4,15.8c-6.2,0-12.5-4.2-16-4.2c-2.2,0-2.8,1.9-3.3,3.6h-0.5V67.7h0.5
			c2.2,8.5,8.4,18.9,19.2,18.9c8.3,0,13-3.8,13-10.8s-8-8.4-17.1-12.3c-11.2-5.1-14.2-9.5-14.2-16.9c0-8.2,6.9-14,17.1-14
			c6.6,0,10.1,3.6,13,3.6c1.9,0,2.4-1.4,2.9-2.6h0.5v15.1h-0.5c-2.2-8.6-7.8-15.6-16-15.6c-7.8,0-10.9,4.8-10.9,9.3
			c0,4.8,1.9,7.1,12.8,11.3C307.9,60,311.3,64.5,311.3,71.4z"/>
		<path d="M376.2,85.5v0.6h-27.1v-0.6h8.7V51c0-5.7-0.2-17-9.1-17c-10.5,0-15.2,15.4-15.2,24.1v27.4h8.7v0.6h-27.1v-0.6h8.6V7.4
			h-8.6V6.8h18.3v45.3c1.5-8.7,6.2-19.5,17.5-19.5c8.8,0,16.4,4.3,16.4,19.9v32.9L376.2,85.5L376.2,85.5L376.2,85.5z"/>
	</g>
	<g>
		<path d="M160.4,135.9c-5.1,0-7.7-3-8.1-6.2h0.7c0.3,2.1,1.9,5.6,7.4,5.6c4.2,0,6.8-2.6,6.8-5.7c0-9-14.4-3.4-14.4-13.2
			c0-3.3,2.9-6.3,7.5-6.3c4.8,0,7.1,2.9,7.6,5.3h-0.7c-0.4-1.8-2.4-4.7-6.9-4.7c-3.6,0-6.7,2.2-6.7,5.7c0,9.1,14.4,3.6,14.4,13.2
			C167.9,132.6,165.4,135.9,160.4,135.9z"/>
		<path d="M172.7,109h0.7v16.1l8.8-8.9h1l-9.6,9.6l9.7,9.8h-1l-9-9.1v9.1h-0.7V109H172.7L172.7,109z"/>
		<path d="M186.4,110.3c0-0.6,0.4-1,0.9-1s0.9,0.4,0.9,1s-0.4,1-0.9,1S186.4,110.9,186.4,110.3z M186.9,116.2h0.7v19.4h-0.7V116.2z"
			/>
		<path d="M209.3,124.3c0-5.2-2.8-7.8-7.1-7.8c-4.4,0-7.6,2.8-7.6,8.9v10.3h-0.7v-19.4h0.7v5.1c0.9-3.8,4-5.6,7.6-5.6
			c4.2,0,7.8,2.5,7.8,8.5v11.3h-0.7V124.3z"/>
		<path d="M233.3,135.9c-5.1,0-7.7-3-8.1-6.2h0.7c0.3,2.1,1.9,5.6,7.4,5.6c4.2,0,6.8-2.6,6.8-5.7c0-9-14.4-3.4-14.4-13.2
			c0-3.3,2.9-6.3,7.5-6.3c4.8,0,7.1,2.9,7.6,5.3h-0.7c-0.4-1.8-2.4-4.7-6.9-4.7c-3.6,0-6.7,2.2-6.7,5.7c0,9.1,14.4,3.6,14.4,13.2
			C240.8,132.6,238.3,135.9,233.3,135.9z"/>
		<path d="M254.1,116c5,0,8.3,2.8,8.9,6.8h-0.7c-0.6-3.9-3.9-6.2-8.2-6.2c-4.5,0-8.6,2.9-8.6,9.3s4.2,9.3,8.6,9.3
			c4.3,0,7.6-2.3,8.2-6.2h0.7c-0.6,4-3.9,6.8-8.9,6.8c-5.4,0-9.4-3.7-9.4-10C244.7,119.5,248.7,116,254.1,116z"/>
		<path d="M267.7,110.3c0-0.6,0.4-1,0.9-1s0.9,0.4,0.9,1s-0.4,1-0.9,1S267.7,110.9,267.7,110.3z M268.2,116.2h0.7v19.4h-0.7V116.2z"
			/>
		<path d="M283.5,135.9c-5.4,0-9.4-3.7-9.4-10c0-6.3,4-10,9.4-10c5.9,0,8.9,4.3,8.9,8.4c0,0.9,0,1.3,0,1.9h-17.5
			c0.1,6.2,4.3,9,8.6,9s7.6-2.3,8.2-6.2h0.7C291.8,133.1,288.6,135.9,283.5,135.9z M274.9,125.6h16.9c0.4-6.3-4-9-8.3-9
			C279.1,116.6,274.9,119.4,274.9,125.6z"/>
		<path d="M313.2,124.3c0-5.2-2.8-7.8-7.1-7.8c-4.4,0-7.6,2.8-7.6,8.9v10.3h-0.7v-19.4h0.7v5.1c0.9-3.8,4-5.6,7.6-5.6
			c4.2,0,7.8,2.5,7.8,8.5v11.3h-0.7L313.2,124.3L313.2,124.3z"/>
		<path d="M328.2,116c5,0,8.3,2.8,8.9,6.8h-0.7c-0.6-3.9-3.9-6.2-8.2-6.2c-4.5,0-8.6,2.9-8.6,9.3s4.2,9.3,8.6,9.3
			c4.3,0,7.6-2.3,8.2-6.2h0.7c-0.6,4-3.9,6.8-8.9,6.8c-5.4,0-9.4-3.7-9.4-10C318.8,119.5,322.8,116,328.2,116z"/>
		<path d="M350.8,135.9c-5.4,0-9.4-3.7-9.4-10c0-6.3,4-10,9.4-10c5.9,0,8.9,4.3,8.9,8.4c0,0.9,0,1.3,0,1.9h-17.5
			c0.1,6.2,4.3,9,8.6,9s7.6-2.3,8.2-6.2h0.7C359.1,133.1,355.9,135.9,350.8,135.9z M342.2,125.6h16.9c0.4-6.3-4-9-8.3-9
			C346.4,116.6,342.2,119.4,342.2,125.6z"/>
	</g>
	<line class="st0" x1="21.2" y1="124.8" x2="139.5" y2="123.5"/>
	<g>
		<path class="st1" d="M160.4,135.9c-5.1,0-7.7-3-8.1-6.2h0.7c0.3,2.1,1.9,5.6,7.4,5.6c4.2,0,6.8-2.6,6.8-5.7
			c0-9-14.4-3.4-14.4-13.2c0-3.3,2.9-6.3,7.5-6.3c4.8,0,7.1,2.9,7.6,5.3h-0.7c-0.4-1.8-2.4-4.7-6.9-4.7c-3.6,0-6.7,2.2-6.7,5.7
			c0,9.1,14.4,3.6,14.4,13.2C167.9,132.6,165.4,135.9,160.4,135.9z"/>
		<path class="st1" d="M172.7,109h0.7v16.1l8.8-8.9h1l-9.6,9.6l9.7,9.8h-1l-9-9.1v9.1h-0.7V109H172.7L172.7,109z"/>
		<path class="st1" d="M186.4,110.3c0-0.6,0.4-1,0.9-1s0.9,0.4,0.9,1s-0.4,1-0.9,1S186.4,110.9,186.4,110.3z M186.9,116.2h0.7v19.4
			h-0.7V116.2z"/>
		<path class="st1" d="M209.3,124.3c0-5.2-2.8-7.8-7.1-7.8c-4.4,0-7.6,2.8-7.6,8.9v10.3h-0.7v-19.4h0.7v5.1c0.9-3.8,4-5.6,7.6-5.6
			c4.2,0,7.8,2.5,7.8,8.5v11.3h-0.7V124.3z"/>
		<path class="st1" d="M233.3,135.9c-5.1,0-7.7-3-8.1-6.2h0.7c0.3,2.1,1.9,5.6,7.4,5.6c4.2,0,6.8-2.6,6.8-5.7
			c0-9-14.4-3.4-14.4-13.2c0-3.3,2.9-6.3,7.5-6.3c4.8,0,7.1,2.9,7.6,5.3h-0.7c-0.4-1.8-2.4-4.7-6.9-4.7c-3.6,0-6.7,2.2-6.7,5.7
			c0,9.1,14.4,3.6,14.4,13.2C240.8,132.6,238.3,135.9,233.3,135.9z"/>
		<path class="st1" d="M254.1,116c5,0,8.3,2.8,8.9,6.8h-0.7c-0.6-3.9-3.9-6.2-8.2-6.2c-4.5,0-8.6,2.9-8.6,9.3s4.2,9.3,8.6,9.3
			c4.3,0,7.6-2.3,8.2-6.2h0.7c-0.6,4-3.9,6.8-8.9,6.8c-5.4,0-9.4-3.7-9.4-10C244.7,119.5,248.7,116,254.1,116z"/>
		<path class="st1" d="M267.7,110.3c0-0.6,0.4-1,0.9-1s0.9,0.4,0.9,1s-0.4,1-0.9,1S267.7,110.9,267.7,110.3z M268.2,116.2h0.7v19.4
			h-0.7V116.2z"/>
		<path class="st1" d="M283.5,135.9c-5.4,0-9.4-3.7-9.4-10c0-6.3,4-10,9.4-10c5.9,0,8.9,4.3,8.9,8.4c0,0.9,0,1.3,0,1.9h-17.5
			c0.1,6.2,4.3,9,8.6,9s7.6-2.3,8.2-6.2h0.7C291.8,133.1,288.6,135.9,283.5,135.9z M274.9,125.6h16.9c0.4-6.3-4-9-8.3-9
			C279.1,116.6,274.9,119.4,274.9,125.6z"/>
		<path class="st1" d="M313.2,124.3c0-5.2-2.8-7.8-7.1-7.8c-4.4,0-7.6,2.8-7.6,8.9v10.3h-0.7v-19.4h0.7v5.1c0.9-3.8,4-5.6,7.6-5.6
			c4.2,0,7.8,2.5,7.8,8.5v11.3h-0.7L313.2,124.3L313.2,124.3z"/>
		<path class="st1" d="M328.2,116c5,0,8.3,2.8,8.9,6.8h-0.7c-0.6-3.9-3.9-6.2-8.2-6.2c-4.5,0-8.6,2.9-8.6,9.3s4.2,9.3,8.6,9.3
			c4.3,0,7.6-2.3,8.2-6.2h0.7c-0.6,4-3.9,6.8-8.9,6.8c-5.4,0-9.4-3.7-9.4-10C318.8,119.5,322.8,116,328.2,116z"/>
		<path class="st1" d="M350.8,135.9c-5.4,0-9.4-3.7-9.4-10c0-6.3,4-10,9.4-10c5.9,0,8.9,4.3,8.9,8.4c0,0.9,0,1.3,0,1.9h-17.5
			c0.1,6.2,4.3,9,8.6,9s7.6-2.3,8.2-6.2h0.7C359.1,133.1,355.9,135.9,350.8,135.9z M342.2,125.6h16.9c0.4-6.3-4-9-8.3-9
			C346.4,116.6,342.2,119.4,342.2,125.6z"/>
	</g>
	<g>
		<path d="M369.6,11.8v1.1h-1.9v6.1h-1.4v-6.1h-1.9v-1.1H369.6z"/>
		<path d="M378.5,11.8v7.2h-1.4v-4.6l-1.9,4.6h-1.1l-1.9-4.6v4.6h-1.4v-7.2h1.6l2.2,5.4l2.2-5.4H378.5z"/>
	</g>
</g>
</svg>
