<svg width="67" height="78" viewBox="0 0 67 78" fill="none" xmlns="http://www.w3.org/2000/svg">
<path d="M34.5554 17.8739C37.29 16.6632 38.8481 16.9041 40.9574 18.864C42.0328 18.1875 43.2063 17.8754 44.5164 18.1004C46.5603 18.4503 48.2685 20.1183 48.3531 22.1435C48.4423 24.2877 48.2789 26.4421 48.3472 28.5893C48.3828 29.7332 48.6665 30.8714 48.8507 32.011C49.4835 35.9133 49.7836 39.8476 49.5103 43.7847C49.2652 47.3023 47.4664 50.0359 44.4317 51.9522C43.9415 52.2615 43.7157 52.5736 43.7514 53.1572C43.8064 54.0471 43.7663 54.9428 43.7663 55.962C44.3025 55.962 44.8075 55.9533 45.314 55.9634C46.3315 55.9837 46.9019 56.4875 46.9093 57.4732C46.9301 60.2766 46.9301 63.0799 46.9093 65.8832C46.9019 66.8312 46.5424 67.1404 45.1982 67.5106C45.1982 68.794 45.1982 70.0947 45.1982 71.397C45.1982 72.75 45.2115 74.1045 45.1922 75.4575C45.1789 76.497 44.5594 77.156 43.6638 77.1401C42.7889 77.1241 42.2081 76.497 42.2006 75.4764C42.1843 73.1086 42.1947 70.7393 42.1947 68.3715C42.1947 68.0841 42.1947 67.7981 42.1947 67.4613C36.7121 67.4613 31.2875 67.4613 25.796 67.4613C25.7841 67.7255 25.7619 67.981 25.7604 68.238C25.7574 70.6058 25.7604 72.975 25.7529 75.3428C25.7515 75.6549 25.7381 75.9758 25.6579 76.2763C25.49 76.9092 24.887 77.3201 24.2096 77.2911C23.516 77.262 23.0347 76.9151 22.8475 76.2647C22.7554 75.9467 22.7554 75.5954 22.7554 75.2601C22.748 72.7268 22.751 70.1935 22.751 67.6761C21.2344 67.2682 21.0279 66.9967 21.0264 65.4753C21.0264 62.9129 21.022 60.3521 21.0294 57.7897C21.0324 56.5398 21.5493 56.0433 22.8356 56.0215C23.2516 56.0142 23.6689 56.02 24.171 56.02C24.171 54.8804 24.1903 53.7989 24.1532 52.7202C24.1458 52.517 23.9437 52.2978 23.7878 52.1236C22.1925 50.3423 20.6105 48.5464 18.9796 46.7971C16.3772 44.0068 15.2468 40.7636 15.7206 37.0094C15.9835 34.9247 16.2658 32.8414 16.5688 30.7625C16.8302 28.9696 17.7868 27.5876 19.2469 26.4958C19.4742 26.326 19.6673 25.9689 19.6777 25.6901C19.7238 24.459 19.6911 23.2251 19.7 21.9925C19.7282 18.1628 23.2976 16.0331 26.7823 17.7636C26.87 17.8071 26.9606 17.842 27.0467 17.8797C29.3045 15.3377 32.5842 15.6208 34.5554 17.8739ZM40.8668 55.9286C40.8668 54.9806 40.8697 54.0907 40.8668 53.2007C40.8579 50.3394 40.7569 50.862 42.8884 49.5148C42.9508 49.4756 43.0146 49.4378 43.0755 49.3972C45.3526 47.8627 46.5796 45.7533 46.5736 43.04C46.5692 40.8899 46.4949 38.7384 46.3835 36.5913C46.3003 34.9842 46.1102 33.3829 45.9587 31.6786C44.2252 32.4654 42.6596 32.2041 41.1876 31.3069C39.3101 33.1536 37.2484 33.608 34.8807 32.2636C34.0919 33.5252 32.9348 34.2322 31.4702 34.5472C31.5801 34.6823 31.6381 34.7577 31.7004 34.8303C31.7807 34.9232 31.8653 35.0103 31.944 35.1033C33.6938 37.217 34.5791 39.6124 34.4038 42.3475C34.3444 43.2679 33.6834 43.866 32.8219 43.8283C32.0094 43.7934 31.4643 43.159 31.4034 42.2691C31.3514 41.5011 31.3142 40.7172 31.1271 39.9739C30.5077 37.5306 28.9866 35.7957 26.5937 34.6881C26.4942 35.2818 26.4838 35.8277 26.2981 36.3082C26.1451 36.7045 25.8614 37.1604 25.5034 37.352C24.4933 37.8921 23.3719 37.1647 23.4461 36.0179C23.5115 35.0089 23.7269 34.0101 23.871 33.0069C24.0433 31.8034 24.4978 31.4071 25.7322 31.4478C27.3631 31.5015 28.9911 31.6031 30.6221 31.6365C31.6737 31.6568 32.3718 30.9542 32.3733 29.9786C32.3748 29.0074 31.6796 28.2902 30.6592 28.2655C28.1385 28.2017 25.6178 28.1334 23.0971 28.1131C21.1453 28.0971 19.6747 29.4153 19.4207 31.3098C19.1935 33.0098 19.0019 34.7156 18.7107 36.4055C18.1492 39.6588 18.9959 42.452 21.3072 44.8735C22.9931 46.6388 24.5528 48.5189 26.2194 50.3031C26.8492 50.9781 27.1314 51.6909 27.0957 52.5925C27.0512 53.6929 27.0853 54.7948 27.0853 55.9257C31.7079 55.9286 36.2249 55.9286 40.8668 55.9286ZM24.0373 64.4387C30.674 64.4387 37.2335 64.4387 43.8064 64.4387C43.8064 62.5427 43.8064 60.7019 43.8064 58.8393C37.186 58.8393 30.625 58.8393 24.0373 58.8393C24.0373 60.7193 24.0373 62.5515 24.0373 64.4387ZM39.0249 25.0005C39.0249 23.9408 39.0353 22.8795 39.0219 21.8198C39.0071 20.7034 38.3149 19.9891 37.2766 19.992C36.2546 19.9935 35.5758 20.6685 35.5669 21.7617C35.5491 23.9306 35.5491 26.0995 35.5669 28.2684C35.5758 29.35 36.274 30.0323 37.29 30.0279C38.2911 30.0236 39.0011 29.3122 39.019 28.2554C39.0383 27.1695 39.0234 26.085 39.0249 25.0005ZM45.522 25.0223C45.522 24.2253 45.5413 23.4269 45.5175 22.6298C45.4863 21.586 44.8164 20.9052 43.8346 20.8761C42.8156 20.8456 42.0625 21.5076 42.0343 22.5819C41.9912 24.1992 41.9912 25.8193 42.0358 27.438C42.064 28.4543 42.8364 29.1496 43.7841 29.1409C44.76 29.1322 45.4893 28.3904 45.519 27.3408C45.5383 26.5699 45.522 25.7961 45.522 25.0223ZM29.0772 25.3054C30.2804 25.423 31.3915 25.5304 32.5233 25.6408C32.5233 23.9277 32.5694 22.1725 32.504 20.4217C32.4699 19.5028 31.6603 18.9047 30.7379 18.9337C29.8422 18.9613 29.1144 19.5783 29.0891 20.4696C29.0446 22.0782 29.0772 23.6882 29.0772 25.3054ZM26.0797 25.2633C26.0797 24.0206 26.1139 22.8186 26.0678 21.618C26.0337 20.7135 25.3385 20.0588 24.4829 19.9978C23.5828 19.9339 22.7376 20.4566 22.6678 21.332C22.5653 22.6124 22.6411 23.9074 22.6411 25.2633C23.7863 25.2633 24.887 25.2633 26.0797 25.2633Z" fill="#222222"/>
<path d="M9.71708 61.4446C9.71708 61.6957 9.71708 61.9469 9.71708 62.198C9.71708 66.4996 9.71708 70.8011 9.7156 75.1026C9.7156 76.4644 9.1868 77.1641 8.18416 77.1394C7.21568 77.1162 6.71362 76.4252 6.71362 75.107C6.71214 70.8055 6.71362 66.5039 6.71362 62.2024C6.71362 61.9498 6.71362 61.6972 6.71362 61.4446C6.65718 61.4214 6.60073 61.3967 6.5428 61.3734C5.83873 62.0717 5.14208 62.7744 4.43058 63.464C3.64481 64.2261 2.79962 64.2886 2.15496 63.6512C1.52962 63.0328 1.60686 62.1748 2.37332 61.4199C3.87207 59.9464 5.3738 58.4743 6.88296 57.0109C7.78607 56.1355 8.63572 56.1254 9.53289 56.9805C11.0896 58.4656 12.6388 59.958 14.1836 61.4562C14.9471 62.1966 15.011 63.0212 14.3827 63.6237C13.7276 64.2523 12.8082 64.2203 12.0714 63.5133C11.3391 62.8092 10.6306 62.0819 9.91167 61.3647C9.84482 61.3923 9.78095 61.4185 9.71708 61.4446Z" fill="#222222"/>
<path d="M57.7993 61.3457C57.0953 62.0541 56.4001 62.7713 55.6827 63.4667C54.8924 64.2347 54.0577 64.2898 53.41 63.6481C52.755 63.0007 52.8233 62.2167 53.6224 61.4299C55.1197 59.9564 56.6214 58.4872 58.1306 57.0238C59.0604 56.1223 59.8848 56.1281 60.8281 57.0296C62.3461 58.4828 63.8627 59.9375 65.3748 61.3965C66.1457 62.1398 66.2468 63.0413 65.6422 63.6264C64.9782 64.268 64.0395 64.2216 63.27 63.4768C62.5511 62.78 61.8574 62.0599 60.9617 61.3965C60.9617 61.6375 60.9617 61.8799 60.9617 62.1209C60.9617 66.4442 60.9617 70.769 60.9603 75.0923C60.9603 75.3332 60.9736 75.5771 60.9469 75.8167C60.8607 76.589 60.2146 77.1508 59.4452 77.1392C58.6668 77.1276 58.0563 76.56 57.9895 75.7746C57.9716 75.5583 57.9806 75.3405 57.9806 75.1227C57.9806 70.8227 57.9806 66.5226 57.9806 62.224C57.9806 61.9641 57.9806 61.7043 57.9806 61.4459C57.9226 61.411 57.8602 61.3776 57.7993 61.3457Z" fill="#222222"/>
<path d="M4.08216 33.865C3.26816 33.8635 2.45269 33.8853 1.64018 33.8592C0.619715 33.8243 -0.0160317 33.2277 0.000307587 32.3682C0.0166469 31.5451 0.649423 30.947 1.62384 30.9296C3.30084 30.902 4.97933 30.902 6.65782 30.9281C7.66789 30.9441 8.31552 31.5712 8.29769 32.4249C8.27987 33.2553 7.66046 33.804 6.67416 33.8621C6.62514 33.865 6.57613 33.865 6.52562 33.865C5.71014 33.865 4.89615 33.865 4.08216 33.865Z" fill="#222222"/>
<path d="M62.264 33.86C61.4248 33.86 60.5855 33.8847 59.7478 33.8542C58.7704 33.8194 58.1495 33.2329 58.1465 32.4025C58.1421 31.5779 58.7704 30.9507 59.7359 30.9333C61.4381 30.9014 63.1419 30.9014 64.8427 30.9319C65.8126 30.9493 66.4409 31.5648 66.4439 32.3909C66.4469 33.2213 65.8275 33.8179 64.8545 33.8542C63.9915 33.8862 63.127 33.86 62.264 33.86Z" fill="#222222"/>
<path d="M31.7335 4.02427C31.7335 3.20403 31.7216 2.38379 31.7365 1.56501C31.7528 0.635888 32.3588 0.00582958 33.2129 2.25927e-05C34.07 -0.00433265 34.6968 0.621371 34.7058 1.54613C34.7221 3.18516 34.7206 4.82563 34.7058 6.46466C34.6968 7.4112 34.1042 8.00932 33.2248 8.01222C32.3351 8.01512 31.7483 7.42281 31.7335 6.48353C31.7231 5.66329 31.732 4.84305 31.7335 4.02427Z" fill="#222222"/>
<path d="M10.1383 20.9317C10.0016 20.8809 9.68819 20.8054 9.41785 20.6544C8.02604 19.8777 6.64166 19.088 5.26173 18.291C4.35267 17.7654 4.09273 16.9409 4.57251 16.1671C5.02704 15.4339 5.86034 15.2844 6.77237 15.7969C8.20429 16.6026 9.6362 17.4083 11.0518 18.2402C11.7172 18.6307 11.9534 19.2651 11.7484 19.9068C11.5345 20.5804 11.034 20.939 10.1383 20.9317Z" fill="#222222"/>
<path d="M56.1876 43.7856C56.4015 43.8742 56.7313 43.9744 57.0239 44.137C58.3934 44.9006 59.7555 45.6758 61.1147 46.4583C62.0341 46.9867 62.3134 47.7997 61.8648 48.5735C61.4162 49.3458 60.5577 49.5055 59.6204 48.9756C58.2122 48.1801 56.8041 47.386 55.4108 46.5672C54.7245 46.1636 54.4854 45.5176 54.6918 44.8382C54.8939 44.1718 55.3989 43.8931 56.1876 43.7856Z" fill="#222222"/>
<path d="M46.4244 11.5721C45.297 11.4226 44.5602 10.3425 45.0697 9.44534C45.9773 7.84841 46.9546 6.28633 47.9469 4.73587C48.3732 4.06951 49.1946 3.9287 49.8304 4.30905C50.4572 4.6836 50.7454 5.48497 50.3755 6.1368C49.4679 7.73518 48.5351 9.32194 47.5399 10.8695C47.3245 11.2005 46.8046 11.3428 46.4244 11.5721Z" fill="#222222"/>
<path d="M56.1084 20.9321C55.3583 20.906 54.9275 20.5648 54.7092 19.9551C54.4849 19.3323 54.6334 18.7269 55.1711 18.409C56.814 17.4377 58.4939 16.5217 60.1917 15.6463C60.7651 15.3501 61.5108 15.684 61.8583 16.227C62.2148 16.7845 62.1658 17.6337 61.5806 17.9938C59.9555 18.9926 58.2756 19.9086 56.609 20.8406C56.4515 20.9306 56.2272 20.9118 56.1084 20.9321Z" fill="#222222"/>
<path d="M11.9173 45.305C11.5994 45.726 11.3691 46.2777 10.9503 46.5434C9.54508 47.4304 8.08049 48.2317 6.61887 49.0317C5.77665 49.4933 4.94037 49.3089 4.53783 48.6426C4.10113 47.9182 4.3581 47.0326 5.20032 46.5405C6.61589 45.7115 8.03741 44.8913 9.47973 44.1059C10.6012 43.4947 11.7271 44.0493 11.9173 45.305Z" fill="#222222"/>
<path d="M15.9648 5.79247C16.0317 5.00708 16.2916 4.49026 16.9749 4.28991C17.6404 4.09538 18.2375 4.2783 18.591 4.84593C19.5387 6.36591 20.4596 7.90331 21.3375 9.46104C21.7073 10.1158 21.3716 11.0159 20.7478 11.3483C20.0556 11.7171 19.1985 11.4935 18.7692 10.7879C17.9003 9.36232 17.0477 7.92509 16.207 6.4835C16.0673 6.24106 16.0183 5.94781 15.9648 5.79247Z" fill="#222222"/>
</svg>
