<svg width="33" height="31" viewBox="0 0 33 31" fill="none" xmlns="http://www.w3.org/2000/svg">
<path d="M30.5587 12.6455L29.1804 11.7573L27.5475 7.29608C27.3566 6.78328 27.0133 6.34133 26.5638 6.02944C26.1141 5.7178 25.5799 5.55104 25.0327 5.55218H20.5747V2.25031C20.574 1.6537 20.3367 1.08188 19.9148 0.660175C19.4931 0.23827 18.9211 0.000874791 18.3246 0H2.25008C1.65365 0.000911182 1.08165 0.238287 0.659942 0.660175C0.238036 1.08185 0.000641513 1.65365 0 2.25031V24.9645C0.000683445 25.4459 0.192273 25.9072 0.532619 26.2476C0.872966 26.5879 1.33451 26.7795 1.81565 26.7804H4.00058C4.2006 27.9748 4.95673 29.0029 6.03744 29.5497C7.11816 30.0964 8.3946 30.0964 9.47531 29.5497C10.556 29.0029 11.3121 27.9748 11.5122 26.7804H20.4963C20.6642 27.983 21.405 29.0293 22.4835 29.5873C23.5621 30.1452 24.8442 30.1452 25.9227 29.5873C27.0012 29.0294 27.742 27.983 27.9099 26.7804H30.196C30.6762 26.7777 31.1359 26.5854 31.4749 26.2453C31.8139 25.9052 32.0046 25.4447 32.0052 24.9645V15.294C32.0071 14.2219 31.4615 13.2232 30.5586 12.6453L30.5587 12.6455ZM25.0327 7.1851C25.2459 7.18396 25.4544 7.24843 25.6298 7.37008C25.805 7.4915 25.9387 7.66419 26.0125 7.8642L27.7466 12.5835C27.8085 12.7505 27.9234 12.8924 28.0733 12.9886L29.6834 14.024V14.0237C30.1146 14.3035 30.3741 14.7835 30.3723 15.2974V19.2689H20.5746V7.1851H25.0327ZM2.24967 1.63292H18.3242C18.6644 1.63474 18.9398 1.91016 18.9414 2.25029V19.269H1.63218V2.25029C1.63378 1.91017 1.9092 1.63473 2.24932 1.63292H2.24967ZM7.75928 28.3677C7.18064 28.3677 6.62566 28.1378 6.21655 27.7287C5.80744 27.3195 5.57755 26.7646 5.57755 26.186C5.57755 25.6075 5.80741 25.0526 6.21655 24.6435C6.6257 24.2344 7.18063 24.0045 7.75928 24.0045C8.33792 24.0045 8.89289 24.2343 9.302 24.6435C9.71092 25.0526 9.94077 25.6075 9.94077 26.186C9.94009 26.7644 9.70977 27.3189 9.30083 27.7278C8.89191 28.1367 8.33763 28.3668 7.75922 28.3677L7.75928 28.3677ZM24.1995 28.3677C23.6384 28.3677 23.1001 28.1447 22.7033 27.7478C22.3062 27.351 22.0834 26.8127 22.0834 26.2513C22.0834 25.69 22.3062 25.1519 22.7033 24.7549C23.1001 24.358 23.6384 24.135 24.1995 24.135C24.7608 24.135 25.2991 24.358 25.696 24.7549C26.0928 25.1519 26.3159 25.69 26.3159 26.2513C26.3149 26.8117 26.0922 27.3491 25.6962 27.7458C25.3003 28.1424 24.7633 28.3659 24.2029 28.3677H24.1995ZM30.1895 25.1476H27.7856C27.4687 24.1197 26.7254 23.2775 25.7451 22.8351C24.7647 22.3927 23.6413 22.3927 22.661 22.8351C21.6806 23.2775 20.9374 24.1197 20.6203 25.1476H11.4304C11.1285 24.0744 10.3718 23.1873 9.35956 22.7203C8.34743 22.2533 7.18121 22.2533 6.16908 22.7203C5.15672 23.1873 4.3999 24.0744 4.09828 25.1476H1.81222C1.71244 25.1458 1.6327 25.0644 1.6327 24.9647V20.9019H30.3725V24.9647C30.3725 25.0132 30.3534 25.0596 30.319 25.0938C30.2848 25.1282 30.2383 25.1476 30.1898 25.1476L30.1895 25.1476Z" fill="white"/>
<path d="M6.1723 15.5289C6.53042 15.8016 7.04161 15.7331 7.31524 15.3754L14.2587 6.29973C14.5292 5.93888 14.456 5.42722 14.0954 5.15656C13.7346 4.88592 13.2229 4.95905 12.9522 5.3199L6.01864 14.3699C5.88241 14.5428 5.82204 14.7636 5.85074 14.982C5.87968 15.2003 5.99563 15.3975 6.17218 15.5292L6.1723 15.5289Z" fill="white"/>
<path d="M11.1035 13.0639V13.7172C11.1035 14.6506 11.6015 15.5131 12.4098 15.9798C13.2182 16.4466 14.2142 16.4466 15.0225 15.9798C15.831 15.5131 16.329 14.6506 16.329 13.7172V13.0639C16.329 12.1305 15.831 11.268 15.0225 10.8013C14.2143 10.3345 13.2182 10.3345 12.4098 10.8013C11.6015 11.268 11.1035 12.1305 11.1035 13.0639V13.0639ZM14.6961 13.0639V13.7172C14.6961 14.0671 14.5093 14.3906 14.2061 14.5656C13.9031 14.7406 13.5295 14.7406 13.2263 14.5656C12.9233 14.3906 12.7365 14.0671 12.7365 13.7172V13.0639C12.7365 12.714 12.9233 12.3905 13.2263 12.2155C13.5295 12.0405 13.9031 12.0405 14.2061 12.2155C14.5093 12.3905 14.6961 12.714 14.6961 13.0639Z" fill="white"/>
<path d="M6.53165 10.1247C7.22443 10.1247 7.88892 9.84948 8.37898 9.35947C8.86904 8.86946 9.14419 8.20493 9.14419 7.51192V6.8588C9.14419 5.92545 8.64619 5.06274 7.83795 4.59618C7.0297 4.1294 6.03366 4.1294 5.22518 4.59618C4.41693 5.06274 3.91895 5.92545 3.91895 6.8588V7.51192C3.91895 8.20493 4.19414 8.86942 4.68415 9.35947C5.17416 9.84953 5.8387 10.1247 6.53171 10.1247H6.53165ZM5.55183 6.8588C5.55183 6.50865 5.73863 6.18538 6.04162 6.01019C6.34483 5.83523 6.71824 5.83523 7.02144 6.01019C7.32466 6.18538 7.51123 6.50864 7.51123 6.8588V7.51192C7.51123 7.86206 7.32466 8.18556 7.02144 8.36052C6.71823 8.53548 6.34482 8.53548 6.04162 8.36052C5.73863 8.18556 5.55183 7.86207 5.55183 7.51192V6.8588Z" fill="white"/>
</svg>
