<svg width="26" height="29" viewBox="0 0 26 29" fill="none" xmlns="http://www.w3.org/2000/svg">
<path d="M12.4087 0.00313508C12.3196 0.0156862 12.233 0.0414261 12.1513 0.0792902L0.562461 4.9589C0.396743 5.02804 0.255068 5.1444 0.155082 5.29352C0.0551011 5.44265 0.00127978 5.61794 0 5.79748C0 15.9464 4.89127 24.6565 12.0653 28.5558C12.3387 28.7049 12.6688 28.7049 12.9422 28.5558C20.1161 24.6567 25.0076 15.9464 25.0076 5.79748C25.0063 5.61794 24.9525 5.44265 24.8525 5.29352C24.7525 5.1444 24.6108 5.02804 24.4451 4.9589L12.8563 0.0792902C12.7157 0.0167497 12.5617 -0.00963005 12.4083 0.00313508H12.4087ZM12.504 1.90919L23.1398 6.38842C22.9541 15.4607 18.6029 23.1062 12.504 26.6689C6.40515 23.1065 2.0539 15.4613 1.8682 6.38842L12.504 1.90919ZM12.4944 5.16844C12.2502 5.17099 12.0171 5.27119 11.8468 5.44669C11.6769 5.62198 11.5839 5.85811 11.589 6.10254V6.78861C10.7428 6.93731 10.0318 7.29597 9.52106 7.81799C8.83499 8.51914 8.53933 9.45921 8.53933 10.372C8.53933 11.8681 9.5564 12.9088 10.4264 13.5646C11.2963 14.2205 12.1608 14.5653 12.1608 14.5653C12.1608 14.5653 12.8211 14.8436 13.4761 15.3373C14.1309 15.8311 14.6387 16.4663 14.6387 17.0813C14.6387 17.6061 14.4768 18.0371 14.1718 18.3489C13.8667 18.6608 13.3847 18.9111 12.504 18.9111C10.674 18.9111 10.0069 17.0623 10.0069 17.0623C9.8929 16.7558 9.62402 16.5335 9.30174 16.479C8.97924 16.4245 8.65226 16.5464 8.44401 16.7983C8.23554 17.0504 8.17747 17.3944 8.29149 17.7007C8.29149 17.7007 9.21941 20.1264 11.589 20.6457V21.3509C11.5856 21.5957 11.6805 21.8319 11.8524 22.0061C12.0243 22.1805 12.2591 22.2788 12.504 22.2788C12.7488 22.2788 12.9837 22.1805 13.1556 22.0061C13.3275 21.8319 13.4223 21.5957 13.4189 21.3509V20.6646C14.2652 20.5134 14.9761 20.1479 15.4869 19.6259C16.173 18.9247 16.4686 17.9942 16.4686 17.0812C16.4686 15.585 15.4515 14.5348 14.5815 13.8792C13.7116 13.2233 12.8471 12.8785 12.8471 12.8785C12.8471 12.8785 12.1868 12.6002 11.5318 12.1065C10.8771 11.6127 10.3692 10.9871 10.3692 10.3718C10.3692 9.84726 10.5311 9.40667 10.8362 9.09484C11.1412 8.78301 11.6233 8.5422 12.504 8.5422C14.3339 8.5422 15.001 10.3814 15.001 10.3814C15.0857 10.6088 15.2571 10.7935 15.478 10.8945C15.6986 10.9956 15.9504 11.0047 16.178 10.9201C16.4054 10.8354 16.5899 10.6637 16.6909 10.4429C16.792 10.2223 16.8011 9.97044 16.7164 9.74285C16.7164 9.74285 15.7885 7.33473 13.4189 6.81716V6.10239C13.424 5.85477 13.3285 5.61566 13.1543 5.43973C12.9803 5.26359 12.742 5.16574 12.4944 5.16829L12.4944 5.16844Z" fill="white"/>
</svg>
