<svg width="28" height="29" viewBox="0 0 28 29" fill="none" xmlns="http://www.w3.org/2000/svg">
<path d="M26.7979 3.14043C26.4839 2.93096 26.1698 2.82639 25.8558 2.93096C25.7512 2.93096 17.7951 5.23384 14.4458 0.418619C14.2363 0.209153 13.9223 0 13.6083 0C13.2942 0 12.9802 0.209467 12.7707 0.418619C9.42113 5.12926 1.36075 3.03554 1.36075 3.03554C1.0467 2.93096 0.732662 3.03554 0.418619 3.245C0.104576 3.34958 0 3.66362 0 3.97767C0 26.7984 12.9802 28.2642 13.5038 28.2642H13.6084H13.713C14.2365 28.2642 27.2168 26.9031 27.2168 3.97767C27.2168 3.66362 27.1123 3.34958 26.7982 3.14043H26.7979ZM13.6081 26.17C12.5614 26.0654 2.51219 24.0763 2.09294 5.33873C4.60528 5.75735 10.1536 6.28086 13.6081 2.72181C17.0626 6.28086 22.6109 5.86224 25.1233 5.33873C24.7043 24.1813 14.7599 26.0656 13.6081 26.17Z" fill="white"/>
<path d="M18.5286 9.31592L11.5148 16.3297L8.79327 13.6079C8.37466 13.1893 7.74657 13.1893 7.32764 13.6079C6.90902 14.0266 6.90902 14.6546 7.32764 15.0736L10.7821 18.528C10.9916 18.7375 11.3056 18.8421 11.5148 18.8421C11.7242 18.8421 12.0383 18.7375 12.2474 18.528L19.9939 10.7816C20.4125 10.3629 20.4125 9.73485 19.9939 9.31592C19.5753 8.8973 18.9472 8.8973 18.5286 9.31592Z" fill="white"/>
</svg>
