<svg width="110" height="110" viewBox="0 0 110 110" fill="none" xmlns="http://www.w3.org/2000/svg">
<mask id="path-1-outside-1_989_4767" maskUnits="userSpaceOnUse" x="19.7129" y="18.1428" width="70" height="76" fill="black">
<rect fill="white" x="19.7129" y="18.1428" width="70" height="76"/>
<path d="M69.9376 79.125C68.6305 81.6046 67.4326 84.2664 65.8737 86.6904C64.8486 88.2837 63.4293 89.6887 61.9614 90.8899C59.7596 92.6902 57.1696 93.0792 54.4006 92.3474C53.8699 92.2085 53.1451 92.3412 52.6538 92.6191C50.2336 93.9902 47.2463 93.598 45.4751 91.5785C43.6585 89.5096 43.5432 86.5452 45.2901 84.2509C45.7663 83.6272 45.8269 83.1887 45.4842 82.5032C44.8989 81.3267 44.4319 80.0946 43.9132 78.8811C41.9207 79.0632 39.9706 79.4214 38.0327 79.372C35.84 79.3165 33.5896 79.159 31.4818 78.5877C25.8621 77.0715 23.3994 72.52 24.8612 66.7827C25.7498 63.2964 27.5635 60.3042 29.6925 57.4881C30.0867 56.9662 30.478 56.4474 30.8571 55.9441C29.7653 54.3662 28.7584 52.8408 27.6575 51.3833C27.4088 51.056 26.8477 50.8398 26.414 50.8089C23.542 50.6051 21.4675 49.0056 20.8731 46.4642C20.2575 43.8334 21.4433 41.3599 23.9605 39.9302C24.3244 39.7234 24.7581 39.4084 24.8885 39.044C26.3776 34.8692 29.7258 33.2141 33.6351 32.791C36.5496 32.473 39.5369 32.7663 42.4848 32.9392C43.4796 32.9979 43.9951 32.9176 44.3773 31.8616C45.6996 28.2302 47.4677 24.8613 50.2548 22.1347C54.3127 18.1636 59.3623 18.1389 63.4232 22.1007C66.2892 24.8952 68.024 28.3969 69.4433 32.0962C69.5525 32.3803 69.6859 32.6521 69.8042 32.9269C72.282 32.7601 74.7295 32.6243 77.1709 32.4019C77.459 32.3772 77.7622 31.9326 77.9685 31.6207C79.7184 28.9774 82.5086 28.082 85.1865 29.3233C87.731 30.5029 88.8835 33.2573 88.1435 36.2834C88.0434 36.6879 87.9949 37.2191 88.1678 37.5587C89.7236 40.5725 89.5689 43.7067 88.2709 46.6156C86.8091 49.8918 84.8651 52.9458 83.2637 55.8546C84.9348 58.9301 87.0456 61.9902 88.3406 65.3746C91.055 72.4767 87.5673 78.2233 80.1278 79.0632C76.7705 79.44 73.3374 79.125 69.9376 79.125ZM42.0875 55.9101C42.227 58.3805 42.315 60.8384 42.5394 63.2841C42.5909 63.843 42.97 64.5841 43.4219 64.8589C47.5587 67.3755 51.7288 69.8304 55.9322 72.2266C56.3993 72.4953 57.2606 72.5262 57.7155 72.2637C61.922 69.8706 66.0981 67.4218 70.2227 64.8898C70.7383 64.5717 71.1902 63.6793 71.1993 63.0463C71.2812 58.2909 71.2872 53.5325 71.1932 48.7771C71.1811 48.1101 70.6534 47.1868 70.0923 46.8441C66.0526 44.3645 61.9584 41.9744 57.8338 39.6431C57.3334 39.359 56.4174 39.3405 55.9231 39.6184C51.7136 42.0022 47.5405 44.4602 43.4037 46.9737C42.9519 47.2486 42.5849 47.9989 42.5364 48.5609C42.3119 51.0066 42.224 53.4614 42.0875 55.9101ZM45.6905 33.2141C49.2965 34.5017 52.7842 35.7554 56.284 36.9813C56.5933 37.0894 56.9967 37.1233 57.297 37.0184C60.8362 35.7832 64.3634 34.5171 68.0118 33.2141C66.5803 29.2368 64.8153 25.4202 61.4458 22.6565C58.4434 20.1924 55.0345 20.2726 52.0866 22.7955C48.8173 25.59 47.0795 29.348 45.6905 33.2141ZM43.24 77.124C42.6546 74.3665 41.8813 71.8499 41.6387 69.2808C41.3657 66.3689 40.2284 64.337 37.8416 62.6603C35.7338 61.1781 33.9839 59.1648 32.0217 57.3368C29.5348 60.4061 27.3754 63.5836 26.4413 67.4651C25.3556 71.9672 27.3117 75.5585 31.6638 76.9172C35.4609 78.0998 39.3004 77.7632 43.24 77.124ZM70.62 77.0623C74.4322 78.0319 79.6941 77.8682 82.6481 76.6917C86.4937 75.1601 88.1708 72.0012 87.3337 67.8789C86.5028 63.7843 84.2191 60.5111 81.7564 57.417C78.8146 59.9893 75.9213 62.5121 73.0463 65.0565C72.8461 65.2325 72.746 65.5753 72.6914 65.8594C71.9999 69.5587 71.3206 73.2611 70.62 77.0623ZM45.7147 78.6495C46.2273 79.8754 46.7641 81.1661 47.3191 82.4908C49.8181 81.793 52.0351 81.9844 53.785 83.9638C55.5046 85.9091 55.5713 88.1664 54.6554 90.5225C56.657 91.2821 58.4737 91.0628 60.1326 90.05C64.4483 87.4191 66.3317 83.059 68.0118 78.6649C64.3816 77.3587 60.9484 76.1112 57.5032 74.8977C57.1514 74.7741 56.6874 74.7371 56.3447 74.8575C52.8509 76.0742 49.3753 77.334 45.7147 78.6495ZM70.5927 34.6376C71.3267 38.6055 71.9939 42.2647 72.6975 45.9177C72.7672 46.2821 72.9765 46.6928 73.2464 46.9305C76.0487 49.407 78.8783 51.8526 81.7534 54.3507C84.2828 51.164 86.6362 47.7519 87.4096 43.4813C87.7007 41.8633 87.6431 40.2699 86.7696 38.7908C81.5927 41.536 78.0291 39.85 77.095 34.091C74.9357 34.2732 72.7612 34.4554 70.5927 34.6376ZM31.9458 54.4403C34.5207 52.1398 36.9105 49.8609 39.4611 47.789C40.5347 46.9182 41.0382 46.0041 41.2505 44.6578C41.7691 41.3939 42.4605 38.1578 43.0823 34.9062C39.8705 33.6742 33.1954 33.9922 30.1322 35.5732C28.5734 36.3761 27.2935 37.4846 26.6718 39.3312C29.2861 39.8407 31.1573 41.1592 31.7578 43.9013C32.3583 46.6526 31.1118 48.6227 28.9707 50.2747C30.0049 51.7199 30.9723 53.0785 31.9458 54.4403ZM73.1676 48.9407C73.1676 53.761 73.1676 58.1458 73.1676 62.9166C75.7667 60.471 78.108 58.2693 80.6464 55.8824C78.0898 53.5078 75.7394 51.3246 73.1676 48.9407ZM40.5711 48.9006C37.9811 51.3123 35.6034 53.5232 33.0437 55.904C35.6398 58.3218 38.0175 60.5389 40.5711 62.9135C40.5711 58.118 40.5711 53.7146 40.5711 48.9006ZM68.7791 76.9511C69.5252 73.4093 70.1954 70.2318 70.9142 66.8351C66.823 69.2437 63.1108 71.4299 59.0833 73.8015C62.3769 74.873 65.4067 75.8549 68.7791 76.9511ZM42.7274 45.0222C46.7762 42.6414 50.5247 40.4367 54.6251 38.0281C51.2829 36.9628 48.2259 35.987 44.9292 34.9371C44.171 38.4141 43.4796 41.5823 42.7274 45.0222ZM54.6251 73.8076C50.4914 71.3713 46.7671 69.1758 42.7487 66.8104C43.5008 70.2349 44.2044 73.4402 44.9687 76.9141C48.2623 75.8549 51.292 74.8822 54.6251 73.8076ZM68.767 34.9278C65.4521 35.9932 62.4042 36.972 59.0954 38.0343C63.1775 40.4397 66.8836 42.6198 70.9445 45.0129C70.2045 41.573 69.5131 38.3801 68.767 34.9278ZM26.3049 41.1531C24.2122 41.1592 22.4714 42.9101 22.435 45.0469C22.3956 47.2239 24.1849 49.0519 26.3473 49.0457C28.4278 49.0396 30.1868 47.2671 30.2081 45.155C30.2263 42.9564 28.4642 41.1469 26.3049 41.1531ZM82.8846 30.543C80.789 30.5152 79.0057 32.2321 78.939 34.3504C78.8692 36.515 80.6404 38.4233 82.7664 38.4789C84.8772 38.5314 86.6878 36.6818 86.6878 34.4739C86.6878 32.3155 84.9985 30.5708 82.8846 30.543ZM53.4969 87.7001C53.4635 85.5448 51.7409 83.797 49.6483 83.797C47.5162 83.797 45.736 85.659 45.7754 87.8514C45.8118 89.9728 47.5678 91.7422 49.6422 91.7453C51.7864 91.7484 53.5302 89.9172 53.4969 87.7001Z"/>
</mask>
<path d="M69.9376 79.125C68.6305 81.6046 67.4326 84.2664 65.8737 86.6904C64.8486 88.2837 63.4293 89.6887 61.9614 90.8899C59.7596 92.6902 57.1696 93.0792 54.4006 92.3474C53.8699 92.2085 53.1451 92.3412 52.6538 92.6191C50.2336 93.9902 47.2463 93.598 45.4751 91.5785C43.6585 89.5096 43.5432 86.5452 45.2901 84.2509C45.7663 83.6272 45.8269 83.1887 45.4842 82.5032C44.8989 81.3267 44.4319 80.0946 43.9132 78.8811C41.9207 79.0632 39.9706 79.4214 38.0327 79.372C35.84 79.3165 33.5896 79.159 31.4818 78.5877C25.8621 77.0715 23.3994 72.52 24.8612 66.7827C25.7498 63.2964 27.5635 60.3042 29.6925 57.4881C30.0867 56.9662 30.478 56.4474 30.8571 55.9441C29.7653 54.3662 28.7584 52.8408 27.6575 51.3833C27.4088 51.056 26.8477 50.8398 26.414 50.8089C23.542 50.6051 21.4675 49.0056 20.8731 46.4642C20.2575 43.8334 21.4433 41.3599 23.9605 39.9302C24.3244 39.7234 24.7581 39.4084 24.8885 39.044C26.3776 34.8692 29.7258 33.2141 33.6351 32.791C36.5496 32.473 39.5369 32.7663 42.4848 32.9392C43.4796 32.9979 43.9951 32.9176 44.3773 31.8616C45.6996 28.2302 47.4677 24.8613 50.2548 22.1347C54.3127 18.1636 59.3623 18.1389 63.4232 22.1007C66.2892 24.8952 68.024 28.3969 69.4433 32.0962C69.5525 32.3803 69.6859 32.6521 69.8042 32.9269C72.282 32.7601 74.7295 32.6243 77.1709 32.4019C77.459 32.3772 77.7622 31.9326 77.9685 31.6207C79.7184 28.9774 82.5086 28.082 85.1865 29.3233C87.731 30.5029 88.8835 33.2573 88.1435 36.2834C88.0434 36.6879 87.9949 37.2191 88.1678 37.5587C89.7236 40.5725 89.5689 43.7067 88.2709 46.6156C86.8091 49.8918 84.8651 52.9458 83.2637 55.8546C84.9348 58.9301 87.0456 61.9902 88.3406 65.3746C91.055 72.4767 87.5673 78.2233 80.1278 79.0632C76.7705 79.44 73.3374 79.125 69.9376 79.125ZM42.0875 55.9101C42.227 58.3805 42.315 60.8384 42.5394 63.2841C42.5909 63.843 42.97 64.5841 43.4219 64.8589C47.5587 67.3755 51.7288 69.8304 55.9322 72.2266C56.3993 72.4953 57.2606 72.5262 57.7155 72.2637C61.922 69.8706 66.0981 67.4218 70.2227 64.8898C70.7383 64.5717 71.1902 63.6793 71.1993 63.0463C71.2812 58.2909 71.2872 53.5325 71.1932 48.7771C71.1811 48.1101 70.6534 47.1868 70.0923 46.8441C66.0526 44.3645 61.9584 41.9744 57.8338 39.6431C57.3334 39.359 56.4174 39.3405 55.9231 39.6184C51.7136 42.0022 47.5405 44.4602 43.4037 46.9737C42.9519 47.2486 42.5849 47.9989 42.5364 48.5609C42.3119 51.0066 42.224 53.4614 42.0875 55.9101ZM45.6905 33.2141C49.2965 34.5017 52.7842 35.7554 56.284 36.9813C56.5933 37.0894 56.9967 37.1233 57.297 37.0184C60.8362 35.7832 64.3634 34.5171 68.0118 33.2141C66.5803 29.2368 64.8153 25.4202 61.4458 22.6565C58.4434 20.1924 55.0345 20.2726 52.0866 22.7955C48.8173 25.59 47.0795 29.348 45.6905 33.2141ZM43.24 77.124C42.6546 74.3665 41.8813 71.8499 41.6387 69.2808C41.3657 66.3689 40.2284 64.337 37.8416 62.6603C35.7338 61.1781 33.9839 59.1648 32.0217 57.3368C29.5348 60.4061 27.3754 63.5836 26.4413 67.4651C25.3556 71.9672 27.3117 75.5585 31.6638 76.9172C35.4609 78.0998 39.3004 77.7632 43.24 77.124ZM70.62 77.0623C74.4322 78.0319 79.6941 77.8682 82.6481 76.6917C86.4937 75.1601 88.1708 72.0012 87.3337 67.8789C86.5028 63.7843 84.2191 60.5111 81.7564 57.417C78.8146 59.9893 75.9213 62.5121 73.0463 65.0565C72.8461 65.2325 72.746 65.5753 72.6914 65.8594C71.9999 69.5587 71.3206 73.2611 70.62 77.0623ZM45.7147 78.6495C46.2273 79.8754 46.7641 81.1661 47.3191 82.4908C49.8181 81.793 52.0351 81.9844 53.785 83.9638C55.5046 85.9091 55.5713 88.1664 54.6554 90.5225C56.657 91.2821 58.4737 91.0628 60.1326 90.05C64.4483 87.4191 66.3317 83.059 68.0118 78.6649C64.3816 77.3587 60.9484 76.1112 57.5032 74.8977C57.1514 74.7741 56.6874 74.7371 56.3447 74.8575C52.8509 76.0742 49.3753 77.334 45.7147 78.6495ZM70.5927 34.6376C71.3267 38.6055 71.9939 42.2647 72.6975 45.9177C72.7672 46.2821 72.9765 46.6928 73.2464 46.9305C76.0487 49.407 78.8783 51.8526 81.7534 54.3507C84.2828 51.164 86.6362 47.7519 87.4096 43.4813C87.7007 41.8633 87.6431 40.2699 86.7696 38.7908C81.5927 41.536 78.0291 39.85 77.095 34.091C74.9357 34.2732 72.7612 34.4554 70.5927 34.6376ZM31.9458 54.4403C34.5207 52.1398 36.9105 49.8609 39.4611 47.789C40.5347 46.9182 41.0382 46.0041 41.2505 44.6578C41.7691 41.3939 42.4605 38.1578 43.0823 34.9062C39.8705 33.6742 33.1954 33.9922 30.1322 35.5732C28.5734 36.3761 27.2935 37.4846 26.6718 39.3312C29.2861 39.8407 31.1573 41.1592 31.7578 43.9013C32.3583 46.6526 31.1118 48.6227 28.9707 50.2747C30.0049 51.7199 30.9723 53.0785 31.9458 54.4403ZM73.1676 48.9407C73.1676 53.761 73.1676 58.1458 73.1676 62.9166C75.7667 60.471 78.108 58.2693 80.6464 55.8824C78.0898 53.5078 75.7394 51.3246 73.1676 48.9407ZM40.5711 48.9006C37.9811 51.3123 35.6034 53.5232 33.0437 55.904C35.6398 58.3218 38.0175 60.5389 40.5711 62.9135C40.5711 58.118 40.5711 53.7146 40.5711 48.9006ZM68.7791 76.9511C69.5252 73.4093 70.1954 70.2318 70.9142 66.8351C66.823 69.2437 63.1108 71.4299 59.0833 73.8015C62.3769 74.873 65.4067 75.8549 68.7791 76.9511ZM42.7274 45.0222C46.7762 42.6414 50.5247 40.4367 54.6251 38.0281C51.2829 36.9628 48.2259 35.987 44.9292 34.9371C44.171 38.4141 43.4796 41.5823 42.7274 45.0222ZM54.6251 73.8076C50.4914 71.3713 46.7671 69.1758 42.7487 66.8104C43.5008 70.2349 44.2044 73.4402 44.9687 76.9141C48.2623 75.8549 51.292 74.8822 54.6251 73.8076ZM68.767 34.9278C65.4521 35.9932 62.4042 36.972 59.0954 38.0343C63.1775 40.4397 66.8836 42.6198 70.9445 45.0129C70.2045 41.573 69.5131 38.3801 68.767 34.9278ZM26.3049 41.1531C24.2122 41.1592 22.4714 42.9101 22.435 45.0469C22.3956 47.2239 24.1849 49.0519 26.3473 49.0457C28.4278 49.0396 30.1868 47.2671 30.2081 45.155C30.2263 42.9564 28.4642 41.1469 26.3049 41.1531ZM82.8846 30.543C80.789 30.5152 79.0057 32.2321 78.939 34.3504C78.8692 36.515 80.6404 38.4233 82.7664 38.4789C84.8772 38.5314 86.6878 36.6818 86.6878 34.4739C86.6878 32.3155 84.9985 30.5708 82.8846 30.543ZM53.4969 87.7001C53.4635 85.5448 51.7409 83.797 49.6483 83.797C47.5162 83.797 45.736 85.659 45.7754 87.8514C45.8118 89.9728 47.5678 91.7422 49.6422 91.7453C51.7864 91.7484 53.5302 89.9172 53.4969 87.7001Z" fill="white"/>
<path d="M69.9376 79.125C68.6305 81.6046 67.4326 84.2664 65.8737 86.6904C64.8486 88.2837 63.4293 89.6887 61.9614 90.8899C59.7596 92.6902 57.1696 93.0792 54.4006 92.3474C53.8699 92.2085 53.1451 92.3412 52.6538 92.6191C50.2336 93.9902 47.2463 93.598 45.4751 91.5785C43.6585 89.5096 43.5432 86.5452 45.2901 84.2509C45.7663 83.6272 45.8269 83.1887 45.4842 82.5032C44.8989 81.3267 44.4319 80.0946 43.9132 78.8811C41.9207 79.0632 39.9706 79.4214 38.0327 79.372C35.84 79.3165 33.5896 79.159 31.4818 78.5877C25.8621 77.0715 23.3994 72.52 24.8612 66.7827C25.7498 63.2964 27.5635 60.3042 29.6925 57.4881C30.0867 56.9662 30.478 56.4474 30.8571 55.9441C29.7653 54.3662 28.7584 52.8408 27.6575 51.3833C27.4088 51.056 26.8477 50.8398 26.414 50.8089C23.542 50.6051 21.4675 49.0056 20.8731 46.4642C20.2575 43.8334 21.4433 41.3599 23.9605 39.9302C24.3244 39.7234 24.7581 39.4084 24.8885 39.044C26.3776 34.8692 29.7258 33.2141 33.6351 32.791C36.5496 32.473 39.5369 32.7663 42.4848 32.9392C43.4796 32.9979 43.9951 32.9176 44.3773 31.8616C45.6996 28.2302 47.4677 24.8613 50.2548 22.1347C54.3127 18.1636 59.3623 18.1389 63.4232 22.1007C66.2892 24.8952 68.024 28.3969 69.4433 32.0962C69.5525 32.3803 69.6859 32.6521 69.8042 32.9269C72.282 32.7601 74.7295 32.6243 77.1709 32.4019C77.459 32.3772 77.7622 31.9326 77.9685 31.6207C79.7184 28.9774 82.5086 28.082 85.1865 29.3233C87.731 30.5029 88.8835 33.2573 88.1435 36.2834C88.0434 36.6879 87.9949 37.2191 88.1678 37.5587C89.7236 40.5725 89.5689 43.7067 88.2709 46.6156C86.8091 49.8918 84.8651 52.9458 83.2637 55.8546C84.9348 58.9301 87.0456 61.9902 88.3406 65.3746C91.055 72.4767 87.5673 78.2233 80.1278 79.0632C76.7705 79.44 73.3374 79.125 69.9376 79.125ZM42.0875 55.9101C42.227 58.3805 42.315 60.8384 42.5394 63.2841C42.5909 63.843 42.97 64.5841 43.4219 64.8589C47.5587 67.3755 51.7288 69.8304 55.9322 72.2266C56.3993 72.4953 57.2606 72.5262 57.7155 72.2637C61.922 69.8706 66.0981 67.4218 70.2227 64.8898C70.7383 64.5717 71.1902 63.6793 71.1993 63.0463C71.2812 58.2909 71.2872 53.5325 71.1932 48.7771C71.1811 48.1101 70.6534 47.1868 70.0923 46.8441C66.0526 44.3645 61.9584 41.9744 57.8338 39.6431C57.3334 39.359 56.4174 39.3405 55.9231 39.6184C51.7136 42.0022 47.5405 44.4602 43.4037 46.9737C42.9519 47.2486 42.5849 47.9989 42.5364 48.5609C42.3119 51.0066 42.224 53.4614 42.0875 55.9101ZM45.6905 33.2141C49.2965 34.5017 52.7842 35.7554 56.284 36.9813C56.5933 37.0894 56.9967 37.1233 57.297 37.0184C60.8362 35.7832 64.3634 34.5171 68.0118 33.2141C66.5803 29.2368 64.8153 25.4202 61.4458 22.6565C58.4434 20.1924 55.0345 20.2726 52.0866 22.7955C48.8173 25.59 47.0795 29.348 45.6905 33.2141ZM43.24 77.124C42.6546 74.3665 41.8813 71.8499 41.6387 69.2808C41.3657 66.3689 40.2284 64.337 37.8416 62.6603C35.7338 61.1781 33.9839 59.1648 32.0217 57.3368C29.5348 60.4061 27.3754 63.5836 26.4413 67.4651C25.3556 71.9672 27.3117 75.5585 31.6638 76.9172C35.4609 78.0998 39.3004 77.7632 43.24 77.124ZM70.62 77.0623C74.4322 78.0319 79.6941 77.8682 82.6481 76.6917C86.4937 75.1601 88.1708 72.0012 87.3337 67.8789C86.5028 63.7843 84.2191 60.5111 81.7564 57.417C78.8146 59.9893 75.9213 62.5121 73.0463 65.0565C72.8461 65.2325 72.746 65.5753 72.6914 65.8594C71.9999 69.5587 71.3206 73.2611 70.62 77.0623ZM45.7147 78.6495C46.2273 79.8754 46.7641 81.1661 47.3191 82.4908C49.8181 81.793 52.0351 81.9844 53.785 83.9638C55.5046 85.9091 55.5713 88.1664 54.6554 90.5225C56.657 91.2821 58.4737 91.0628 60.1326 90.05C64.4483 87.4191 66.3317 83.059 68.0118 78.6649C64.3816 77.3587 60.9484 76.1112 57.5032 74.8977C57.1514 74.7741 56.6874 74.7371 56.3447 74.8575C52.8509 76.0742 49.3753 77.334 45.7147 78.6495ZM70.5927 34.6376C71.3267 38.6055 71.9939 42.2647 72.6975 45.9177C72.7672 46.2821 72.9765 46.6928 73.2464 46.9305C76.0487 49.407 78.8783 51.8526 81.7534 54.3507C84.2828 51.164 86.6362 47.7519 87.4096 43.4813C87.7007 41.8633 87.6431 40.2699 86.7696 38.7908C81.5927 41.536 78.0291 39.85 77.095 34.091C74.9357 34.2732 72.7612 34.4554 70.5927 34.6376ZM31.9458 54.4403C34.5207 52.1398 36.9105 49.8609 39.4611 47.789C40.5347 46.9182 41.0382 46.0041 41.2505 44.6578C41.7691 41.3939 42.4605 38.1578 43.0823 34.9062C39.8705 33.6742 33.1954 33.9922 30.1322 35.5732C28.5734 36.3761 27.2935 37.4846 26.6718 39.3312C29.2861 39.8407 31.1573 41.1592 31.7578 43.9013C32.3583 46.6526 31.1118 48.6227 28.9707 50.2747C30.0049 51.7199 30.9723 53.0785 31.9458 54.4403ZM73.1676 48.9407C73.1676 53.761 73.1676 58.1458 73.1676 62.9166C75.7667 60.471 78.108 58.2693 80.6464 55.8824C78.0898 53.5078 75.7394 51.3246 73.1676 48.9407ZM40.5711 48.9006C37.9811 51.3123 35.6034 53.5232 33.0437 55.904C35.6398 58.3218 38.0175 60.5389 40.5711 62.9135C40.5711 58.118 40.5711 53.7146 40.5711 48.9006ZM68.7791 76.9511C69.5252 73.4093 70.1954 70.2318 70.9142 66.8351C66.823 69.2437 63.1108 71.4299 59.0833 73.8015C62.3769 74.873 65.4067 75.8549 68.7791 76.9511ZM42.7274 45.0222C46.7762 42.6414 50.5247 40.4367 54.6251 38.0281C51.2829 36.9628 48.2259 35.987 44.9292 34.9371C44.171 38.4141 43.4796 41.5823 42.7274 45.0222ZM54.6251 73.8076C50.4914 71.3713 46.7671 69.1758 42.7487 66.8104C43.5008 70.2349 44.2044 73.4402 44.9687 76.9141C48.2623 75.8549 51.292 74.8822 54.6251 73.8076ZM68.767 34.9278C65.4521 35.9932 62.4042 36.972 59.0954 38.0343C63.1775 40.4397 66.8836 42.6198 70.9445 45.0129C70.2045 41.573 69.5131 38.3801 68.767 34.9278ZM26.3049 41.1531C24.2122 41.1592 22.4714 42.9101 22.435 45.0469C22.3956 47.2239 24.1849 49.0519 26.3473 49.0457C28.4278 49.0396 30.1868 47.2671 30.2081 45.155C30.2263 42.9564 28.4642 41.1469 26.3049 41.1531ZM82.8846 30.543C80.789 30.5152 79.0057 32.2321 78.939 34.3504C78.8692 36.515 80.6404 38.4233 82.7664 38.4789C84.8772 38.5314 86.6878 36.6818 86.6878 34.4739C86.6878 32.3155 84.9985 30.5708 82.8846 30.543ZM53.4969 87.7001C53.4635 85.5448 51.7409 83.797 49.6483 83.797C47.5162 83.797 45.736 85.659 45.7754 87.8514C45.8118 89.9728 47.5678 91.7422 49.6422 91.7453C51.7864 91.7484 53.5302 89.9172 53.4969 87.7001Z" stroke="white" stroke-width="0.533333" mask="url(#path-1-outside-1_989_4767)"/>
<circle cx="54.9993" cy="55.3333" r="53.3333" stroke="white" stroke-width="2.66667"/>
<line x1="18.3821" y1="17.302" x2="91.906" y2="92.7306" stroke="white" stroke-width="2"/>
</svg>
