<svg width="79" height="79" viewBox="0 0 79 79" fill="none" xmlns="http://www.w3.org/2000/svg">
<mask id="path-1-outside-1_990_4883" maskUnits="userSpaceOnUse" x="5.9707" y="9.80078" width="67" height="54" fill="black">
<rect fill="white" x="5.9707" y="9.80078" width="67" height="54"/>
<path d="M41.2468 63.2486C31.8191 63.2486 22.3913 63.2486 12.9635 63.2486C10.8458 63.2486 9.91001 61.8455 10.7395 59.9025C11.3354 58.5064 12.2194 57.3229 13.4237 56.3912C15.2645 54.9671 17.1137 53.5556 18.9573 52.1343C20.9464 50.6011 21.3562 48.1055 19.9392 46.2142C19.4455 45.5553 18.809 45.2 17.974 45.2098C16.8102 45.2238 15.645 45.2559 14.4826 45.2238C12.0753 45.158 10.5898 43.7675 10.3129 41.3782C10.1786 40.2241 10.0583 39.0672 9.88763 37.9187C9.78412 37.2192 9.39666 36.7184 8.75322 36.3463C6.65226 35.1279 6.52077 34.3836 7.77268 32.3119C8.38114 31.306 8.8917 30.2317 9.33791 29.1419C9.51835 28.7027 9.50996 28.1193 9.40645 27.6409C7.99508 21.0759 11.1787 14.82 17.4298 12.3467C22.1913 10.4624 27.0604 10.184 31.9212 12.162C32.18 12.2669 32.5548 12.225 32.8332 12.1285C36.8938 10.731 41.0258 10.2749 45.1592 11.6137C46.6517 12.0977 47.9078 12.0823 49.4031 11.657C53.7477 10.4232 58.1021 10.4064 62.2705 12.4306C67.7775 15.1053 71.0478 21.2661 70.4771 27.4045C70.1932 30.4597 69.1007 33.1764 67.6264 35.7811C66.699 37.4193 65.6863 39.0112 64.647 40.5794C64.0917 41.4159 63.9378 42.2623 64.3239 43.1506C64.812 44.2767 65.3142 45.4126 65.9507 46.459C67.8614 49.6023 69.7469 52.7583 70.9807 56.2401C71.4604 57.5943 71.8381 58.9918 72.1598 60.3935C72.5585 62.1281 71.6003 63.2458 69.8127 63.2458C60.2898 63.25 50.7683 63.2486 41.2468 63.2486ZM41.8567 61.3783C42.2064 61.4049 42.3211 61.4203 42.4358 61.4203C51.5376 61.4217 60.6381 61.4161 69.7399 61.4315C70.4086 61.4329 70.5009 61.1307 70.3456 60.6117C69.8714 59.0337 69.5609 57.376 68.8643 55.9016C67.5565 53.1332 66.0066 50.4808 64.5854 47.7642C63.8665 46.389 63.1293 45.0125 62.546 43.5772C61.9977 42.2301 62.2215 40.9123 63.0566 39.6673C64.0791 38.1425 65.0652 36.5883 65.9702 34.9908C67.3522 32.5525 68.4139 30.0233 68.6629 27.1485C69.1944 20.9723 65.3002 14.9123 59.4715 13.277C55.5032 12.1634 51.5768 12.5523 47.7833 14.0939C42.619 16.1937 39.8355 21.6802 41.0104 27.1415C41.1881 27.9683 41.1811 28.9461 40.9069 29.7323C40.4621 31.0109 39.7459 32.1971 39.1081 33.4044C38.7388 34.1025 38.7276 34.3515 39.4312 34.6928C40.6118 35.2663 41.2175 36.2414 41.4567 37.4514C41.6944 38.6573 41.8217 39.8841 41.991 41.1026C42.2162 42.7379 42.9072 43.3702 44.5801 43.3996C45.6264 43.4178 46.6741 43.3828 47.7218 43.3646C49.2632 43.338 50.455 43.9759 51.346 45.2238C53.2525 47.8915 52.6818 51.4293 49.9752 53.5416C48.4897 54.7013 46.9622 55.8079 45.4893 56.9844C44.6934 57.6209 43.8975 58.2895 43.2429 59.0631C42.6904 59.7122 42.3477 60.5362 41.8567 61.3783ZM30.1293 13.4518C29.8146 13.3525 29.6216 13.2798 29.4216 13.2308C25.4239 12.2348 21.5031 12.5425 17.7446 14.1737C12.5873 16.4119 9.99533 21.7641 11.1801 27.2702C11.3521 28.0732 11.3088 29.0258 11.0416 29.7966C10.6192 31.0109 9.95337 32.1454 9.33092 33.2813C8.87212 34.1178 8.86093 34.3333 9.696 34.7697C10.6024 35.244 11.2249 35.9476 11.4333 36.924C11.7172 38.26 11.9382 39.6141 12.1047 40.9711C12.3145 42.6722 13.0041 43.3702 14.7232 43.4052C15.6534 43.4248 16.585 43.394 17.5166 43.3772C19.812 43.3366 21.2989 44.3117 22.1731 46.4408C23.19 48.9141 22.3913 51.772 20.1742 53.5011C18.3572 54.9182 16.522 56.3101 14.6966 57.7146C13.7385 58.4518 12.9929 59.3597 12.4964 60.4662C12.1117 61.3196 12.1746 61.4231 13.0936 61.4231C16.9109 61.4245 20.7296 61.4231 24.5468 61.4231C24.772 61.4231 24.9972 61.4231 25.2224 61.4231C25.6281 59.2226 26.8408 57.6083 28.4872 56.2989C30.2357 54.9084 32.0149 53.557 33.7941 52.2071C34.825 51.4237 35.4839 50.4305 35.6769 49.1407C36.0084 46.9304 34.5187 45.1902 32.3156 45.2112C31.3617 45.221 30.4063 45.2517 29.4523 45.2266C26.9919 45.1608 25.5344 43.8067 25.2434 41.353C25.1091 40.2227 24.9944 39.0882 24.8266 37.962C24.7189 37.2388 24.351 36.6792 23.6572 36.3323C23.246 36.1267 22.8655 35.8385 22.5214 35.5307C21.8514 34.9334 21.7045 34.2605 22.085 33.4548C22.3424 32.9106 22.72 32.4252 22.9914 31.888C23.4488 30.9787 23.923 30.0708 24.2713 29.1182C24.4349 28.6691 24.4293 28.0942 24.3174 27.6199C23.6194 24.6682 24.0167 21.8425 25.2084 19.102C26.2254 16.7518 27.8731 14.9235 30.1293 13.4518ZM40.1474 61.3951C40.5908 58.9624 42.0959 57.2711 43.9675 55.8372C45.5747 54.6062 47.1791 53.3724 48.7904 52.1455C49.8213 51.3593 50.4494 50.3451 50.6075 49.047C50.876 46.8395 49.4171 45.1874 47.2182 45.2098C46.1943 45.221 45.1676 45.2615 44.1465 45.2126C41.9406 45.1076 40.5111 43.7829 40.2033 41.6062C40.132 41.0998 40.0872 40.5892 40.0565 40.0786C39.9488 38.3202 39.7166 36.717 37.8212 35.7923C36.6337 35.2132 36.5399 34.2423 37.2016 33.0561C37.6869 32.1832 38.2716 31.3634 38.715 30.4709C39.1697 29.5574 39.5068 28.6146 39.2494 27.5234C38.0352 22.3796 40.1614 16.8735 44.4934 13.8281C44.6501 13.719 44.7955 13.5945 44.9858 13.4476C44.8347 13.3861 44.7718 13.3553 44.706 13.3329C44.5955 13.2965 44.485 13.2602 44.3731 13.2308C40.4495 12.2194 36.6127 12.5747 32.8877 14.0771C27.6955 16.1713 24.8839 21.697 26.0813 27.1681C26.2575 27.9739 26.2589 28.9279 25.996 29.6931C25.5623 30.9507 24.8727 32.1272 24.2363 33.3065C23.8027 34.1095 23.7873 34.3291 24.5902 34.7432C25.5483 35.2384 26.1778 35.9896 26.3918 37.0136C26.6674 38.3286 26.8618 39.6617 27.0408 40.9949C27.2716 42.7183 27.9417 43.3688 29.6817 43.3968C30.7518 43.4136 31.8233 43.3702 32.8933 43.3632C34.3509 43.3534 35.4895 43.9703 36.3511 45.1342C38.3066 47.7782 37.7947 51.3649 35.13 53.4689C33.3577 54.8664 31.5099 56.1716 29.7866 57.625C28.9306 58.3469 28.2494 59.2869 27.5514 60.1766C27.3038 60.4914 27.2423 60.9516 27.0786 61.3895C31.5085 61.3951 35.8098 61.3951 40.1474 61.3951Z"/>
</mask>
<path d="M41.2468 63.2486C31.8191 63.2486 22.3913 63.2486 12.9635 63.2486C10.8458 63.2486 9.91001 61.8455 10.7395 59.9025C11.3354 58.5064 12.2194 57.3229 13.4237 56.3912C15.2645 54.9671 17.1137 53.5556 18.9573 52.1343C20.9464 50.6011 21.3562 48.1055 19.9392 46.2142C19.4455 45.5553 18.809 45.2 17.974 45.2098C16.8102 45.2238 15.645 45.2559 14.4826 45.2238C12.0753 45.158 10.5898 43.7675 10.3129 41.3782C10.1786 40.2241 10.0583 39.0672 9.88763 37.9187C9.78412 37.2192 9.39666 36.7184 8.75322 36.3463C6.65226 35.1279 6.52077 34.3836 7.77268 32.3119C8.38114 31.306 8.8917 30.2317 9.33791 29.1419C9.51835 28.7027 9.50996 28.1193 9.40645 27.6409C7.99508 21.0759 11.1787 14.82 17.4298 12.3467C22.1913 10.4624 27.0604 10.184 31.9212 12.162C32.18 12.2669 32.5548 12.225 32.8332 12.1285C36.8938 10.731 41.0258 10.2749 45.1592 11.6137C46.6517 12.0977 47.9078 12.0823 49.4031 11.657C53.7477 10.4232 58.1021 10.4064 62.2705 12.4306C67.7775 15.1053 71.0478 21.2661 70.4771 27.4045C70.1932 30.4597 69.1007 33.1764 67.6264 35.7811C66.699 37.4193 65.6863 39.0112 64.647 40.5794C64.0917 41.4159 63.9378 42.2623 64.3239 43.1506C64.812 44.2767 65.3142 45.4126 65.9507 46.459C67.8614 49.6023 69.7469 52.7583 70.9807 56.2401C71.4604 57.5943 71.8381 58.9918 72.1598 60.3935C72.5585 62.1281 71.6003 63.2458 69.8127 63.2458C60.2898 63.25 50.7683 63.2486 41.2468 63.2486ZM41.8567 61.3783C42.2064 61.4049 42.3211 61.4203 42.4358 61.4203C51.5376 61.4217 60.6381 61.4161 69.7399 61.4315C70.4086 61.4329 70.5009 61.1307 70.3456 60.6117C69.8714 59.0337 69.5609 57.376 68.8643 55.9016C67.5565 53.1332 66.0066 50.4808 64.5854 47.7642C63.8665 46.389 63.1293 45.0125 62.546 43.5772C61.9977 42.2301 62.2215 40.9123 63.0566 39.6673C64.0791 38.1425 65.0652 36.5883 65.9702 34.9908C67.3522 32.5525 68.4139 30.0233 68.6629 27.1485C69.1944 20.9723 65.3002 14.9123 59.4715 13.277C55.5032 12.1634 51.5768 12.5523 47.7833 14.0939C42.619 16.1937 39.8355 21.6802 41.0104 27.1415C41.1881 27.9683 41.1811 28.9461 40.9069 29.7323C40.4621 31.0109 39.7459 32.1971 39.1081 33.4044C38.7388 34.1025 38.7276 34.3515 39.4312 34.6928C40.6118 35.2663 41.2175 36.2414 41.4567 37.4514C41.6944 38.6573 41.8217 39.8841 41.991 41.1026C42.2162 42.7379 42.9072 43.3702 44.5801 43.3996C45.6264 43.4178 46.6741 43.3828 47.7218 43.3646C49.2632 43.338 50.455 43.9759 51.346 45.2238C53.2525 47.8915 52.6818 51.4293 49.9752 53.5416C48.4897 54.7013 46.9622 55.8079 45.4893 56.9844C44.6934 57.6209 43.8975 58.2895 43.2429 59.0631C42.6904 59.7122 42.3477 60.5362 41.8567 61.3783ZM30.1293 13.4518C29.8146 13.3525 29.6216 13.2798 29.4216 13.2308C25.4239 12.2348 21.5031 12.5425 17.7446 14.1737C12.5873 16.4119 9.99533 21.7641 11.1801 27.2702C11.3521 28.0732 11.3088 29.0258 11.0416 29.7966C10.6192 31.0109 9.95337 32.1454 9.33092 33.2813C8.87212 34.1178 8.86093 34.3333 9.696 34.7697C10.6024 35.244 11.2249 35.9476 11.4333 36.924C11.7172 38.26 11.9382 39.6141 12.1047 40.9711C12.3145 42.6722 13.0041 43.3702 14.7232 43.4052C15.6534 43.4248 16.585 43.394 17.5166 43.3772C19.812 43.3366 21.2989 44.3117 22.1731 46.4408C23.19 48.9141 22.3913 51.772 20.1742 53.5011C18.3572 54.9182 16.522 56.3101 14.6966 57.7146C13.7385 58.4518 12.9929 59.3597 12.4964 60.4662C12.1117 61.3196 12.1746 61.4231 13.0936 61.4231C16.9109 61.4245 20.7296 61.4231 24.5468 61.4231C24.772 61.4231 24.9972 61.4231 25.2224 61.4231C25.6281 59.2226 26.8408 57.6083 28.4872 56.2989C30.2357 54.9084 32.0149 53.557 33.7941 52.2071C34.825 51.4237 35.4839 50.4305 35.6769 49.1407C36.0084 46.9304 34.5187 45.1902 32.3156 45.2112C31.3617 45.221 30.4063 45.2517 29.4523 45.2266C26.9919 45.1608 25.5344 43.8067 25.2434 41.353C25.1091 40.2227 24.9944 39.0882 24.8266 37.962C24.7189 37.2388 24.351 36.6792 23.6572 36.3323C23.246 36.1267 22.8655 35.8385 22.5214 35.5307C21.8514 34.9334 21.7045 34.2605 22.085 33.4548C22.3424 32.9106 22.72 32.4252 22.9914 31.888C23.4488 30.9787 23.923 30.0708 24.2713 29.1182C24.4349 28.6691 24.4293 28.0942 24.3174 27.6199C23.6194 24.6682 24.0167 21.8425 25.2084 19.102C26.2254 16.7518 27.8731 14.9235 30.1293 13.4518ZM40.1474 61.3951C40.5908 58.9624 42.0959 57.2711 43.9675 55.8372C45.5747 54.6062 47.1791 53.3724 48.7904 52.1455C49.8213 51.3593 50.4494 50.3451 50.6075 49.047C50.876 46.8395 49.4171 45.1874 47.2182 45.2098C46.1943 45.221 45.1676 45.2615 44.1465 45.2126C41.9406 45.1076 40.5111 43.7829 40.2033 41.6062C40.132 41.0998 40.0872 40.5892 40.0565 40.0786C39.9488 38.3202 39.7166 36.717 37.8212 35.7923C36.6337 35.2132 36.5399 34.2423 37.2016 33.0561C37.6869 32.1832 38.2716 31.3634 38.715 30.4709C39.1697 29.5574 39.5068 28.6146 39.2494 27.5234C38.0352 22.3796 40.1614 16.8735 44.4934 13.8281C44.6501 13.719 44.7955 13.5945 44.9858 13.4476C44.8347 13.3861 44.7718 13.3553 44.706 13.3329C44.5955 13.2965 44.485 13.2602 44.3731 13.2308C40.4495 12.2194 36.6127 12.5747 32.8877 14.0771C27.6955 16.1713 24.8839 21.697 26.0813 27.1681C26.2575 27.9739 26.2589 28.9279 25.996 29.6931C25.5623 30.9507 24.8727 32.1272 24.2363 33.3065C23.8027 34.1095 23.7873 34.3291 24.5902 34.7432C25.5483 35.2384 26.1778 35.9896 26.3918 37.0136C26.6674 38.3286 26.8618 39.6617 27.0408 40.9949C27.2716 42.7183 27.9417 43.3688 29.6817 43.3968C30.7518 43.4136 31.8233 43.3702 32.8933 43.3632C34.3509 43.3534 35.4895 43.9703 36.3511 45.1342C38.3066 47.7782 37.7947 51.3649 35.13 53.4689C33.3577 54.8664 31.5099 56.1716 29.7866 57.625C28.9306 58.3469 28.2494 59.2869 27.5514 60.1766C27.3038 60.4914 27.2423 60.9516 27.0786 61.3895C31.5085 61.3951 35.8098 61.3951 40.1474 61.3951Z" fill="#222222"/>
<path d="M41.2468 63.2486C31.8191 63.2486 22.3913 63.2486 12.9635 63.2486C10.8458 63.2486 9.91001 61.8455 10.7395 59.9025C11.3354 58.5064 12.2194 57.3229 13.4237 56.3912C15.2645 54.9671 17.1137 53.5556 18.9573 52.1343C20.9464 50.6011 21.3562 48.1055 19.9392 46.2142C19.4455 45.5553 18.809 45.2 17.974 45.2098C16.8102 45.2238 15.645 45.2559 14.4826 45.2238C12.0753 45.158 10.5898 43.7675 10.3129 41.3782C10.1786 40.2241 10.0583 39.0672 9.88763 37.9187C9.78412 37.2192 9.39666 36.7184 8.75322 36.3463C6.65226 35.1279 6.52077 34.3836 7.77268 32.3119C8.38114 31.306 8.8917 30.2317 9.33791 29.1419C9.51835 28.7027 9.50996 28.1193 9.40645 27.6409C7.99508 21.0759 11.1787 14.82 17.4298 12.3467C22.1913 10.4624 27.0604 10.184 31.9212 12.162C32.18 12.2669 32.5548 12.225 32.8332 12.1285C36.8938 10.731 41.0258 10.2749 45.1592 11.6137C46.6517 12.0977 47.9078 12.0823 49.4031 11.657C53.7477 10.4232 58.1021 10.4064 62.2705 12.4306C67.7775 15.1053 71.0478 21.2661 70.4771 27.4045C70.1932 30.4597 69.1007 33.1764 67.6264 35.7811C66.699 37.4193 65.6863 39.0112 64.647 40.5794C64.0917 41.4159 63.9378 42.2623 64.3239 43.1506C64.812 44.2767 65.3142 45.4126 65.9507 46.459C67.8614 49.6023 69.7469 52.7583 70.9807 56.2401C71.4604 57.5943 71.8381 58.9918 72.1598 60.3935C72.5585 62.1281 71.6003 63.2458 69.8127 63.2458C60.2898 63.25 50.7683 63.2486 41.2468 63.2486ZM41.8567 61.3783C42.2064 61.4049 42.3211 61.4203 42.4358 61.4203C51.5376 61.4217 60.6381 61.4161 69.7399 61.4315C70.4086 61.4329 70.5009 61.1307 70.3456 60.6117C69.8714 59.0337 69.5609 57.376 68.8643 55.9016C67.5565 53.1332 66.0066 50.4808 64.5854 47.7642C63.8665 46.389 63.1293 45.0125 62.546 43.5772C61.9977 42.2301 62.2215 40.9123 63.0566 39.6673C64.0791 38.1425 65.0652 36.5883 65.9702 34.9908C67.3522 32.5525 68.4139 30.0233 68.6629 27.1485C69.1944 20.9723 65.3002 14.9123 59.4715 13.277C55.5032 12.1634 51.5768 12.5523 47.7833 14.0939C42.619 16.1937 39.8355 21.6802 41.0104 27.1415C41.1881 27.9683 41.1811 28.9461 40.9069 29.7323C40.4621 31.0109 39.7459 32.1971 39.1081 33.4044C38.7388 34.1025 38.7276 34.3515 39.4312 34.6928C40.6118 35.2663 41.2175 36.2414 41.4567 37.4514C41.6944 38.6573 41.8217 39.8841 41.991 41.1026C42.2162 42.7379 42.9072 43.3702 44.5801 43.3996C45.6264 43.4178 46.6741 43.3828 47.7218 43.3646C49.2632 43.338 50.455 43.9759 51.346 45.2238C53.2525 47.8915 52.6818 51.4293 49.9752 53.5416C48.4897 54.7013 46.9622 55.8079 45.4893 56.9844C44.6934 57.6209 43.8975 58.2895 43.2429 59.0631C42.6904 59.7122 42.3477 60.5362 41.8567 61.3783ZM30.1293 13.4518C29.8146 13.3525 29.6216 13.2798 29.4216 13.2308C25.4239 12.2348 21.5031 12.5425 17.7446 14.1737C12.5873 16.4119 9.99533 21.7641 11.1801 27.2702C11.3521 28.0732 11.3088 29.0258 11.0416 29.7966C10.6192 31.0109 9.95337 32.1454 9.33092 33.2813C8.87212 34.1178 8.86093 34.3333 9.696 34.7697C10.6024 35.244 11.2249 35.9476 11.4333 36.924C11.7172 38.26 11.9382 39.6141 12.1047 40.9711C12.3145 42.6722 13.0041 43.3702 14.7232 43.4052C15.6534 43.4248 16.585 43.394 17.5166 43.3772C19.812 43.3366 21.2989 44.3117 22.1731 46.4408C23.19 48.9141 22.3913 51.772 20.1742 53.5011C18.3572 54.9182 16.522 56.3101 14.6966 57.7146C13.7385 58.4518 12.9929 59.3597 12.4964 60.4662C12.1117 61.3196 12.1746 61.4231 13.0936 61.4231C16.9109 61.4245 20.7296 61.4231 24.5468 61.4231C24.772 61.4231 24.9972 61.4231 25.2224 61.4231C25.6281 59.2226 26.8408 57.6083 28.4872 56.2989C30.2357 54.9084 32.0149 53.557 33.7941 52.2071C34.825 51.4237 35.4839 50.4305 35.6769 49.1407C36.0084 46.9304 34.5187 45.1902 32.3156 45.2112C31.3617 45.221 30.4063 45.2517 29.4523 45.2266C26.9919 45.1608 25.5344 43.8067 25.2434 41.353C25.1091 40.2227 24.9944 39.0882 24.8266 37.962C24.7189 37.2388 24.351 36.6792 23.6572 36.3323C23.246 36.1267 22.8655 35.8385 22.5214 35.5307C21.8514 34.9334 21.7045 34.2605 22.085 33.4548C22.3424 32.9106 22.72 32.4252 22.9914 31.888C23.4488 30.9787 23.923 30.0708 24.2713 29.1182C24.4349 28.6691 24.4293 28.0942 24.3174 27.6199C23.6194 24.6682 24.0167 21.8425 25.2084 19.102C26.2254 16.7518 27.8731 14.9235 30.1293 13.4518ZM40.1474 61.3951C40.5908 58.9624 42.0959 57.2711 43.9675 55.8372C45.5747 54.6062 47.1791 53.3724 48.7904 52.1455C49.8213 51.3593 50.4494 50.3451 50.6075 49.047C50.876 46.8395 49.4171 45.1874 47.2182 45.2098C46.1943 45.221 45.1676 45.2615 44.1465 45.2126C41.9406 45.1076 40.5111 43.7829 40.2033 41.6062C40.132 41.0998 40.0872 40.5892 40.0565 40.0786C39.9488 38.3202 39.7166 36.717 37.8212 35.7923C36.6337 35.2132 36.5399 34.2423 37.2016 33.0561C37.6869 32.1832 38.2716 31.3634 38.715 30.4709C39.1697 29.5574 39.5068 28.6146 39.2494 27.5234C38.0352 22.3796 40.1614 16.8735 44.4934 13.8281C44.6501 13.719 44.7955 13.5945 44.9858 13.4476C44.8347 13.3861 44.7718 13.3553 44.706 13.3329C44.5955 13.2965 44.485 13.2602 44.3731 13.2308C40.4495 12.2194 36.6127 12.5747 32.8877 14.0771C27.6955 16.1713 24.8839 21.697 26.0813 27.1681C26.2575 27.9739 26.2589 28.9279 25.996 29.6931C25.5623 30.9507 24.8727 32.1272 24.2363 33.3065C23.8027 34.1095 23.7873 34.3291 24.5902 34.7432C25.5483 35.2384 26.1778 35.9896 26.3918 37.0136C26.6674 38.3286 26.8618 39.6617 27.0408 40.9949C27.2716 42.7183 27.9417 43.3688 29.6817 43.3968C30.7518 43.4136 31.8233 43.3702 32.8933 43.3632C34.3509 43.3534 35.4895 43.9703 36.3511 45.1342C38.3066 47.7782 37.7947 51.3649 35.13 53.4689C33.3577 54.8664 31.5099 56.1716 29.7866 57.625C28.9306 58.3469 28.2494 59.2869 27.5514 60.1766C27.3038 60.4914 27.2423 60.9516 27.0786 61.3895C31.5085 61.3951 35.8098 61.3951 40.1474 61.3951Z" stroke="black" mask="url(#path-1-outside-1_990_4883)"/>
<path d="M10.8448 3.99987L10.844 4.00892C10.8441 4.00809 10.8441 4.00792 10.8441 4.00898C10.8442 4.01146 10.8444 4.02065 10.8454 4.04366L10.8456 4.04786C10.8467 4.07317 10.8484 4.10924 10.8478 4.14741C10.8468 4.22095 10.8385 4.34764 10.7676 4.46084L10.7672 4.46136C10.6583 4.63432 10.612 4.77518 10.6004 4.89082C10.5889 5.00444 10.6093 5.10784 10.656 5.21021C10.7559 5.42982 10.9676 5.63292 11.2437 5.87885L11.2442 5.87929C12.0091 6.56414 12.677 7.39117 12.5729 8.6063M10.8448 3.99987L5.74762 11.1849C5.96884 11.4459 6.21839 11.6804 6.46251 11.8991L6.46262 11.8992C7.05521 12.4295 7.76674 12.6943 8.57087 12.6265L8.57106 12.6265C8.97925 12.5918 9.42291 12.4062 9.84972 12.145C10.2802 11.8815 10.712 11.5298 11.0995 11.1394C11.487 10.749 11.8354 10.3147 12.0962 9.88301C12.3547 9.45509 12.5382 9.01173 12.5729 8.6063M10.8448 3.99987L10.8449 3.9908M10.8448 3.99987L10.8449 3.9908M12.5729 8.6063L12.3242 8.585L12.5729 8.60628C12.5729 8.60629 12.5729 8.6063 12.5729 8.6063ZM10.8449 3.9908C10.8586 2.68406 10.0022 1.59669 8.75124 1.41303L8.75113 1.41302M10.8449 3.9908L8.75113 1.41302M8.75113 1.41302C7.09644 1.17081 5.43391 0.943673 3.76756 0.765517L8.75113 1.41302ZM3.67224 8.1482L3.67221 8.14795C3.52314 7.1096 3.39341 6.06995 3.27911 5.15404C3.23947 4.83644 3.2017 4.53371 3.16561 4.25108C3.13875 3.94091 3.13312 3.70864 3.15024 3.53487C3.16762 3.35857 3.20604 3.27006 3.2432 3.22337C3.27438 3.1842 3.32462 3.14917 3.43636 3.13088C3.55525 3.11141 3.72182 3.11488 3.95793 3.14251C5.36218 3.30724 6.76531 3.49573 8.16459 3.70243C8.21974 3.71084 8.29763 3.74039 8.37073 3.78767C8.41977 3.81939 8.45332 3.85036 8.4739 3.87454C8.46813 3.88899 8.45961 3.9076 8.44754 3.93063C8.41274 3.99699 8.36698 4.06634 8.31948 4.13834C8.30789 4.1559 8.2962 4.17361 8.28454 4.19148C8.22137 4.28829 8.12089 4.37885 7.99512 4.48087L7.99474 4.48118C7.75485 4.67655 7.58761 4.90957 7.5973 5.19261C7.60655 5.46242 7.77602 5.69252 7.98283 5.88969C8.45088 6.33627 8.89947 6.79964 9.35233 7.26743C9.51393 7.43435 9.67607 7.60184 9.83983 7.76932L9.83995 7.76944C10.0014 7.93431 10.1095 8.06145 10.1766 8.16805C10.242 8.2719 10.2589 8.3413 10.258 8.39482C10.2572 8.44904 10.2376 8.52058 10.1676 8.62751C10.0962 8.73658 9.98308 8.86635 9.81627 9.03386C9.54064 9.31063 9.26422 9.58463 8.98695 9.85946C8.91737 9.92843 8.84773 9.99745 8.77805 10.0666L8.77794 10.0667C8.60179 10.2416 8.45994 10.2963 8.34857 10.2961C8.23754 10.2958 8.09605 10.2406 7.92077 10.0629L7.92047 10.0626C7.6993 9.83912 7.47775 9.62001 7.2574 9.40208C6.8007 8.9504 6.34914 8.50379 5.9167 8.03379L5.91653 8.0336C5.69716 7.79569 5.44632 7.61166 5.15461 7.60808C4.85366 7.60438 4.60744 7.79201 4.39985 8.05305L4.39981 8.05311C4.32892 8.1423 4.24041 8.22235 4.13407 8.31593C4.02507 8.4116 3.93961 8.46569 3.87723 8.49155C3.84703 8.50407 3.82651 8.50817 3.81441 8.50921C3.80853 8.50972 3.80478 8.50949 3.80275 8.50926C3.80079 8.50903 3.79988 8.50873 3.79957 8.50862C3.79942 8.50857 3.79916 8.50847 3.79878 8.50829C3.7984 8.5081 3.7979 8.50783 3.79725 8.50742C3.79589 8.50656 3.79324 8.50469 3.78946 8.50102C3.78167 8.49347 3.76908 8.47828 3.75434 8.4501C3.72377 8.39167 3.69321 8.29529 3.67224 8.1482ZM8.48389 3.84272C8.48395 3.84267 8.48386 3.84354 8.48346 3.84542L8.48389 3.84272Z" fill="#222222" stroke="black" stroke-width="0.5"/>
<path d="M12.7636 70.701L12.7098 70.8037C12.6261 70.9634 12.543 71.1273 12.4591 71.2929C12.2464 71.7127 12.028 72.1438 11.7778 72.5481C11.5744 72.8772 11.2659 73.1403 11.002 73.36L10.842 73.1679M12.7636 70.701L0.764176 75.2513C0.589858 76.907 2.04773 78.4042 3.71318 78.2401L3.71324 78.2401C5.40478 78.073 7.09088 77.8429 8.76922 77.5851L8.7694 77.5851C10.2336 77.3591 11.231 75.8363 10.7216 74.4392L10.7216 74.4391C10.6181 74.1556 10.6095 73.968 10.6505 73.8231C10.6918 73.6773 10.795 73.5331 11.0024 73.3597L10.842 73.1679M12.7636 70.701L12.7201 70.5937M12.7636 70.701L12.7201 70.5937M10.842 73.1679C10.3902 73.5456 10.2601 73.9037 10.4867 74.5248L12.2311 71.1896C12.0202 71.6058 11.8094 72.0219 11.5652 72.4167C11.3861 72.7062 11.1092 72.9455 10.842 73.1679ZM12.7201 70.5937C12.6416 70.4001 12.5814 70.22 12.5214 70.0405C12.4875 69.9391 12.4537 69.8379 12.4167 69.7346C12.3192 69.4623 12.2037 69.1906 12.0171 68.9635L12.0171 68.9635C11.4065 68.2208 10.7175 67.517 9.96485 66.9129C8.89719 66.0556 7.44157 66.2101 6.4448 67.122C6.08234 67.4534 5.72188 67.8021 5.39386 68.1805C5.26971 68.3232 5.18115 68.3759 5.10419 68.394C5.02531 68.4125 4.91335 68.4054 4.72 68.3308L4.71959 68.3307M12.7201 70.5937L4.71959 68.3307M4.71959 68.3307C3.22517 67.7574 1.63249 68.6861 1.39915 70.2649L4.71959 68.3307ZM8.23828 75.2972L8.23832 75.2972C8.47802 75.2627 8.50302 75.1878 8.50324 75.1871C8.50795 75.1717 8.51546 75.0755 8.34841 74.8806L8.34788 74.8799C8.23495 74.7473 8.11413 74.6243 7.98437 74.5185L7.98423 74.5184C7.7401 74.319 7.57604 74.0828 7.59295 73.798C7.60881 73.5309 7.78203 73.3044 7.98358 73.1117C8.42588 72.6882 8.84916 72.2519 9.27625 71.8116C9.51136 71.5692 9.74763 71.3256 9.98887 71.0824L8.23828 75.2972ZM8.23828 75.2972C6.72215 75.5152 5.20471 75.719 3.68524 75.8878C3.38841 75.9203 3.2907 75.8556 3.2382 75.7737C3.20178 75.7169 3.16784 75.6229 3.15047 75.4683C3.13334 75.3159 3.13386 75.1196 3.15407 74.8697C3.18987 74.5887 3.22689 74.2921 3.26535 73.9839C3.38339 73.0381 3.51511 71.9828 3.66752 70.9305L3.66752 70.9305L3.66771 70.9291C3.67871 70.8502 3.71383 70.74 3.7627 70.6475C3.78676 70.6019 3.80996 70.5687 3.82853 70.5482C3.82994 70.5466 3.83125 70.5452 3.83248 70.544C3.83639 70.5446 3.84119 70.5456 3.84692 70.547C3.87525 70.5539 3.91323 70.5685 3.95897 70.5925C4.05081 70.6407 4.14765 70.7127 4.22038 70.7794L4.22055 70.7796C4.23075 70.7889 4.24086 70.7982 4.25088 70.8074C4.43316 70.9745 4.58557 71.1143 4.7162 71.2108C4.85321 71.312 5.00853 71.3989 5.1918 71.3948C5.37487 71.3907 5.52691 71.2972 5.66092 71.1889C5.79389 71.0814 5.94856 70.9256 6.13587 70.7369L6.14469 70.7281L6.1449 70.7278M8.23828 75.2972L6.1449 70.7278M6.1449 70.7278C6.35444 70.5163 6.56497 70.3046 6.77573 70.0928C7.15574 69.7107 7.53654 69.3279 7.91378 68.9434M6.1449 70.7278L7.91378 68.9434M10.0042 70.1655C9.729 69.8921 9.45426 69.618 9.17996 69.3443L10.0042 70.1655ZM10.0042 70.1655C10.1915 70.3516 10.2458 70.5008 10.2429 70.6194M10.0042 70.1655L10.2429 70.6194M10.2429 70.6194C10.24 70.7416 10.175 70.8943 9.98889 71.0823L10.2429 70.6194ZM7.91378 68.9434C8.0893 68.7649 8.23079 68.7081 8.34155 68.7069M7.91378 68.9434L8.34155 68.7069M8.34155 68.7069C8.45153 68.7056 8.59246 68.7584 8.76879 68.9342L8.34155 68.7069ZM1.39914 70.265C1.1539 71.9215 0.939434 73.5841 0.764181 75.2512L1.39914 70.265Z" fill="#222222" stroke="black" stroke-width="0.5"/>
<path d="M66.2442 8.29668L66.2953 8.19534C66.3745 8.03799 66.4521 7.87679 66.5303 7.71435C66.7229 7.3143 66.9191 6.90676 67.1524 6.53087L67.1526 6.53054C67.3686 6.18363 67.6963 5.90412 67.9774 5.67142C68.1987 5.48786 68.3089 5.33857 68.3529 5.18609C68.3965 5.03501 68.3873 4.83757 68.2745 4.532C67.757 3.13071 68.8045 1.62719 70.2628 1.41151L66.2442 8.29668ZM66.2442 8.29668L66.2869 8.40183M66.2442 8.29668L66.2869 8.40183M66.2869 8.40183C66.3645 8.593 66.4248 8.77311 66.4855 8.95435C66.5204 9.05844 66.5553 9.1629 66.5938 9.27005C66.6942 9.54984 66.8133 9.83063 67.0029 10.0683L67.004 10.0696C67.5957 10.8011 68.2768 11.4793 69.0076 12.072C70.071 12.9349 71.5143 12.8099 72.5299 11.9068C72.9205 11.5605 73.2866 11.1856 73.6332 10.8036L73.6336 10.8032C73.7507 10.6736 73.8314 10.6248 73.9011 10.6075C73.9704 10.5904 74.0718 10.5938 74.252 10.6632C75.7859 11.2542 77.3677 10.3231 77.6078 8.69969L77.6078 8.6996M66.2869 8.40183L77.6078 8.6996M77.6078 8.6996C77.8488 7.06537 78.0591 5.42534 78.2343 3.78232M77.6078 8.6996L78.2343 3.78232M78.2343 3.78232C78.4194 2.04991 76.9013 0.566865 75.1747 0.768374L78.2343 3.78232ZM75.1653 3.13116L75.1654 3.13115C75.5699 3.08389 75.6987 3.14582 75.7571 3.22034C75.7931 3.26635 75.83 3.34914 75.8497 3.50319C75.8692 3.65527 75.8696 3.85676 75.85 4.12221C75.8137 4.40382 75.7761 4.70072 75.7371 5.0091C75.6148 5.97504 75.4782 7.05365 75.324 8.12819L75.3238 8.12908C75.3146 8.19531 75.2837 8.28901 75.2394 8.36918C75.2177 8.40836 75.1967 8.43713 75.1798 8.45516C75.1789 8.45616 75.178 8.4571 75.1771 8.45798C75.1554 8.45274 75.1239 8.44103 75.0818 8.42003C75.0073 8.38283 74.9303 8.33275 74.8487 8.27962C74.8338 8.26993 74.8187 8.26014 74.8035 8.2503L74.8029 8.24993C74.7082 8.18911 74.6305 8.10191 74.5286 7.98755C74.5052 7.96137 74.4806 7.93376 74.4543 7.90471L74.4542 7.9047C74.276 7.70849 74.0637 7.57625 73.8138 7.58859C73.5742 7.60043 73.3728 7.743 73.2056 7.91564L73.2055 7.91576C72.5442 8.59934 71.8715 9.27218 71.1949 9.94327C70.9006 10.2347 70.7535 10.3013 70.6516 10.3001C70.5462 10.2988 70.3933 10.2247 70.0899 9.92696L70.0898 9.92692C69.8892 9.73009 69.6964 9.53612 69.5024 9.34087C69.3393 9.17677 69.1754 9.01178 69.0051 8.84345L69.005 8.84331C68.8173 8.65809 68.7585 8.50831 68.7588 8.38903C68.7591 8.26881 68.8195 8.1171 69.0065 7.92883C69.2515 7.68279 69.4904 7.43639 69.7279 7.19143C70.152 6.75391 70.5718 6.32097 71.0139 5.90287L71.0141 5.90267C71.2441 5.68473 71.4132 5.43752 71.4056 5.15287C71.3979 4.86533 71.2129 4.63369 70.9719 4.44058L70.9718 4.44046C70.8623 4.35284 70.7587 4.24631 70.6579 4.12954L70.6576 4.12912C70.4735 3.91699 70.4914 3.82723 70.4934 3.82179C70.4942 3.81954 70.5333 3.7384 70.817 3.69834L70.8171 3.69832C72.2649 3.49288 73.7147 3.30012 75.1653 3.13116ZM75.1746 0.768391C73.5347 0.958859 71.897 1.16902 70.2629 1.41149L75.1746 0.768391Z" fill="#222222" stroke="black" stroke-width="0.5"/>
<path d="M78.2487 75.2608L78.2487 75.277C78.2457 77.1156 76.8047 78.4288 75.1109 78.2232C73.5193 78.03 71.9273 77.8256 70.339 77.6015L70.3389 77.6015C68.6909 77.368 67.7297 75.7634 68.3439 74.2016M78.2487 75.2608L74.6545 68.2423C74.264 68.3806 74.0135 68.3625 73.8181 68.2797C73.6083 68.1908 73.4227 68.0126 73.1899 67.7435L73.1898 67.7434C72.998 67.5221 72.7864 67.3211 72.577 67.1315L72.5768 67.1313C71.4308 66.095 69.8445 66.0991 68.7095 67.1577L68.7094 67.1579C68.1963 67.6372 67.6974 68.1347 67.2156 68.6447L67.2155 68.6448C66.1385 69.7862 66.1488 71.4156 67.2195 72.5689C67.5359 72.9105 67.8622 73.2569 68.2116 73.5778C68.3403 73.696 68.3877 73.7775 68.4039 73.8477C68.4203 73.9184 68.4149 74.021 68.3439 74.2016M78.2487 75.2608L78.2467 75.2447M78.2487 75.2608L78.2467 75.2447M68.3439 74.2016L68.5765 74.2931L68.3439 74.2016ZM78.2467 75.2447C78.1863 74.7741 78.128 74.2872 78.0685 73.7893C77.9251 72.5905 77.7742 71.328 77.5669 70.0765L77.5669 70.0765M78.2467 75.2447L77.5669 70.0765M73.0009 67.9071C72.819 67.6973 72.6162 67.5042 72.4092 67.3168C71.3587 66.3669 69.9193 66.3711 68.8801 67.3406C68.3709 67.8162 67.8757 68.31 67.3973 68.8164L73.0009 67.9071ZM73.0009 67.9071C73.4681 68.4471 73.8737 68.7842 74.7381 68.4779M73.0009 67.9071L74.7381 68.4779M77.5669 70.0765C77.4581 69.4203 77.0406 68.8554 76.5057 68.5082M77.5669 70.0765L76.5057 68.5082M74.4024 70.7945L74.5977 70.9506C74.684 70.8427 74.7906 70.7414 74.9086 70.6418C75.1055 70.477 75.1954 70.4893 75.2053 70.4926L75.2054 70.4926C75.2076 70.4933 75.2237 70.4986 75.2467 70.5377C75.272 70.5805 75.2991 70.6546 75.3159 70.7722C75.5296 72.2892 75.7236 73.8083 75.8855 75.3296C75.9165 75.6207 75.8519 75.7155 75.7679 75.7677C75.7091 75.8042 75.6123 75.8378 75.4542 75.8546C75.2987 75.8712 75.0988 75.87 74.8448 75.8491C74.6204 75.8191 74.3857 75.788 74.1427 75.7558C73.1392 75.6228 71.9938 75.471 70.8517 75.2993L70.8514 75.2993C70.7934 75.2906 70.7143 75.2612 70.6404 75.2147C70.5919 75.1842 70.5575 75.1538 70.5354 75.1291C70.5409 75.1154 70.5488 75.0983 70.5595 75.0773C70.5901 75.0177 70.627 74.9589 70.6666 74.8957C70.6841 74.8679 70.7022 74.8392 70.7204 74.8091L70.721 74.8082C70.7648 74.7355 70.8441 74.6635 70.9532 74.5782L70.9538 74.5777C71.2151 74.372 71.4045 74.1276 71.4025 73.8269C71.4006 73.5355 71.2178 73.284 70.9812 73.0628C70.5593 72.6678 70.1625 72.2577 69.7606 71.8423C69.5184 71.5919 69.2743 71.3396 69.0217 71.0875L69.0216 71.0874C68.8202 70.8867 68.758 70.7277 68.7594 70.6028C68.7608 70.4777 68.8268 70.3203 69.0307 70.1244C69.2316 69.9318 69.4371 69.7255 69.6401 69.5218C69.8034 69.3578 69.9651 69.1955 70.1215 69.0433C70.4096 68.7637 70.5575 68.6944 70.6589 68.6932C70.7566 68.6921 70.8988 68.7541 71.1774 69.0293L71.1777 69.0295C71.2613 69.1118 71.3449 69.194 71.4283 69.276C71.9925 69.8305 72.5521 70.3804 73.0811 70.9565C73.2955 71.1901 73.5429 71.3779 73.8325 71.3886C74.1355 71.3998 74.3858 71.2162 74.5979 70.9503L74.4024 70.7945ZM74.4024 70.7945C74.0164 71.2785 73.6723 71.2309 73.2652 70.7875L76.1341 75.3031C75.9719 73.7783 75.7774 72.2563 75.5634 70.7371C75.4851 70.1873 75.169 70.0978 74.7479 70.4503C74.6234 70.5552 74.5031 70.6686 74.4024 70.7945ZM76.5057 68.5082C75.9705 68.1608 75.2921 68.016 74.6546 68.2422L76.5057 68.5082ZM74.7381 68.4779C75.8376 68.0876 77.1287 68.9619 77.3203 70.1174L74.7381 68.4779ZM70.5247 75.1612C70.5245 75.1631 70.5243 75.1641 70.5242 75.1641C70.5242 75.1642 70.5243 75.1632 70.5247 75.1612Z" fill="#222222" stroke="black" stroke-width="0.5"/>
</svg>
