<svg width="13" height="13" viewBox="0 0 13 13" fill="none" xmlns="http://www.w3.org/2000/svg">
<path d="M3.91552 11.6565C4.13091 11.2405 4.35309 10.8544 4.53509 10.4502C4.94311 9.54353 5.32425 8.6251 5.80111 7.75004C6.94157 5.65739 8.2785 3.69986 9.83288 1.8931C10.4013 1.23223 11.0478 0.653083 11.7847 0.176018C12.2181 -0.104556 12.546 -0.0166368 12.7594 0.208767C13.048 0.513238 13.0858 0.993843 12.8246 1.32988C12.6143 1.60072 12.3871 1.86064 12.1484 2.10729C11.5778 2.69646 10.9692 3.25083 10.4244 3.86242C9.3179 5.1048 8.37038 6.46607 7.5245 7.89756C6.80093 9.12193 6.08061 10.3481 5.35911 11.5736C5.14698 11.9339 4.93277 12.2953 4.61575 12.5738C4.45975 12.7107 4.27982 12.8325 4.09102 12.9169C3.75155 13.0686 3.41325 13.0098 3.14262 12.7635C2.2471 11.9489 1.31169 11.1721 0.601711 10.1746C0.358848 9.83355 0.12928 9.48659 0.0220303 9.07561C-0.120379 8.52981 0.453393 7.96542 1.00117 8.10791C1.17223 8.15246 1.30282 8.25307 1.39973 8.39321C1.67894 8.79622 1.95253 9.20336 2.227 9.60962C2.70091 10.3103 3.21471 10.9789 3.82039 11.5728C3.83723 11.5899 3.85643 11.6049 3.91552 11.6565Z" fill="#3D3D3D"/>
</svg>
