<svg width="30" height="30" viewBox="0 0 30 30" fill="none" xmlns="http://www.w3.org/2000/svg">
<path d="M20.2097 13.345C20.5133 13.3445 20.8047 13.2259 21.0225 13.0141L26.2204 7.99565C27.0769 7.10578 27.5553 5.91884 27.5553 4.68408C27.5553 3.44908 27.0769 2.26214 26.2204 1.37252C25.4542 0.59043 24.405 0.150019 23.3101 0.151213C22.1846 0.159805 21.0939 0.542518 20.2097 1.23873C19.2523 0.42226 18.3233 1.0955e-05 17.4575 1.0955e-05C16.2306 -0.00268939 15.0552 0.493927 14.2022 1.37598C13.3408 2.2661 12.8594 3.45599 12.8594 4.69471C12.8594 5.93317 13.3408 7.12331 14.2022 8.01343L19.3966 13.0142C19.6143 13.226 19.906 13.3446 20.2097 13.3451V13.345ZM15.2087 2.35795C15.7983 1.74891 16.6099 1.40599 17.4575 1.40769C18.0735 1.40769 18.8477 1.84416 19.6959 2.66752C19.8348 2.80941 20.025 2.88944 20.2236 2.88944C20.4222 2.88944 20.6125 2.80941 20.7514 2.66752C21.4324 1.98139 22.354 1.58761 23.3207 1.5697C24.0392 1.5643 24.729 1.85127 25.2315 2.3648C25.8268 2.99103 26.159 3.82203 26.159 4.68588C26.159 5.54999 25.8268 6.38072 25.2315 7.00696L20.2097 11.8459L15.2087 7.01381C14.605 6.3893 14.2677 5.55464 14.2677 4.68588C14.2677 3.81738 14.605 2.9825 15.2087 2.35795H15.2087Z" fill="black"/>
<path d="M28.4696 15.7942C28.0228 15.3373 27.415 15.0737 26.7763 15.0597C26.1373 15.0459 25.5184 15.283 25.0525 15.7203L19.7736 20.7142L14.6987 21.2982L13.9315 20.2144L17.6408 19.2008C18.4808 19.0341 19.1679 18.4322 19.4436 17.6215C19.7193 16.8107 19.5416 15.9147 18.9772 15.2706C18.4131 14.6267 17.5483 14.3323 16.7082 14.499L8.71574 15.5195C8.12903 15.5732 7.57399 15.8096 7.12868 16.1953L0.244753 22.1603C0.0964791 22.2882 0.00786311 22.4718 0.000497796 22.6675C-0.00686689 22.8631 0.0677596 23.0532 0.206211 23.1916L5.81233 28.7943C5.94366 28.9263 6.12213 29.001 6.30845 29.0019C6.49723 29.0002 6.67717 28.9229 6.80826 28.7871L8.8038 26.7108L19.6745 26.6686C20.4073 26.6664 21.1107 26.3787 21.6347 25.8661L28.4231 19.2216C28.8802 18.7711 29.1412 18.1587 29.1497 17.5172C29.1583 16.8755 28.9136 16.2564 28.4687 15.7939L28.4696 15.7942ZM27.4386 18.2191L20.6571 24.856C20.3956 25.1118 20.0446 25.2557 19.6789 25.2571L8.50898 25.2994H8.50873C8.31774 25.2991 8.13486 25.3767 8.00205 25.5142L6.29867 27.2738L1.72357 22.6987L8.05132 17.2683C8.27913 17.0653 8.56708 16.9419 8.87125 16.9166L16.8882 15.9064C17.2228 15.8637 17.5562 15.9943 17.7727 16.253C17.989 16.5118 18.0587 16.8628 17.9573 17.1846C17.8559 17.5062 17.5977 17.7542 17.2719 17.842L12.5947 19.1195C12.3735 19.1799 12.1956 19.3441 12.1177 19.5599C12.0399 19.7757 12.0723 20.0158 12.2042 20.2036L13.7915 22.4488C13.94 22.6582 14.1909 22.7701 14.4459 22.7409L20.1647 22.0828C20.3147 22.0626 20.4542 21.9949 20.5624 21.8893L26.0207 16.7405C26.29 16.5292 26.6472 16.4663 26.9725 16.5731C27.2978 16.6799 27.5482 16.9423 27.64 17.2722C27.7315 17.6019 27.6522 17.9559 27.4286 18.2151L27.4386 18.2191Z" fill="black"/>
</svg>
