<svg width="30" height="30" viewBox="0 0 30 30" fill="none" xmlns="http://www.w3.org/2000/svg">
<path d="M20.2097 13.345C20.5133 13.3445 20.8047 13.2259 21.0225 13.0141L26.2204 7.99565C27.0769 7.10578 27.5553 5.91884 27.5553 4.68408C27.5553 3.44908 27.0769 2.26214 26.2204 1.37252C25.4542 0.59043 24.405 0.150019 23.3101 0.151213C22.1846 0.159805 21.0939 0.542518 20.2097 1.23873C19.2523 0.42226 18.3233 1.0955e-05 17.4575 1.0955e-05C16.2306 -0.00268939 15.0552 0.493927 14.2022 1.37598C13.3408 2.2661 12.8594 3.45599 12.8594 4.69471C12.8594 5.93317 13.3408 7.12331 14.2022 8.01343L19.3966 13.0142C19.6143 13.226 19.906 13.3446 20.2097 13.3451V13.345ZM15.2087 2.35795C15.7983 1.74891 16.6099 1.40599 17.4575 1.40769C18.0735 1.40769 18.8477 1.84416 19.6959 2.66752C19.8348 2.80941 20.025 2.88944 20.2236 2.88944C20.4222 2.88944 20.6125 2.80941 20.7514 2.66752C21.4324 1.98139 22.354 1.58761 23.3207 1.5697C24.0392 1.5643 24.729 1.85127 25.2315 2.3648C25.8268 2.99103 26.159 3.82203 26.159 4.68588C26.159 5.54999 25.8268 6.38072 25.2315 7.00696L20.2097 11.8459L15.2087 7.01381C14.605 6.3893 14.2677 5.55464 14.2677 4.68588C14.2677 3.81738 14.605 2.9825 15.2087 2.35795H15.2087Z" fill="white"/>
<path d="M28.4696 15.794C28.0228 15.3372 27.415 15.0735 26.7763 15.0595C26.1373 15.0458 25.5184 15.2829 25.0525 15.7201L19.7736 20.714L14.6987 21.298L13.9315 20.2142L17.6408 19.2006C18.4808 19.0339 19.1679 18.432 19.4436 17.6214C19.7193 16.8106 19.5416 15.9146 18.9772 15.2704C18.4131 14.6265 17.5483 14.3322 16.7082 14.4989L8.71574 15.5194C8.12903 15.5731 7.57399 15.8095 7.12868 16.1952L0.244753 22.1602C0.0964791 22.2881 0.00786311 22.4717 0.000497796 22.6674C-0.00686689 22.863 0.0677596 23.053 0.206211 23.1915L5.81233 28.7941C5.94366 28.9262 6.12213 29.0008 6.30845 29.0018C6.49723 29.0001 6.67717 28.9228 6.80826 28.787L8.8038 26.7107L19.6745 26.6685C20.4073 26.6663 21.1107 26.3786 21.6347 25.866L28.4231 19.2215C28.8802 18.771 29.1412 18.1585 29.1497 17.5171C29.1583 16.8754 28.9136 16.2563 28.4687 15.7938L28.4696 15.794ZM27.4386 18.2189L20.6571 24.8559C20.3956 25.1117 20.0446 25.2555 19.6789 25.257L8.50898 25.2992H8.50873C8.31774 25.299 8.13486 25.3766 8.00205 25.514L6.29867 27.2737L1.72357 22.6986L8.05132 17.2682C8.27913 17.0652 8.56708 16.9417 8.87125 16.9164L16.8882 15.9063C17.2228 15.8636 17.5562 15.9942 17.7727 16.2529C17.989 16.5117 18.0587 16.8627 17.9573 17.1845C17.8559 17.5061 17.5977 17.754 17.2719 17.8419L12.5947 19.1194C12.3735 19.1798 12.1956 19.344 12.1177 19.5598C12.0399 19.7756 12.0723 20.0157 12.2042 20.2035L13.7915 22.4487C13.94 22.6581 14.1909 22.77 14.4459 22.7408L20.1647 22.0826C20.3147 22.0625 20.4542 21.9948 20.5624 21.8892L26.0207 16.7404C26.29 16.529 26.6472 16.4662 26.9725 16.573C27.2978 16.6798 27.5482 16.9422 27.64 17.2721C27.7315 17.6018 27.6522 17.9558 27.4286 18.215L27.4386 18.2189Z" fill="white"/>
</svg>
