<svg width="40" height="40" viewBox="0 0 40 40" fill="none" xmlns="http://www.w3.org/2000/svg">
<path d="M33.858 5.82427C32.0547 4.01243 29.9072 2.576 27.5406 1.59867C25.174 0.621346 22.6357 0.122673 20.0736 0.131713C9.33763 0.131713 0.588072 8.83942 0.578238 19.5295C0.578238 22.9534 1.47802 26.2842 3.1768 29.2333L0.420898 39.2895L10.7561 36.5925C13.6153 38.1415 16.8185 38.9534 20.0736 38.9542H20.0834C30.8219 38.9542 39.569 30.2465 39.5788 19.5466C39.5812 16.9966 39.0768 14.4713 38.0946 12.1161C37.1123 9.76103 35.6716 7.62267 33.8556 5.82427H33.858ZM20.0736 35.6698C17.1702 35.6708 14.3201 34.893 11.8231 33.4183L11.2331 33.0658L5.10175 34.6664L6.73907 28.712L6.35555 28.0977C4.73251 25.5288 3.87413 22.5545 3.87991 19.5197C3.87991 10.6456 11.1495 3.40628 20.0834 3.40628C22.2118 3.40248 24.3199 3.81811 26.2861 4.62921C28.2523 5.4403 30.0379 6.63083 31.5397 8.13214C33.0468 9.62759 34.2416 11.4053 35.0551 13.3627C35.8686 15.3201 36.2848 17.4185 36.2796 19.5368C36.2697 28.4428 29.0002 35.6698 20.0736 35.6698ZM28.9608 23.5946C28.4765 23.3523 26.0845 22.18 25.6346 22.0136C25.1871 21.8545 24.8602 21.7713 24.5406 22.2559C24.2136 22.738 23.2794 23.8368 22.9991 24.1526C22.7189 24.4781 22.4288 24.5148 21.942 24.2749C21.4577 24.0302 19.8868 23.5211 18.0282 21.8643C16.5777 20.5794 15.6066 18.9886 15.3165 18.5065C15.0363 18.0219 15.2895 17.7625 15.5329 17.5202C15.7468 17.3048 16.0172 16.9524 16.2606 16.6734C16.5064 16.3944 16.5875 16.1888 16.7473 15.8658C16.9071 15.5378 16.8309 15.2588 16.7105 15.0166C16.5875 14.7743 15.6165 12.3832 15.2059 11.4189C14.8126 10.4669 14.4118 10.5991 14.1119 10.5868C13.8316 10.5697 13.5047 10.5697 13.1777 10.5697C12.9308 10.5758 12.6878 10.6327 12.464 10.7367C12.2402 10.8407 12.0404 10.9897 11.8772 11.1742C11.4298 11.6588 10.1784 12.8311 10.1784 15.2221C10.1784 17.6132 11.9239 19.9113 12.1697 20.2368C12.4107 20.5623 15.5968 25.4546 20.4866 27.5593C21.6421 28.061 22.5517 28.3571 23.2622 28.5823C24.4299 28.9543 25.4846 28.898 26.3254 28.7781C27.2596 28.6361 29.2042 27.6033 29.6148 26.4702C30.0179 25.3346 30.0179 24.3655 29.895 24.1623C29.7746 23.9568 29.4476 23.8368 28.9608 23.5946Z" fill="#EEEEEE"/>
</svg>
